%TF.GenerationSoftware,KiCad,Pcbnew,10.0.6-10.0.6~ubuntu26.04.1*%
%TF.CreationDate,2026-09-01T15:11:08+07:00*%
%TF.ProjectId,USB_TypeC_TP4056_Charger,5553425f-5479-4706-9543-5f5450343035,rev?*%
%TF.SameCoordinates,Original*%
%TF.FileFunction,AssemblyDrawing,Top*%
%FSLAX46Y46*%
G04 Gerber Fmt 4.6, Leading zero omitted, Abs format (unit mm)*
G04 Created by KiCad (PCBNEW 10.0.6-10.0.6~ubuntu26.04.1) date 2026-09-01 15:11:08*
%MOMM*%
%LPD*%
G01*
G04 APERTURE LIST*
%ADD10C,0.080000*%
%ADD11C,0.100000*%
G04 APERTURE END LIST*
D10*
X15516666Y-11427149D02*
X15350000Y-11189054D01*
X15230952Y-11427149D02*
X15230952Y-10927149D01*
X15230952Y-10927149D02*
X15421428Y-10927149D01*
X15421428Y-10927149D02*
X15469047Y-10950959D01*
X15469047Y-10950959D02*
X15492857Y-10974768D01*
X15492857Y-10974768D02*
X15516666Y-11022387D01*
X15516666Y-11022387D02*
X15516666Y-11093816D01*
X15516666Y-11093816D02*
X15492857Y-11141435D01*
X15492857Y-11141435D02*
X15469047Y-11165244D01*
X15469047Y-11165244D02*
X15421428Y-11189054D01*
X15421428Y-11189054D02*
X15230952Y-11189054D01*
X15945238Y-11093816D02*
X15945238Y-11427149D01*
X15826190Y-10903340D02*
X15707143Y-11260482D01*
X15707143Y-11260482D02*
X16016666Y-11260482D01*
X2316666Y-11379530D02*
X2292857Y-11403340D01*
X2292857Y-11403340D02*
X2221428Y-11427149D01*
X2221428Y-11427149D02*
X2173809Y-11427149D01*
X2173809Y-11427149D02*
X2102381Y-11403340D01*
X2102381Y-11403340D02*
X2054762Y-11355720D01*
X2054762Y-11355720D02*
X2030952Y-11308101D01*
X2030952Y-11308101D02*
X2007143Y-11212863D01*
X2007143Y-11212863D02*
X2007143Y-11141435D01*
X2007143Y-11141435D02*
X2030952Y-11046197D01*
X2030952Y-11046197D02*
X2054762Y-10998578D01*
X2054762Y-10998578D02*
X2102381Y-10950959D01*
X2102381Y-10950959D02*
X2173809Y-10927149D01*
X2173809Y-10927149D02*
X2221428Y-10927149D01*
X2221428Y-10927149D02*
X2292857Y-10950959D01*
X2292857Y-10950959D02*
X2316666Y-10974768D01*
X2792857Y-11427149D02*
X2507143Y-11427149D01*
X2650000Y-11427149D02*
X2650000Y-10927149D01*
X2650000Y-10927149D02*
X2602381Y-10998578D01*
X2602381Y-10998578D02*
X2554762Y-11046197D01*
X2554762Y-11046197D02*
X2507143Y-11070006D01*
X15827149Y-18969047D02*
X15327149Y-18969047D01*
X15327149Y-18969047D02*
X15327149Y-18849999D01*
X15327149Y-18849999D02*
X15350959Y-18778571D01*
X15350959Y-18778571D02*
X15398578Y-18730952D01*
X15398578Y-18730952D02*
X15446197Y-18707142D01*
X15446197Y-18707142D02*
X15541435Y-18683333D01*
X15541435Y-18683333D02*
X15612863Y-18683333D01*
X15612863Y-18683333D02*
X15708101Y-18707142D01*
X15708101Y-18707142D02*
X15755720Y-18730952D01*
X15755720Y-18730952D02*
X15803340Y-18778571D01*
X15803340Y-18778571D02*
X15827149Y-18849999D01*
X15827149Y-18849999D02*
X15827149Y-18969047D01*
X15374768Y-18492856D02*
X15350959Y-18469047D01*
X15350959Y-18469047D02*
X15327149Y-18421428D01*
X15327149Y-18421428D02*
X15327149Y-18302380D01*
X15327149Y-18302380D02*
X15350959Y-18254761D01*
X15350959Y-18254761D02*
X15374768Y-18230952D01*
X15374768Y-18230952D02*
X15422387Y-18207142D01*
X15422387Y-18207142D02*
X15470006Y-18207142D01*
X15470006Y-18207142D02*
X15541435Y-18230952D01*
X15541435Y-18230952D02*
X15827149Y-18516666D01*
X15827149Y-18516666D02*
X15827149Y-18207142D01*
X2427149Y-21083333D02*
X2189054Y-21249999D01*
X2427149Y-21369047D02*
X1927149Y-21369047D01*
X1927149Y-21369047D02*
X1927149Y-21178571D01*
X1927149Y-21178571D02*
X1950959Y-21130952D01*
X1950959Y-21130952D02*
X1974768Y-21107142D01*
X1974768Y-21107142D02*
X2022387Y-21083333D01*
X2022387Y-21083333D02*
X2093816Y-21083333D01*
X2093816Y-21083333D02*
X2141435Y-21107142D01*
X2141435Y-21107142D02*
X2165244Y-21130952D01*
X2165244Y-21130952D02*
X2189054Y-21178571D01*
X2189054Y-21178571D02*
X2189054Y-21369047D01*
X1927149Y-20654761D02*
X1927149Y-20749999D01*
X1927149Y-20749999D02*
X1950959Y-20797618D01*
X1950959Y-20797618D02*
X1974768Y-20821428D01*
X1974768Y-20821428D02*
X2046197Y-20869047D01*
X2046197Y-20869047D02*
X2141435Y-20892856D01*
X2141435Y-20892856D02*
X2331911Y-20892856D01*
X2331911Y-20892856D02*
X2379530Y-20869047D01*
X2379530Y-20869047D02*
X2403340Y-20845237D01*
X2403340Y-20845237D02*
X2427149Y-20797618D01*
X2427149Y-20797618D02*
X2427149Y-20702380D01*
X2427149Y-20702380D02*
X2403340Y-20654761D01*
X2403340Y-20654761D02*
X2379530Y-20630952D01*
X2379530Y-20630952D02*
X2331911Y-20607142D01*
X2331911Y-20607142D02*
X2212863Y-20607142D01*
X2212863Y-20607142D02*
X2165244Y-20630952D01*
X2165244Y-20630952D02*
X2141435Y-20654761D01*
X2141435Y-20654761D02*
X2117625Y-20702380D01*
X2117625Y-20702380D02*
X2117625Y-20797618D01*
X2117625Y-20797618D02*
X2141435Y-20845237D01*
X2141435Y-20845237D02*
X2165244Y-20869047D01*
X2165244Y-20869047D02*
X2212863Y-20892856D01*
X5116666Y-25627149D02*
X4950000Y-25389054D01*
X4830952Y-25627149D02*
X4830952Y-25127149D01*
X4830952Y-25127149D02*
X5021428Y-25127149D01*
X5021428Y-25127149D02*
X5069047Y-25150959D01*
X5069047Y-25150959D02*
X5092857Y-25174768D01*
X5092857Y-25174768D02*
X5116666Y-25222387D01*
X5116666Y-25222387D02*
X5116666Y-25293816D01*
X5116666Y-25293816D02*
X5092857Y-25341435D01*
X5092857Y-25341435D02*
X5069047Y-25365244D01*
X5069047Y-25365244D02*
X5021428Y-25389054D01*
X5021428Y-25389054D02*
X4830952Y-25389054D01*
X5283333Y-25127149D02*
X5616666Y-25127149D01*
X5616666Y-25127149D02*
X5402381Y-25627149D01*
X15516666Y-16427149D02*
X15350000Y-16189054D01*
X15230952Y-16427149D02*
X15230952Y-15927149D01*
X15230952Y-15927149D02*
X15421428Y-15927149D01*
X15421428Y-15927149D02*
X15469047Y-15950959D01*
X15469047Y-15950959D02*
X15492857Y-15974768D01*
X15492857Y-15974768D02*
X15516666Y-16022387D01*
X15516666Y-16022387D02*
X15516666Y-16093816D01*
X15516666Y-16093816D02*
X15492857Y-16141435D01*
X15492857Y-16141435D02*
X15469047Y-16165244D01*
X15469047Y-16165244D02*
X15421428Y-16189054D01*
X15421428Y-16189054D02*
X15230952Y-16189054D01*
X15969047Y-15927149D02*
X15730952Y-15927149D01*
X15730952Y-15927149D02*
X15707143Y-16165244D01*
X15707143Y-16165244D02*
X15730952Y-16141435D01*
X15730952Y-16141435D02*
X15778571Y-16117625D01*
X15778571Y-16117625D02*
X15897619Y-16117625D01*
X15897619Y-16117625D02*
X15945238Y-16141435D01*
X15945238Y-16141435D02*
X15969047Y-16165244D01*
X15969047Y-16165244D02*
X15992857Y-16212863D01*
X15992857Y-16212863D02*
X15992857Y-16331911D01*
X15992857Y-16331911D02*
X15969047Y-16379530D01*
X15969047Y-16379530D02*
X15945238Y-16403340D01*
X15945238Y-16403340D02*
X15897619Y-16427149D01*
X15897619Y-16427149D02*
X15778571Y-16427149D01*
X15778571Y-16427149D02*
X15730952Y-16403340D01*
X15730952Y-16403340D02*
X15707143Y-16379530D01*
X2316666Y-13979530D02*
X2292857Y-14003340D01*
X2292857Y-14003340D02*
X2221428Y-14027149D01*
X2221428Y-14027149D02*
X2173809Y-14027149D01*
X2173809Y-14027149D02*
X2102381Y-14003340D01*
X2102381Y-14003340D02*
X2054762Y-13955720D01*
X2054762Y-13955720D02*
X2030952Y-13908101D01*
X2030952Y-13908101D02*
X2007143Y-13812863D01*
X2007143Y-13812863D02*
X2007143Y-13741435D01*
X2007143Y-13741435D02*
X2030952Y-13646197D01*
X2030952Y-13646197D02*
X2054762Y-13598578D01*
X2054762Y-13598578D02*
X2102381Y-13550959D01*
X2102381Y-13550959D02*
X2173809Y-13527149D01*
X2173809Y-13527149D02*
X2221428Y-13527149D01*
X2221428Y-13527149D02*
X2292857Y-13550959D01*
X2292857Y-13550959D02*
X2316666Y-13574768D01*
X2507143Y-13574768D02*
X2530952Y-13550959D01*
X2530952Y-13550959D02*
X2578571Y-13527149D01*
X2578571Y-13527149D02*
X2697619Y-13527149D01*
X2697619Y-13527149D02*
X2745238Y-13550959D01*
X2745238Y-13550959D02*
X2769047Y-13574768D01*
X2769047Y-13574768D02*
X2792857Y-13622387D01*
X2792857Y-13622387D02*
X2792857Y-13670006D01*
X2792857Y-13670006D02*
X2769047Y-13741435D01*
X2769047Y-13741435D02*
X2483333Y-14027149D01*
X2483333Y-14027149D02*
X2792857Y-14027149D01*
X2316666Y-17027149D02*
X2150000Y-16789054D01*
X2030952Y-17027149D02*
X2030952Y-16527149D01*
X2030952Y-16527149D02*
X2221428Y-16527149D01*
X2221428Y-16527149D02*
X2269047Y-16550959D01*
X2269047Y-16550959D02*
X2292857Y-16574768D01*
X2292857Y-16574768D02*
X2316666Y-16622387D01*
X2316666Y-16622387D02*
X2316666Y-16693816D01*
X2316666Y-16693816D02*
X2292857Y-16741435D01*
X2292857Y-16741435D02*
X2269047Y-16765244D01*
X2269047Y-16765244D02*
X2221428Y-16789054D01*
X2221428Y-16789054D02*
X2030952Y-16789054D01*
X2483333Y-16527149D02*
X2792857Y-16527149D01*
X2792857Y-16527149D02*
X2626190Y-16717625D01*
X2626190Y-16717625D02*
X2697619Y-16717625D01*
X2697619Y-16717625D02*
X2745238Y-16741435D01*
X2745238Y-16741435D02*
X2769047Y-16765244D01*
X2769047Y-16765244D02*
X2792857Y-16812863D01*
X2792857Y-16812863D02*
X2792857Y-16931911D01*
X2792857Y-16931911D02*
X2769047Y-16979530D01*
X2769047Y-16979530D02*
X2745238Y-17003340D01*
X2745238Y-17003340D02*
X2697619Y-17027149D01*
X2697619Y-17027149D02*
X2554762Y-17027149D01*
X2554762Y-17027149D02*
X2507143Y-17003340D01*
X2507143Y-17003340D02*
X2483333Y-16979530D01*
X4727149Y-7883333D02*
X4489054Y-8049999D01*
X4727149Y-8169047D02*
X4227149Y-8169047D01*
X4227149Y-8169047D02*
X4227149Y-7978571D01*
X4227149Y-7978571D02*
X4250959Y-7930952D01*
X4250959Y-7930952D02*
X4274768Y-7907142D01*
X4274768Y-7907142D02*
X4322387Y-7883333D01*
X4322387Y-7883333D02*
X4393816Y-7883333D01*
X4393816Y-7883333D02*
X4441435Y-7907142D01*
X4441435Y-7907142D02*
X4465244Y-7930952D01*
X4465244Y-7930952D02*
X4489054Y-7978571D01*
X4489054Y-7978571D02*
X4489054Y-8169047D01*
X4727149Y-7407142D02*
X4727149Y-7692856D01*
X4727149Y-7549999D02*
X4227149Y-7549999D01*
X4227149Y-7549999D02*
X4298578Y-7597618D01*
X4298578Y-7597618D02*
X4346197Y-7645237D01*
X4346197Y-7645237D02*
X4370006Y-7692856D01*
X15827149Y-13969047D02*
X15327149Y-13969047D01*
X15327149Y-13969047D02*
X15327149Y-13849999D01*
X15327149Y-13849999D02*
X15350959Y-13778571D01*
X15350959Y-13778571D02*
X15398578Y-13730952D01*
X15398578Y-13730952D02*
X15446197Y-13707142D01*
X15446197Y-13707142D02*
X15541435Y-13683333D01*
X15541435Y-13683333D02*
X15612863Y-13683333D01*
X15612863Y-13683333D02*
X15708101Y-13707142D01*
X15708101Y-13707142D02*
X15755720Y-13730952D01*
X15755720Y-13730952D02*
X15803340Y-13778571D01*
X15803340Y-13778571D02*
X15827149Y-13849999D01*
X15827149Y-13849999D02*
X15827149Y-13969047D01*
X15827149Y-13207142D02*
X15827149Y-13492856D01*
X15827149Y-13349999D02*
X15327149Y-13349999D01*
X15327149Y-13349999D02*
X15398578Y-13397618D01*
X15398578Y-13397618D02*
X15446197Y-13445237D01*
X15446197Y-13445237D02*
X15470006Y-13492856D01*
X2379530Y-23883333D02*
X2403340Y-23907142D01*
X2403340Y-23907142D02*
X2427149Y-23978571D01*
X2427149Y-23978571D02*
X2427149Y-24026190D01*
X2427149Y-24026190D02*
X2403340Y-24097618D01*
X2403340Y-24097618D02*
X2355720Y-24145237D01*
X2355720Y-24145237D02*
X2308101Y-24169047D01*
X2308101Y-24169047D02*
X2212863Y-24192856D01*
X2212863Y-24192856D02*
X2141435Y-24192856D01*
X2141435Y-24192856D02*
X2046197Y-24169047D01*
X2046197Y-24169047D02*
X1998578Y-24145237D01*
X1998578Y-24145237D02*
X1950959Y-24097618D01*
X1950959Y-24097618D02*
X1927149Y-24026190D01*
X1927149Y-24026190D02*
X1927149Y-23978571D01*
X1927149Y-23978571D02*
X1950959Y-23907142D01*
X1950959Y-23907142D02*
X1974768Y-23883333D01*
X2093816Y-23454761D02*
X2427149Y-23454761D01*
X1903340Y-23573809D02*
X2260482Y-23692856D01*
X2260482Y-23692856D02*
X2260482Y-23383333D01*
X9179530Y-19283333D02*
X9203340Y-19307142D01*
X9203340Y-19307142D02*
X9227149Y-19378571D01*
X9227149Y-19378571D02*
X9227149Y-19426190D01*
X9227149Y-19426190D02*
X9203340Y-19497618D01*
X9203340Y-19497618D02*
X9155720Y-19545237D01*
X9155720Y-19545237D02*
X9108101Y-19569047D01*
X9108101Y-19569047D02*
X9012863Y-19592856D01*
X9012863Y-19592856D02*
X8941435Y-19592856D01*
X8941435Y-19592856D02*
X8846197Y-19569047D01*
X8846197Y-19569047D02*
X8798578Y-19545237D01*
X8798578Y-19545237D02*
X8750959Y-19497618D01*
X8750959Y-19497618D02*
X8727149Y-19426190D01*
X8727149Y-19426190D02*
X8727149Y-19378571D01*
X8727149Y-19378571D02*
X8750959Y-19307142D01*
X8750959Y-19307142D02*
X8774768Y-19283333D01*
X8727149Y-19116666D02*
X8727149Y-18807142D01*
X8727149Y-18807142D02*
X8917625Y-18973809D01*
X8917625Y-18973809D02*
X8917625Y-18902380D01*
X8917625Y-18902380D02*
X8941435Y-18854761D01*
X8941435Y-18854761D02*
X8965244Y-18830952D01*
X8965244Y-18830952D02*
X9012863Y-18807142D01*
X9012863Y-18807142D02*
X9131911Y-18807142D01*
X9131911Y-18807142D02*
X9179530Y-18830952D01*
X9179530Y-18830952D02*
X9203340Y-18854761D01*
X9203340Y-18854761D02*
X9227149Y-18902380D01*
X9227149Y-18902380D02*
X9227149Y-19045237D01*
X9227149Y-19045237D02*
X9203340Y-19092856D01*
X9203340Y-19092856D02*
X9179530Y-19116666D01*
X13727149Y-7883333D02*
X13489054Y-8049999D01*
X13727149Y-8169047D02*
X13227149Y-8169047D01*
X13227149Y-8169047D02*
X13227149Y-7978571D01*
X13227149Y-7978571D02*
X13250959Y-7930952D01*
X13250959Y-7930952D02*
X13274768Y-7907142D01*
X13274768Y-7907142D02*
X13322387Y-7883333D01*
X13322387Y-7883333D02*
X13393816Y-7883333D01*
X13393816Y-7883333D02*
X13441435Y-7907142D01*
X13441435Y-7907142D02*
X13465244Y-7930952D01*
X13465244Y-7930952D02*
X13489054Y-7978571D01*
X13489054Y-7978571D02*
X13489054Y-8169047D01*
X13274768Y-7692856D02*
X13250959Y-7669047D01*
X13250959Y-7669047D02*
X13227149Y-7621428D01*
X13227149Y-7621428D02*
X13227149Y-7502380D01*
X13227149Y-7502380D02*
X13250959Y-7454761D01*
X13250959Y-7454761D02*
X13274768Y-7430952D01*
X13274768Y-7430952D02*
X13322387Y-7407142D01*
X13322387Y-7407142D02*
X13370006Y-7407142D01*
X13370006Y-7407142D02*
X13441435Y-7430952D01*
X13441435Y-7430952D02*
X13727149Y-7716666D01*
X13727149Y-7716666D02*
X13727149Y-7407142D01*
%TO.C,R4*%
D11*
X14600000Y-10575000D02*
X16600000Y-10575000D01*
X16600000Y-11825000D01*
X14600000Y-11825000D01*
X14600000Y-10575000D01*
%TO.C,C1*%
X1400000Y-10575000D02*
X3400000Y-10575000D01*
X3400000Y-11825000D01*
X1400000Y-11825000D01*
X1400000Y-10575000D01*
%TO.C,D2*%
X15000000Y-17600000D02*
X15000000Y-19300000D01*
X15000000Y-19300000D02*
X15300000Y-19600000D01*
X15300000Y-19600000D02*
X16200000Y-19600000D01*
X16200000Y-17600000D02*
X15000000Y-17600000D01*
X16200000Y-19600000D02*
X16200000Y-17600000D01*
%TO.C,R6*%
X1575000Y-20000000D02*
X2825000Y-20000000D01*
X2825000Y-22000000D01*
X1575000Y-22000000D01*
X1575000Y-20000000D01*
%TO.C,R7*%
X4200000Y-24775000D02*
X6200000Y-24775000D01*
X6200000Y-26025000D01*
X4200000Y-26025000D01*
X4200000Y-24775000D01*
%TO.C,R5*%
X14600000Y-15575000D02*
X16600000Y-15575000D01*
X16600000Y-16825000D01*
X14600000Y-16825000D01*
X14600000Y-15575000D01*
%TO.C,C2*%
X1400000Y-13175000D02*
X3400000Y-13175000D01*
X3400000Y-14425000D01*
X1400000Y-14425000D01*
X1400000Y-13175000D01*
%TO.C,R3*%
X1400000Y-16175000D02*
X3400000Y-16175000D01*
X3400000Y-17425000D01*
X1400000Y-17425000D01*
X1400000Y-16175000D01*
%TO.C,R1*%
X3875000Y-6800000D02*
X5125000Y-6800000D01*
X5125000Y-8800000D01*
X3875000Y-8800000D01*
X3875000Y-6800000D01*
%TO.C,D1*%
X15000000Y-12600000D02*
X15000000Y-14300000D01*
X15000000Y-14300000D02*
X15300000Y-14600000D01*
X15300000Y-14600000D02*
X16200000Y-14600000D01*
X16200000Y-12600000D02*
X15000000Y-12600000D01*
X16200000Y-14600000D02*
X16200000Y-12600000D01*
%TO.C,C4*%
X1575000Y-22800000D02*
X2825000Y-22800000D01*
X2825000Y-24800000D01*
X1575000Y-24800000D01*
X1575000Y-22800000D01*
%TO.C,C3*%
X8375000Y-18200000D02*
X9625000Y-18200000D01*
X9625000Y-20200000D01*
X8375000Y-20200000D01*
X8375000Y-18200000D01*
%TO.C,R2*%
X12875000Y-6800000D02*
X14125000Y-6800000D01*
X14125000Y-8800000D01*
X12875000Y-8800000D01*
X12875000Y-6800000D01*
%TD*%
M02*
