%TF.GenerationSoftware,KiCad,Pcbnew,10.0.6-10.0.6~ubuntu26.04.1*%
%TF.CreationDate,2026-09-01T15:11:08+07:00*%
%TF.ProjectId,USB_TypeC_TP4056_Charger,5553425f-5479-4706-9543-5f5450343035,rev?*%
%TF.SameCoordinates,Original*%
%TF.FileFunction,Other,User*%
%FSLAX46Y46*%
G04 Gerber Fmt 4.6, Leading zero omitted, Abs format (unit mm)*
G04 Created by KiCad (PCBNEW 10.0.6-10.0.6~ubuntu26.04.1) date 2026-09-01 15:11:08*
%MOMM*%
%LPD*%
G01*
G04 APERTURE LIST*
%ADD10C,0.050000*%
G04 APERTURE END LIST*
%TO.C,R4*%
D10*
X13920000Y-10250000D02*
X17280000Y-10250000D01*
X17280000Y-12150000D01*
X13920000Y-12150000D01*
X13920000Y-10250000D01*
%TO.C,C1*%
X700000Y-10220000D02*
X4100000Y-10220000D01*
X4100000Y-12180000D01*
X700000Y-12180000D01*
X700000Y-10220000D01*
%TO.C,D2*%
X14650000Y-16920000D02*
X16550000Y-16920000D01*
X16550000Y-20280000D01*
X14650000Y-20280000D01*
X14650000Y-16920000D01*
%TO.C,R6*%
X1250000Y-19320000D02*
X3150000Y-19320000D01*
X3150000Y-22680000D01*
X1250000Y-22680000D01*
X1250000Y-19320000D01*
%TO.C,R7*%
X3520000Y-24450000D02*
X6880000Y-24450000D01*
X6880000Y-26350000D01*
X3520000Y-26350000D01*
X3520000Y-24450000D01*
%TO.C,R5*%
X13920000Y-15250000D02*
X17280000Y-15250000D01*
X17280000Y-17150000D01*
X13920000Y-17150000D01*
X13920000Y-15250000D01*
%TO.C,C2*%
X700000Y-12820000D02*
X4100000Y-12820000D01*
X4100000Y-14780000D01*
X700000Y-14780000D01*
X700000Y-12820000D01*
%TO.C,R3*%
X720000Y-15850000D02*
X4080000Y-15850000D01*
X4080000Y-17750000D01*
X720000Y-17750000D01*
X720000Y-15850000D01*
%TO.C,R1*%
X3550000Y-6120000D02*
X5450000Y-6120000D01*
X5450000Y-9480000D01*
X3550000Y-9480000D01*
X3550000Y-6120000D01*
%TO.C,D1*%
X14650000Y-11920000D02*
X16550000Y-11920000D01*
X16550000Y-15280000D01*
X14650000Y-15280000D01*
X14650000Y-11920000D01*
%TO.C,C4*%
X1220000Y-22100000D02*
X3180000Y-22100000D01*
X3180000Y-25500000D01*
X1220000Y-25500000D01*
X1220000Y-22100000D01*
%TO.C,C3*%
X8020000Y-17500000D02*
X9980000Y-17500000D01*
X9980000Y-20900000D01*
X8020000Y-20900000D01*
X8020000Y-17500000D01*
%TO.C,R2*%
X12550000Y-6120000D02*
X14450000Y-6120000D01*
X14450000Y-9480000D01*
X12550000Y-9480000D01*
X12550000Y-6120000D01*
%TD*%
M02*
