%TF.GenerationSoftware,KiCad,Pcbnew,10.0.6-10.0.6~ubuntu26.04.1*%
%TF.CreationDate,2026-09-08T19:27:16+07:00*%
%TF.ProjectId,lab8,6c616238-2e6b-4696-9361-645f70636258,Rev 2.0 - DRC Zero Errors*%
%TF.SameCoordinates,Original*%
%TF.FileFunction,Copper,L2,Bot*%
%TF.FilePolarity,Positive*%
%FSLAX46Y46*%
G04 Gerber Fmt 4.6, Leading zero omitted, Abs format (unit mm)*
G04 Created by KiCad (PCBNEW 10.0.6-10.0.6~ubuntu26.04.1) date 2026-09-08 19:27:16*
%MOMM*%
%LPD*%
G01*
G04 APERTURE LIST*
G04 Aperture macros list*
%AMRoundRect*
0 Rectangle with rounded corners*
0 $1 Rounding radius*
0 $2 $3 $4 $5 $6 $7 $8 $9 X,Y pos of 4 corners*
0 Add a 4 corners polygon primitive as box body*
4,1,4,$2,$3,$4,$5,$6,$7,$8,$9,$2,$3,0*
0 Add four circle primitives for the rounded corners*
1,1,$1+$1,$2,$3*
1,1,$1+$1,$4,$5*
1,1,$1+$1,$6,$7*
1,1,$1+$1,$8,$9*
0 Add four rect primitives between the rounded corners*
20,1,$1+$1,$2,$3,$4,$5,0*
20,1,$1+$1,$4,$5,$6,$7,0*
20,1,$1+$1,$6,$7,$8,$9,0*
20,1,$1+$1,$8,$9,$2,$3,0*%
G04 Aperture macros list end*
%TA.AperFunction,ComponentPad*%
%ADD10C,1.650000*%
%TD*%
%TA.AperFunction,ComponentPad*%
%ADD11R,1.650000X2.500000*%
%TD*%
%TA.AperFunction,ComponentPad*%
%ADD12RoundRect,0.250000X-0.550000X0.550000X-0.550000X-0.550000X0.550000X-0.550000X0.550000X0.550000X0*%
%TD*%
%TA.AperFunction,ComponentPad*%
%ADD13C,1.600000*%
%TD*%
%TA.AperFunction,ComponentPad*%
%ADD14R,1.700000X1.700000*%
%TD*%
%TA.AperFunction,ComponentPad*%
%ADD15C,1.700000*%
%TD*%
%TA.AperFunction,ComponentPad*%
%ADD16RoundRect,0.250000X0.550000X0.550000X-0.550000X0.550000X-0.550000X-0.550000X0.550000X-0.550000X0*%
%TD*%
%TA.AperFunction,ComponentPad*%
%ADD17O,1.450000X2.000000*%
%TD*%
%TA.AperFunction,ComponentPad*%
%ADD18O,1.150000X1.800000*%
%TD*%
%TA.AperFunction,ViaPad*%
%ADD19C,0.600000*%
%TD*%
%TA.AperFunction,ViaPad*%
%ADD20C,0.800000*%
%TD*%
%TA.AperFunction,Conductor*%
%ADD21C,0.600000*%
%TD*%
%TA.AperFunction,Conductor*%
%ADD22C,0.400000*%
%TD*%
%TA.AperFunction,Conductor*%
%ADD23C,0.300000*%
%TD*%
%TA.AperFunction,Conductor*%
%ADD24C,0.350000*%
%TD*%
G04 APERTURE END LIST*
D10*
%TO.P,J8,1,1_1*%
%TO.N,/P2+*%
X67980000Y-122080000D03*
%TO.P,J8,2,2_2*%
X70520000Y-122080000D03*
%TO.P,J8,3,3_3*%
X73060000Y-122080000D03*
%TO.P,J8,4,4_4*%
%TO.N,/P2-*%
X67980000Y-119540000D03*
%TO.P,J8,5,5_5*%
X70520000Y-119540000D03*
%TO.P,J8,6,6_6*%
X73060000Y-119540000D03*
%TD*%
D11*
%TO.P,SW2,1*%
%TO.N,/VDD_5V*%
X35670000Y-95000000D03*
D10*
%TO.P,SW2,2*%
%TO.N,/VDD_5V_IN*%
X37850000Y-95000000D03*
%TO.P,SW2,3*%
%TO.N,unconnected-(SW2-Pad3)*%
X39850000Y-95000000D03*
%TO.P,SW2,4*%
%TO.N,GND*%
X41850000Y-95000000D03*
D11*
%TO.P,SW2,5*%
X43970000Y-95000000D03*
%TD*%
D12*
%TO.P,C11,1*%
%TO.N,GND*%
X66300000Y-113000000D03*
D13*
%TO.P,C11,2*%
%TO.N,Net-(U5-TH)*%
X68800000Y-113000000D03*
%TD*%
D10*
%TO.P,J6,1,1_1*%
%TO.N,/VDD_5V*%
X64040000Y-137630000D03*
%TO.P,J6,2,2_2*%
%TO.N,/P2+*%
X64040000Y-135090000D03*
%TO.P,J6,3,3_3*%
%TO.N,/VDD_3V3*%
X64040000Y-132550000D03*
%TO.P,J6,4,4_4*%
%TO.N,/VDD_N*%
X61500000Y-132550000D03*
%TO.P,J6,5,5_5*%
%TO.N,/P2-*%
X61500000Y-135090000D03*
%TO.P,J6,6,6_6*%
%TO.N,GND*%
X61500000Y-137630000D03*
%TD*%
D14*
%TO.P,J1,1,1_1*%
%TO.N,/VDD_3V3*%
X30000000Y-132000000D03*
D15*
%TO.P,J1,2,2_2*%
%TO.N,Net-(U2-EN)*%
X30000000Y-134540000D03*
%TO.P,J1,3,3_3*%
%TO.N,/VDD_5V*%
X30000000Y-137080000D03*
%TD*%
D10*
%TO.P,J7,1,1_1*%
%TO.N,/P1+*%
X67980000Y-104080000D03*
%TO.P,J7,2,2_2*%
X70520000Y-104080000D03*
%TO.P,J7,3,3_3*%
X73060000Y-104080000D03*
%TO.P,J7,4,4_4*%
%TO.N,/P1-*%
X67980000Y-101540000D03*
%TO.P,J7,5,5_5*%
X70520000Y-101540000D03*
%TO.P,J7,6,6_6*%
X73060000Y-101540000D03*
%TD*%
D14*
%TO.P,J4,1,1_1*%
%TO.N,GND*%
X48000000Y-134000000D03*
D15*
%TO.P,J4,2,2_2*%
%TO.N,/1Hz*%
X48000000Y-136540000D03*
%TD*%
D14*
%TO.P,J3,1,1_1*%
%TO.N,/VDD_3V3*%
X40000000Y-127500000D03*
D15*
%TO.P,J3,2,2_2*%
%TO.N,/RX*%
X40000000Y-130040000D03*
%TO.P,J3,3,3_3*%
%TO.N,/TX*%
X40000000Y-132580000D03*
%TO.P,J3,4,4_4*%
%TO.N,/DTR*%
X40000000Y-135120000D03*
%TO.P,J3,5,5_5*%
%TO.N,GND*%
X40000000Y-137660000D03*
%TD*%
D16*
%TO.P,C10,1*%
%TO.N,GND*%
X70500000Y-108500000D03*
D13*
%TO.P,C10,2*%
%TO.N,Net-(U5-CV)*%
X73000000Y-108500000D03*
%TD*%
D17*
%TO.P,USB1,6*%
%TO.N,GND*%
X30610000Y-99705000D03*
D18*
%TO.P,USB1,7*%
X26810000Y-99855000D03*
%TO.P,USB1,8*%
X26810000Y-92105000D03*
D17*
%TO.P,USB1,9*%
X30610000Y-92255000D03*
%TD*%
D10*
%TO.P,J5,1,1_1*%
%TO.N,/VDD_5V*%
X55540000Y-137630000D03*
%TO.P,J5,2,2_2*%
%TO.N,/P1+*%
X55540000Y-135090000D03*
%TO.P,J5,3,3_3*%
%TO.N,/VDD_3V3*%
X55540000Y-132550000D03*
%TO.P,J5,4,4_4*%
%TO.N,/VDD_N*%
X53000000Y-132550000D03*
%TO.P,J5,5,5_5*%
%TO.N,/P1-*%
X53000000Y-135090000D03*
%TO.P,J5,6,6_6*%
%TO.N,GND*%
X53000000Y-137630000D03*
%TD*%
D19*
%TO.N,/VDD_5V*%
X55200000Y-125000000D03*
X63700000Y-125000000D03*
X31000000Y-128000000D03*
D20*
X74500000Y-98800000D03*
D19*
%TO.N,/RX*%
X54062500Y-121000000D03*
X39000000Y-129039999D03*
%TO.N,/TX*%
X60062500Y-121000000D03*
X38500000Y-131080000D03*
%TO.N,/VDD_5V_IN*%
X27500000Y-106000000D03*
X29500000Y-94680000D03*
D20*
%TO.N,/VDD_N*%
X61500000Y-99000000D03*
D19*
X43000000Y-128000000D03*
D20*
%TO.N,/VDD_3V3*%
X65550000Y-101000000D03*
D19*
X37000000Y-128000000D03*
%TO.N,Net-(U2-EN)*%
X43500000Y-96500000D03*
%TO.N,/1Hz*%
X49000000Y-127500000D03*
X54000000Y-110635000D03*
%TO.N,Net-(D6-A)*%
X55000000Y-126500000D03*
X62000000Y-122500000D03*
%TD*%
%TO.N,/P2+*%
D21*
X73000000Y-122080000D02*
X73000000Y-135090000D01*
X73000000Y-135090000D02*
X64040000Y-135090000D01*
X67980000Y-122080000D02*
X73000000Y-122080000D01*
%TO.N,/P2-*%
X61500000Y-128000000D02*
X61500000Y-135090000D01*
X67000000Y-119540000D02*
X67000000Y-128000000D01*
X67000000Y-128000000D02*
X61500000Y-128000000D01*
X67980000Y-119540000D02*
X67000000Y-119540000D01*
%TO.N,/VDD_5V*%
X74500000Y-138500000D02*
X55200000Y-138500000D01*
X55200000Y-138500000D02*
X64040000Y-137630000D01*
X64040000Y-137630000D02*
X55540000Y-137630000D01*
X74500000Y-98800000D02*
X74500000Y-138500000D01*
X55540000Y-137630000D02*
X30000000Y-138500000D01*
D22*
X31000000Y-128000000D02*
X31000000Y-138500000D01*
X63700000Y-125000000D02*
X63700000Y-138500000D01*
X55200000Y-125000000D02*
X55200000Y-138500000D01*
D21*
X30000000Y-138500000D02*
X30000000Y-137080000D01*
%TO.N,/RX*%
D23*
X52000000Y-121000000D02*
X54062500Y-121000000D01*
X44000000Y-129039999D02*
X52000000Y-121000000D01*
X39000000Y-129039999D02*
X44000000Y-129039999D01*
%TO.N,/TX*%
X55000000Y-121000000D02*
X60062500Y-121000000D01*
X38500000Y-131080000D02*
X45000000Y-131080000D01*
X45000000Y-131080000D02*
X55000000Y-121000000D01*
%TO.N,/VDD_5V_IN*%
D22*
X27500000Y-96680000D02*
X27500000Y-106000000D01*
X29500000Y-94680000D02*
X27500000Y-96680000D01*
%TO.N,/VDD_N*%
D21*
X61500000Y-99000000D02*
X61500000Y-130000000D01*
X61500000Y-132550000D02*
X53000000Y-132550000D01*
D22*
X43000000Y-132550000D02*
X53000000Y-132550000D01*
D21*
X61500000Y-130000000D02*
X61500000Y-132550000D01*
D22*
X43000000Y-128000000D02*
X43000000Y-132550000D01*
%TO.N,/VDD_3V3*%
D21*
X40000000Y-132550000D02*
X40000000Y-127500000D01*
X65550000Y-132550000D02*
X64040000Y-132550000D01*
X40000000Y-127500000D02*
X30000000Y-127500000D01*
X64040000Y-132550000D02*
X55540000Y-132550000D01*
X55540000Y-132550000D02*
X40000000Y-132550000D01*
D22*
X37000000Y-128000000D02*
X37000000Y-132550000D01*
D21*
X30000000Y-127500000D02*
X30000000Y-132000000D01*
X65550000Y-101000000D02*
X65550000Y-132550000D01*
%TO.N,Net-(U2-EN)*%
D24*
X43500000Y-96500000D02*
X43500000Y-91500000D01*
X28000000Y-134540000D02*
X30000000Y-134540000D01*
X28000000Y-91500000D02*
X28000000Y-134540000D01*
X43500000Y-91500000D02*
X28000000Y-91500000D01*
%TO.N,/P1+*%
D21*
X67980000Y-104080000D02*
X71000000Y-104080000D01*
X71000000Y-135090000D02*
X55540000Y-135090000D01*
X71000000Y-104080000D02*
X71000000Y-135090000D01*
%TO.N,/P1-*%
X67980000Y-101540000D02*
X69000000Y-101540000D01*
X69000000Y-101540000D02*
X69000000Y-105000000D01*
X53000000Y-105000000D02*
X53000000Y-135090000D01*
X69000000Y-105000000D02*
X53000000Y-105000000D01*
%TO.N,/1Hz*%
D23*
X54000000Y-110635000D02*
X49000000Y-115635000D01*
X49000000Y-115635000D02*
X49000000Y-127500000D01*
%TO.N,Net-(D6-A)*%
D24*
X55000000Y-122500000D02*
X55000000Y-126500000D01*
X62000000Y-122500000D02*
X55000000Y-122500000D01*
%TD*%
M02*
