%TF.GenerationSoftware,KiCad,Pcbnew,10.0.6-10.0.6~ubuntu26.04.1*%
%TF.CreationDate,2026-09-08T19:27:15+07:00*%
%TF.ProjectId,lab8,6c616238-2e6b-4696-9361-645f70636258,Rev 2.0 - DRC Zero Errors*%
%TF.SameCoordinates,Original*%
%TF.FileFunction,Copper,L1,Top*%
%TF.FilePolarity,Positive*%
%FSLAX46Y46*%
G04 Gerber Fmt 4.6, Leading zero omitted, Abs format (unit mm)*
G04 Created by KiCad (PCBNEW 10.0.6-10.0.6~ubuntu26.04.1) date 2026-09-08 19:27:15*
%MOMM*%
%LPD*%
G01*
G04 APERTURE LIST*
G04 Aperture macros list*
%AMRoundRect*
0 Rectangle with rounded corners*
0 $1 Rounding radius*
0 $2 $3 $4 $5 $6 $7 $8 $9 X,Y pos of 4 corners*
0 Add a 4 corners polygon primitive as box body*
4,1,4,$2,$3,$4,$5,$6,$7,$8,$9,$2,$3,0*
0 Add four circle primitives for the rounded corners*
1,1,$1+$1,$2,$3*
1,1,$1+$1,$4,$5*
1,1,$1+$1,$6,$7*
1,1,$1+$1,$8,$9*
0 Add four rect primitives between the rounded corners*
20,1,$1+$1,$2,$3,$4,$5,0*
20,1,$1+$1,$4,$5,$6,$7,0*
20,1,$1+$1,$6,$7,$8,$9,0*
20,1,$1+$1,$8,$9,$2,$3,0*%
G04 Aperture macros list end*
%TA.AperFunction,ComponentPad*%
%ADD10C,1.650000*%
%TD*%
%TA.AperFunction,HeatsinkPad*%
%ADD11R,2.700000X2.700000*%
%TD*%
%TA.AperFunction,SMDPad,CuDef*%
%ADD12RoundRect,0.062500X-0.475000X-0.062500X0.475000X-0.062500X0.475000X0.062500X-0.475000X0.062500X0*%
%TD*%
%TA.AperFunction,SMDPad,CuDef*%
%ADD13RoundRect,0.062500X-0.062500X-0.475000X0.062500X-0.475000X0.062500X0.475000X-0.062500X0.475000X0*%
%TD*%
%TA.AperFunction,ComponentPad*%
%ADD14R,1.650000X2.500000*%
%TD*%
%TA.AperFunction,SMDPad,CuDef*%
%ADD15RoundRect,0.250000X0.475000X-0.250000X0.475000X0.250000X-0.475000X0.250000X-0.475000X-0.250000X0*%
%TD*%
%TA.AperFunction,ComponentPad*%
%ADD16RoundRect,0.250000X-0.550000X0.550000X-0.550000X-0.550000X0.550000X-0.550000X0.550000X0.550000X0*%
%TD*%
%TA.AperFunction,ComponentPad*%
%ADD17C,1.600000*%
%TD*%
%TA.AperFunction,SMDPad,CuDef*%
%ADD18RoundRect,0.250000X-0.250000X-0.475000X0.250000X-0.475000X0.250000X0.475000X-0.250000X0.475000X0*%
%TD*%
%TA.AperFunction,SMDPad,CuDef*%
%ADD19RoundRect,0.250000X-0.262500X-0.450000X0.262500X-0.450000X0.262500X0.450000X-0.262500X0.450000X0*%
%TD*%
%TA.AperFunction,SMDPad,CuDef*%
%ADD20RoundRect,0.250000X-0.475000X0.250000X-0.475000X-0.250000X0.475000X-0.250000X0.475000X0.250000X0*%
%TD*%
%TA.AperFunction,SMDPad,CuDef*%
%ADD21RoundRect,0.250000X0.262500X0.450000X-0.262500X0.450000X-0.262500X-0.450000X0.262500X-0.450000X0*%
%TD*%
%TA.AperFunction,SMDPad,CuDef*%
%ADD22RoundRect,0.250000X-0.450000X0.262500X-0.450000X-0.262500X0.450000X-0.262500X0.450000X0.262500X0*%
%TD*%
%TA.AperFunction,ComponentPad*%
%ADD23R,1.700000X1.700000*%
%TD*%
%TA.AperFunction,ComponentPad*%
%ADD24C,1.700000*%
%TD*%
%TA.AperFunction,SMDPad,CuDef*%
%ADD25RoundRect,0.243750X0.243750X0.456250X-0.243750X0.456250X-0.243750X-0.456250X0.243750X-0.456250X0*%
%TD*%
%TA.AperFunction,SMDPad,CuDef*%
%ADD26RoundRect,0.243750X-0.243750X-0.456250X0.243750X-0.456250X0.243750X0.456250X-0.243750X0.456250X0*%
%TD*%
%TA.AperFunction,SMDPad,CuDef*%
%ADD27RoundRect,0.150000X0.150000X-0.512500X0.150000X0.512500X-0.150000X0.512500X-0.150000X-0.512500X0*%
%TD*%
%TA.AperFunction,SMDPad,CuDef*%
%ADD28RoundRect,0.250000X0.450000X-0.262500X0.450000X0.262500X-0.450000X0.262500X-0.450000X-0.262500X0*%
%TD*%
%TA.AperFunction,ComponentPad*%
%ADD29RoundRect,0.250000X0.550000X0.550000X-0.550000X0.550000X-0.550000X-0.550000X0.550000X-0.550000X0*%
%TD*%
%TA.AperFunction,SMDPad,CuDef*%
%ADD30RoundRect,0.250000X0.250000X0.475000X-0.250000X0.475000X-0.250000X-0.475000X0.250000X-0.475000X0*%
%TD*%
%TA.AperFunction,SMDPad,CuDef*%
%ADD31RoundRect,0.150000X0.150000X-0.725000X0.150000X0.725000X-0.150000X0.725000X-0.150000X-0.725000X0*%
%TD*%
%TA.AperFunction,SMDPad,CuDef*%
%ADD32RoundRect,0.112500X0.112500X0.537500X-0.112500X0.537500X-0.112500X-0.537500X0.112500X-0.537500X0*%
%TD*%
%TA.AperFunction,ComponentPad*%
%ADD33O,1.450000X2.000000*%
%TD*%
%TA.AperFunction,ComponentPad*%
%ADD34O,1.150000X1.800000*%
%TD*%
%TA.AperFunction,SMDPad,CuDef*%
%ADD35RoundRect,0.375000X-0.625000X-0.375000X0.625000X-0.375000X0.625000X0.375000X-0.625000X0.375000X0*%
%TD*%
%TA.AperFunction,SMDPad,CuDef*%
%ADD36RoundRect,0.500000X-0.500000X-1.400000X0.500000X-1.400000X0.500000X1.400000X-0.500000X1.400000X0*%
%TD*%
%TA.AperFunction,ViaPad*%
%ADD37C,0.600000*%
%TD*%
%TA.AperFunction,ViaPad*%
%ADD38C,0.800000*%
%TD*%
%TA.AperFunction,Conductor*%
%ADD39C,0.600000*%
%TD*%
%TA.AperFunction,Conductor*%
%ADD40C,0.500000*%
%TD*%
%TA.AperFunction,Conductor*%
%ADD41C,0.400000*%
%TD*%
%TA.AperFunction,Conductor*%
%ADD42C,0.250000*%
%TD*%
%TA.AperFunction,Conductor*%
%ADD43C,0.300000*%
%TD*%
%TA.AperFunction,Conductor*%
%ADD44C,0.350000*%
%TD*%
G04 APERTURE END LIST*
D10*
%TO.P,J8,1,1_1*%
%TO.N,/P2+*%
X67980000Y-122080000D03*
%TO.P,J8,2,2_2*%
X70520000Y-122080000D03*
%TO.P,J8,3,3_3*%
X73060000Y-122080000D03*
%TO.P,J8,4,4_4*%
%TO.N,/P2-*%
X67980000Y-119540000D03*
%TO.P,J8,5,5_5*%
X70520000Y-119540000D03*
%TO.P,J8,6,6_6*%
X73060000Y-119540000D03*
%TD*%
D11*
%TO.P,U3,0,GND_0*%
%TO.N,GND*%
X36610000Y-105770000D03*
D12*
%TO.P,U3,1,DCD_1*%
%TO.N,unconnected-(U3-DCD-Pad1)*%
X34297500Y-107270000D03*
%TO.P,U3,2,RI_2*%
%TO.N,unconnected-(U3-RI-Pad2)*%
X34297500Y-106770000D03*
%TO.P,U3,3,GND_3*%
%TO.N,GND*%
X34297500Y-106270000D03*
%TO.P,U3,4,D+_4*%
%TO.N,/D+*%
X34297500Y-105770000D03*
%TO.P,U3,5,D-_5*%
%TO.N,/D-*%
X34297500Y-105270000D03*
%TO.P,U3,6,VDD_6*%
%TO.N,Net-(U3-VDD)*%
X34297500Y-104770000D03*
%TO.P,U3,7,REGIN_7*%
%TO.N,/VDD_5V*%
X34297500Y-104270000D03*
D13*
%TO.P,U3,8,VBUS_8*%
X35110000Y-103457500D03*
%TO.P,U3,9,~{RST}_9*%
%TO.N,unconnected-(U3-~{RST}-Pad9)*%
X35610000Y-103457500D03*
%TO.P,U3,10,NC_10*%
%TO.N,unconnected-(U3-NC-Pad10)*%
X36110000Y-103457500D03*
%TO.P,U3,11,~{SUSPEND}_11*%
%TO.N,unconnected-(U3-~{SUSPEND}-Pad11)*%
X36610000Y-103457500D03*
%TO.P,U3,12,SUSPEND_12*%
%TO.N,unconnected-(U3-SUSPEND-Pad12)*%
X37110000Y-103457500D03*
%TO.P,U3,13,NC_13*%
%TO.N,unconnected-(U3-NC-Pad13)*%
X37610000Y-103457500D03*
%TO.P,U3,14,NC_14*%
%TO.N,unconnected-(U3-NC-Pad14)*%
X38110000Y-103457500D03*
D12*
%TO.P,U3,15,NC_15*%
%TO.N,unconnected-(U3-NC-Pad15)*%
X38922500Y-104270000D03*
%TO.P,U3,16,NC_16*%
%TO.N,unconnected-(U3-NC-Pad16)*%
X38922500Y-104770000D03*
%TO.P,U3,17,NC_17*%
%TO.N,unconnected-(U3-NC-Pad17)*%
X38922500Y-105270000D03*
%TO.P,U3,18,NC/VPP_18*%
%TO.N,unconnected-(U3-NC{slash}VPP-Pad18)*%
X38922500Y-105770000D03*
%TO.P,U3,19,NC_19*%
%TO.N,unconnected-(U3-NC-Pad19)*%
X38922500Y-106270000D03*
%TO.P,U3,20,NC_20*%
%TO.N,unconnected-(U3-NC-Pad20)*%
X38922500Y-106770000D03*
%TO.P,U3,21,NC_21*%
%TO.N,unconnected-(U3-NC-Pad21)*%
X38922500Y-107270000D03*
D13*
%TO.P,U3,22,NC_22*%
%TO.N,unconnected-(U3-NC-Pad22)*%
X38110000Y-108082500D03*
%TO.P,U3,23,CTS_23*%
%TO.N,unconnected-(U3-CTS-Pad23)*%
X37610000Y-108082500D03*
%TO.P,U3,24,RTS_24*%
%TO.N,unconnected-(U3-RTS-Pad24)*%
X37110000Y-108082500D03*
%TO.P,U3,25,RXD_25*%
%TO.N,/RX*%
X36610000Y-108082500D03*
%TO.P,U3,26,TXD_26*%
%TO.N,/TX*%
X36110000Y-108082500D03*
%TO.P,U3,27,DSR_27*%
%TO.N,unconnected-(U3-DSR-Pad27)*%
X35610000Y-108082500D03*
%TO.P,U3,28,DTR_28*%
%TO.N,Net-(U3-DTR)*%
X35110000Y-108082500D03*
%TD*%
D14*
%TO.P,SW2,1*%
%TO.N,/VDD_5V*%
X35670000Y-95000000D03*
D10*
%TO.P,SW2,2*%
%TO.N,/VDD_5V_IN*%
X37850000Y-95000000D03*
%TO.P,SW2,3*%
%TO.N,unconnected-(SW2-Pad3)*%
X39850000Y-95000000D03*
%TO.P,SW2,4*%
%TO.N,GND*%
X41850000Y-95000000D03*
D14*
%TO.P,SW2,5*%
X43970000Y-95000000D03*
%TD*%
D15*
%TO.P,C4,1*%
%TO.N,/VDD_5V*%
X71500000Y-97450000D03*
%TO.P,C4,2*%
%TO.N,GND*%
X71500000Y-95550000D03*
%TD*%
D16*
%TO.P,C11,1*%
%TO.N,GND*%
X66300000Y-113000000D03*
D17*
%TO.P,C11,2*%
%TO.N,Net-(U5-TH)*%
X68800000Y-113000000D03*
%TD*%
D18*
%TO.P,C3,1*%
%TO.N,/VDD_N*%
X61500000Y-97450000D03*
%TO.P,C3,2*%
%TO.N,GND*%
X61500000Y-95550000D03*
%TD*%
D10*
%TO.P,J6,1,1_1*%
%TO.N,/VDD_5V*%
X64040000Y-137630000D03*
%TO.P,J6,2,2_2*%
%TO.N,/P2+*%
X64040000Y-135090000D03*
%TO.P,J6,3,3_3*%
%TO.N,/VDD_3V3*%
X64040000Y-132550000D03*
%TO.P,J6,4,4_4*%
%TO.N,/VDD_N*%
X61500000Y-132550000D03*
%TO.P,J6,5,5_5*%
%TO.N,/P2-*%
X61500000Y-135090000D03*
%TO.P,J6,6,6_6*%
%TO.N,GND*%
X61500000Y-137630000D03*
%TD*%
D19*
%TO.P,R1,1*%
%TO.N,/VDD_5V*%
X31000000Y-127412500D03*
%TO.P,R1,2*%
%TO.N,Net-(D1-A)*%
X31000000Y-125587500D03*
%TD*%
D20*
%TO.P,C7,1*%
%TO.N,GND*%
X29050000Y-112000000D03*
%TO.P,C7,2*%
%TO.N,Net-(U3-VDD)*%
X30950000Y-112000000D03*
%TD*%
D21*
%TO.P,R3,1*%
%TO.N,/VDD_N*%
X43000000Y-127412500D03*
%TO.P,R3,2*%
%TO.N,Net-(D3-K)*%
X43000000Y-125587500D03*
%TD*%
D22*
%TO.P,R8,1*%
%TO.N,Net-(U5-DC)*%
X52000000Y-112912500D03*
%TO.P,R8,2*%
%TO.N,Net-(U5-TH)*%
X52000000Y-111087500D03*
%TD*%
D23*
%TO.P,J1,1,1_1*%
%TO.N,/VDD_3V3*%
X30000000Y-132000000D03*
D24*
%TO.P,J1,2,2_2*%
%TO.N,Net-(U2-EN)*%
X30000000Y-134540000D03*
%TO.P,J1,3,3_3*%
%TO.N,/VDD_5V*%
X30000000Y-137080000D03*
%TD*%
D18*
%TO.P,C2,1*%
%TO.N,Net-(U2-C1-)*%
X56500000Y-97450000D03*
%TO.P,C2,2*%
%TO.N,Net-(U2-C1+)*%
X56500000Y-95550000D03*
%TD*%
D10*
%TO.P,J7,1,1_1*%
%TO.N,/P1+*%
X67980000Y-104080000D03*
%TO.P,J7,2,2_2*%
X70520000Y-104080000D03*
%TO.P,J7,3,3_3*%
X73060000Y-104080000D03*
%TO.P,J7,4,4_4*%
%TO.N,/P1-*%
X67980000Y-101540000D03*
%TO.P,J7,5,5_5*%
X70520000Y-101540000D03*
%TO.P,J7,6,6_6*%
X73060000Y-101540000D03*
%TD*%
D18*
%TO.P,C9,1*%
%TO.N,/DTR*%
X42550000Y-112000000D03*
%TO.P,C9,2*%
%TO.N,Net-(U3-DTR)*%
X44450000Y-112000000D03*
%TD*%
D25*
%TO.P,D3,1,K_1*%
%TO.N,Net-(D3-K)*%
X42062500Y-122000000D03*
%TO.P,D3,2,A_2*%
%TO.N,GND*%
X43937500Y-122000000D03*
%TD*%
D26*
%TO.P,D5,1,K_1*%
%TO.N,/RX*%
X54062500Y-122000000D03*
%TO.P,D5,2,A_2*%
%TO.N,Net-(D5-A)*%
X55937500Y-122000000D03*
%TD*%
%TO.P,D4,1,K_1*%
%TO.N,GND*%
X48062500Y-122000000D03*
%TO.P,D4,2,A_2*%
%TO.N,Net-(D4-A)*%
X49937500Y-122000000D03*
%TD*%
D27*
%TO.P,U2,1,VOUT_1*%
%TO.N,/VDD_N*%
X65362500Y-95550000D03*
%TO.P,U2,2,GND_2*%
%TO.N,GND*%
X65362500Y-96500000D03*
%TO.P,U2,3,VIN_3*%
%TO.N,Net-(U2-EN)*%
X65362500Y-97450000D03*
%TO.P,U2,4,EN_4*%
X67637500Y-97450000D03*
%TO.P,U2,5,C1+_5*%
%TO.N,Net-(U2-C1+)*%
X67637500Y-96500000D03*
%TO.P,U2,6,C1-_6*%
%TO.N,Net-(U2-C1-)*%
X67637500Y-95550000D03*
%TD*%
D21*
%TO.P,R4,1*%
%TO.N,/1Hz*%
X49000000Y-127412500D03*
%TO.P,R4,2*%
%TO.N,Net-(D4-A)*%
X49000000Y-125587500D03*
%TD*%
D25*
%TO.P,D2,1,K_1*%
%TO.N,GND*%
X36062500Y-122000000D03*
%TO.P,D2,2,A_2*%
%TO.N,Net-(D2-A)*%
X37937500Y-122000000D03*
%TD*%
D23*
%TO.P,J4,1,1_1*%
%TO.N,GND*%
X48000000Y-134000000D03*
D24*
%TO.P,J4,2,2_2*%
%TO.N,/1Hz*%
X48000000Y-136540000D03*
%TD*%
D19*
%TO.P,R2,1*%
%TO.N,/VDD_3V3*%
X37000000Y-127412500D03*
%TO.P,R2,2*%
%TO.N,Net-(D2-A)*%
X37000000Y-125587500D03*
%TD*%
D15*
%TO.P,C5,1*%
%TO.N,/VDD_3V3*%
X65550000Y-102500000D03*
%TO.P,C5,2*%
%TO.N,GND*%
X67450000Y-102500000D03*
%TD*%
D28*
%TO.P,R7,1*%
%TO.N,/VDD_5V*%
X52000000Y-106912500D03*
%TO.P,R7,2*%
%TO.N,Net-(U5-DC)*%
X52000000Y-105087500D03*
%TD*%
D21*
%TO.P,R5,1*%
%TO.N,Net-(D6-A)*%
X55000000Y-127412500D03*
%TO.P,R5,2*%
%TO.N,/VDD_5V*%
X55000000Y-125587500D03*
%TD*%
D23*
%TO.P,J3,1,1_1*%
%TO.N,/VDD_3V3*%
X40000000Y-127500000D03*
D24*
%TO.P,J3,2,2_2*%
%TO.N,/RX*%
X40000000Y-130040000D03*
%TO.P,J3,3,3_3*%
%TO.N,/TX*%
X40000000Y-132580000D03*
%TO.P,J3,4,4_4*%
%TO.N,/DTR*%
X40000000Y-135120000D03*
%TO.P,J3,5,5_5*%
%TO.N,GND*%
X40000000Y-137660000D03*
%TD*%
D26*
%TO.P,D6,1,K_1*%
%TO.N,/TX*%
X60062500Y-122000000D03*
%TO.P,D6,2,A_2*%
%TO.N,Net-(D6-A)*%
X61937500Y-122000000D03*
%TD*%
D29*
%TO.P,C10,1*%
%TO.N,GND*%
X70500000Y-108500000D03*
D17*
%TO.P,C10,2*%
%TO.N,Net-(U5-CV)*%
X73000000Y-108500000D03*
%TD*%
D30*
%TO.P,C8,1*%
%TO.N,GND*%
X42550000Y-106000000D03*
%TO.P,C8,2*%
%TO.N,/VDD_5V*%
X44450000Y-106000000D03*
%TD*%
D31*
%TO.P,U5,1,GND_1*%
%TO.N,GND*%
X55425000Y-108095000D03*
%TO.P,U5,2,TR_2*%
%TO.N,Net-(U5-TH)*%
X55425000Y-109365000D03*
%TO.P,U5,3,Q_3*%
%TO.N,/1Hz*%
X55425000Y-110635000D03*
%TO.P,U5,4,R_4*%
%TO.N,/VDD_5V*%
X55425000Y-111905000D03*
%TO.P,U5,5,CV_5*%
%TO.N,Net-(U5-CV)*%
X60575000Y-111905000D03*
%TO.P,U5,6,TH_6*%
%TO.N,Net-(U5-TH)*%
X60575000Y-110635000D03*
%TO.P,U5,7,DC_7*%
%TO.N,Net-(U5-DC)*%
X60575000Y-109365000D03*
%TO.P,U5,8,VCC_8*%
%TO.N,/VDD_5V*%
X60575000Y-108095000D03*
%TD*%
D25*
%TO.P,D1,1,K_1*%
%TO.N,GND*%
X30062500Y-122000000D03*
%TO.P,D1,2,A_2*%
%TO.N,Net-(D1-A)*%
X31937500Y-122000000D03*
%TD*%
D32*
%TO.P,USB1,1,VBUS_1*%
%TO.N,/VDD_5V_IN*%
X30660000Y-94680000D03*
%TO.P,USB1,2,D-/DM_2*%
%TO.N,/D-*%
X30660000Y-95330000D03*
%TO.P,USB1,3,D+/DP_3*%
%TO.N,/D+*%
X30660000Y-95980000D03*
%TO.P,USB1,4,ID_4*%
%TO.N,unconnected-(USB1-ID-Pad4)*%
X30660000Y-96630000D03*
%TO.P,USB1,5,GND_5*%
%TO.N,GND*%
X30660000Y-97280000D03*
D33*
%TO.P,USB1,6*%
X30610000Y-99705000D03*
D34*
%TO.P,USB1,7*%
X26810000Y-99855000D03*
%TO.P,USB1,8*%
X26810000Y-92105000D03*
D33*
%TO.P,USB1,9*%
X30610000Y-92255000D03*
%TD*%
D15*
%TO.P,C6,1*%
%TO.N,/VDD_5V_IN*%
X29050000Y-106000000D03*
%TO.P,C6,2*%
%TO.N,GND*%
X30950000Y-106000000D03*
%TD*%
D21*
%TO.P,R6,1*%
%TO.N,Net-(D5-A)*%
X61000000Y-127412500D03*
%TO.P,R6,2*%
%TO.N,/VDD_5V*%
X61000000Y-125587500D03*
%TD*%
D20*
%TO.P,C1,1*%
%TO.N,Net-(U2-EN)*%
X45500000Y-97450000D03*
%TO.P,C1,2*%
%TO.N,GND*%
X45500000Y-95550000D03*
%TD*%
D35*
%TO.P,U1,1,GND_1*%
%TO.N,GND*%
X47850000Y-94200000D03*
%TO.P,U1,2,VO_2*%
%TO.N,/VDD_3V3*%
X47850000Y-96500000D03*
D36*
X54150000Y-96500000D03*
D35*
%TO.P,U1,3,VI_3*%
%TO.N,/VDD_5V*%
X47850000Y-98800000D03*
%TD*%
D10*
%TO.P,J5,1,1_1*%
%TO.N,/VDD_5V*%
X55540000Y-137630000D03*
%TO.P,J5,2,2_2*%
%TO.N,/P1+*%
X55540000Y-135090000D03*
%TO.P,J5,3,3_3*%
%TO.N,/VDD_3V3*%
X55540000Y-132550000D03*
%TO.P,J5,4,4_4*%
%TO.N,/VDD_N*%
X53000000Y-132550000D03*
%TO.P,J5,5,5_5*%
%TO.N,/P1-*%
X53000000Y-135090000D03*
%TO.P,J5,6,6_6*%
%TO.N,GND*%
X53000000Y-137630000D03*
%TD*%
D37*
%TO.N,/VDD_5V*%
X55200000Y-125000000D03*
X63700000Y-125000000D03*
X31000000Y-128000000D03*
D38*
X74500000Y-98800000D03*
D37*
%TO.N,/RX*%
X54062500Y-121000000D03*
X39000000Y-129039999D03*
%TO.N,/TX*%
X60062500Y-121000000D03*
X38500000Y-131080000D03*
%TO.N,/VDD_5V_IN*%
X27500000Y-106000000D03*
X29500000Y-94680000D03*
D38*
%TO.N,/VDD_N*%
X61500000Y-99000000D03*
D37*
X43000000Y-128000000D03*
D38*
%TO.N,/VDD_3V3*%
X65550000Y-101000000D03*
D37*
X37000000Y-128000000D03*
%TO.N,Net-(U2-EN)*%
X43500000Y-96500000D03*
%TO.N,/1Hz*%
X49000000Y-127500000D03*
X54000000Y-110635000D03*
%TO.N,Net-(D6-A)*%
X55000000Y-126500000D03*
X62000000Y-122500000D03*
%TD*%
%TO.N,/P2+*%
D39*
X67980000Y-122080000D02*
X70520000Y-122080000D01*
X70520000Y-122080000D02*
X73060000Y-122080000D01*
%TO.N,/P2-*%
X70520000Y-119540000D02*
X73060000Y-119540000D01*
X67980000Y-119540000D02*
X70520000Y-119540000D01*
%TO.N,GND*%
D40*
X26810000Y-92105000D02*
X30610000Y-92255000D01*
X67450000Y-102500000D02*
X70500000Y-102500000D01*
X45500000Y-95550000D02*
X61500000Y-95550000D01*
D41*
X34297500Y-106270000D02*
X34297500Y-112000000D01*
D40*
X65362500Y-96500000D02*
X61500000Y-95550000D01*
X26810000Y-99855000D02*
X26810000Y-92105000D01*
X70500000Y-113000000D02*
X66300000Y-113000000D01*
X48062500Y-122000000D02*
X48000000Y-122000000D01*
X47850000Y-95000000D02*
X43970000Y-95000000D01*
X30610000Y-99705000D02*
X26810000Y-99855000D01*
X70500000Y-102500000D02*
X70500000Y-108500000D01*
X30950000Y-106000000D02*
X29050000Y-112000000D01*
X67450000Y-96500000D02*
X67450000Y-102500000D01*
X61500000Y-113000000D02*
X66300000Y-113000000D01*
X61500000Y-137630000D02*
X61500000Y-113000000D01*
D41*
X36610000Y-105770000D02*
X42550000Y-107000000D01*
D40*
X30610000Y-99705000D02*
X30950000Y-101500000D01*
X61500000Y-95550000D02*
X71500000Y-95550000D01*
D41*
X42550000Y-107000000D02*
X42550000Y-106000000D01*
D40*
X42550000Y-106000000D02*
X42550000Y-120000000D01*
D41*
X34297500Y-112000000D02*
X29050000Y-112000000D01*
D40*
X43937500Y-122000000D02*
X48062500Y-122000000D01*
X48000000Y-122000000D02*
X48000000Y-134000000D01*
X47850000Y-94200000D02*
X47850000Y-95000000D01*
X30660000Y-97280000D02*
X30610000Y-99705000D01*
D41*
X30062500Y-122000000D02*
X30062500Y-112000000D01*
X55425000Y-106000000D02*
X42550000Y-106000000D01*
D40*
X70500000Y-108500000D02*
X70500000Y-113000000D01*
D41*
X34297500Y-107000000D02*
X36610000Y-105770000D01*
D39*
X53000000Y-137630000D02*
X61500000Y-137630000D01*
D41*
X34297500Y-106270000D02*
X34297500Y-107000000D01*
D40*
X41850000Y-95000000D02*
X43970000Y-95000000D01*
X40000000Y-137660000D02*
X48000000Y-134000000D01*
X30062500Y-122000000D02*
X36062500Y-122000000D01*
X48000000Y-137630000D02*
X53000000Y-137630000D01*
X65362500Y-96500000D02*
X67450000Y-96500000D01*
X36062500Y-122000000D02*
X43937500Y-122000000D01*
X48000000Y-134000000D02*
X48000000Y-137630000D01*
D41*
X30062500Y-112000000D02*
X29050000Y-112000000D01*
X55425000Y-108095000D02*
X55425000Y-106000000D01*
D40*
X30950000Y-101500000D02*
X30950000Y-106000000D01*
X42550000Y-120000000D02*
X43937500Y-122000000D01*
%TO.N,/D+*%
D42*
X32200000Y-103670000D02*
X34300000Y-105770000D01*
X34300000Y-105770000D02*
X34297500Y-105770000D01*
X32200000Y-95980000D02*
X32200000Y-103670000D01*
X30660000Y-95980000D02*
X32200000Y-95980000D01*
%TO.N,/D-*%
X31600000Y-102570000D02*
X34300000Y-105270000D01*
X30660000Y-95330000D02*
X31600000Y-95330000D01*
X31600000Y-95330000D02*
X31600000Y-102570000D01*
X34300000Y-105270000D02*
X34297500Y-105270000D01*
%TO.N,Net-(U3-VDD)*%
D43*
X32500000Y-111000000D02*
X30950000Y-112000000D01*
X34297500Y-104770000D02*
X32500000Y-104770000D01*
X32500000Y-104770000D02*
X32500000Y-111000000D01*
%TO.N,/VDD_5V*%
D40*
X35670000Y-95000000D02*
X35670000Y-97000000D01*
D39*
X35670000Y-95000000D02*
X35670000Y-92500000D01*
D40*
X44450000Y-105500000D02*
X44450000Y-106000000D01*
X60575000Y-108095000D02*
X61500000Y-105500000D01*
D41*
X44450000Y-106000000D02*
X52000000Y-105500000D01*
D39*
X35670000Y-92500000D02*
X44050000Y-92500000D01*
D41*
X60575000Y-108095000D02*
X61500000Y-106000000D01*
D39*
X54250000Y-98800000D02*
X71500000Y-98800000D01*
X44050000Y-98800000D02*
X47850000Y-98800000D01*
D41*
X61500000Y-106000000D02*
X55425000Y-106000000D01*
X55425000Y-106000000D02*
X55425000Y-111905000D01*
X55000000Y-125587500D02*
X55200000Y-125000000D01*
D39*
X71500000Y-98800000D02*
X71500000Y-97450000D01*
D40*
X34297500Y-104270000D02*
X35110000Y-103457500D01*
X34297500Y-98373000D02*
X34297500Y-104270000D01*
D39*
X47850000Y-98800000D02*
X51000000Y-98800000D01*
D40*
X61500000Y-105500000D02*
X44450000Y-105500000D01*
D41*
X52000000Y-105500000D02*
X52000000Y-106912500D01*
D40*
X44450000Y-106000000D02*
X44450000Y-98800000D01*
D41*
X31000000Y-127412500D02*
X31000000Y-128000000D01*
D39*
X71500000Y-97450000D02*
X74500000Y-98800000D01*
X51000000Y-98800000D02*
X54250000Y-98800000D01*
X44050000Y-92500000D02*
X44050000Y-98800000D01*
D41*
X61000000Y-125587500D02*
X63700000Y-125000000D01*
D40*
X35670000Y-97000000D02*
X34297500Y-98373000D01*
X44450000Y-98800000D02*
X47850000Y-98800000D01*
%TO.N,/RX*%
D43*
X36610000Y-109000000D02*
X39000000Y-111390000D01*
X36610000Y-108082500D02*
X36610000Y-109000000D01*
X54062500Y-121000000D02*
X54062500Y-122000000D01*
X39000000Y-129039999D02*
X40000000Y-130040000D01*
X39000000Y-111390000D02*
X39000000Y-129039999D01*
%TO.N,/TX*%
X38500000Y-111890000D02*
X38500000Y-131080000D01*
X36110000Y-108082500D02*
X36110000Y-109500000D01*
X60062500Y-121000000D02*
X60062500Y-122000000D01*
X36110000Y-109500000D02*
X38500000Y-111890000D01*
X38500000Y-131080000D02*
X40000000Y-132580000D01*
%TO.N,Net-(U3-DTR)*%
X35110000Y-110000000D02*
X37110000Y-112000000D01*
X37110000Y-112000000D02*
X44450000Y-112000000D01*
X35110000Y-108082500D02*
X35110000Y-110000000D01*
%TO.N,/VDD_5V_IN*%
D41*
X27500000Y-106000000D02*
X29050000Y-106000000D01*
X30660000Y-94680000D02*
X29500000Y-94680000D01*
D40*
X37850000Y-93500000D02*
X37850000Y-95000000D01*
X30660000Y-94680000D02*
X30660000Y-93500000D01*
X30660000Y-93500000D02*
X37850000Y-93500000D01*
%TO.N,Net-(U5-TH)*%
D44*
X53500000Y-109365000D02*
X53500000Y-111087500D01*
X55425000Y-109365000D02*
X58000000Y-109365000D01*
X58000000Y-109365000D02*
X59270000Y-110635000D01*
X59270000Y-110635000D02*
X60575000Y-110635000D01*
X55425000Y-109365000D02*
X53500000Y-109365000D01*
X53500000Y-111087500D02*
X52000000Y-111087500D01*
X60575000Y-110635000D02*
X66435000Y-110635000D01*
X66435000Y-110635000D02*
X68800000Y-113000000D01*
%TO.N,/VDD_N*%
D41*
X43000000Y-127412500D02*
X43000000Y-128000000D01*
D39*
X61500000Y-97450000D02*
X61500000Y-99000000D01*
X65362500Y-95550000D02*
X61500000Y-97450000D01*
%TO.N,/VDD_3V3*%
X54150000Y-96500000D02*
X58000000Y-96500000D01*
X65550000Y-102500000D02*
X65550000Y-101000000D01*
X47850000Y-96500000D02*
X54150000Y-96500000D01*
X64000000Y-102500000D02*
X65550000Y-102500000D01*
X58000000Y-96500000D02*
X64000000Y-102500000D01*
D41*
X37000000Y-127412500D02*
X37000000Y-128000000D01*
%TO.N,Net-(D1-A)*%
D44*
X31937500Y-124000000D02*
X31000000Y-124938000D01*
X31937500Y-122000000D02*
X31937500Y-124000000D01*
X31000000Y-124938000D02*
X31000000Y-125587500D01*
%TO.N,Net-(D3-K)*%
X42062500Y-122000000D02*
X42062500Y-124000000D01*
X43000000Y-124938000D02*
X43000000Y-125587500D01*
X42062500Y-124000000D02*
X43000000Y-124938000D01*
%TO.N,Net-(U5-DC)*%
X58000000Y-109365000D02*
X54547000Y-105087500D01*
X60575000Y-109365000D02*
X58000000Y-109365000D01*
X54547000Y-105087500D02*
X52000000Y-105087500D01*
X52000000Y-105087500D02*
X52000000Y-112912500D01*
%TO.N,Net-(U2-EN)*%
X65362500Y-97450000D02*
X67637500Y-97450000D01*
X62100000Y-97450000D02*
X45500000Y-97450000D01*
X65362500Y-97450000D02*
X64000000Y-97450000D01*
X45500000Y-97450000D02*
X43500000Y-96500000D01*
X64000000Y-97450000D02*
X62100000Y-97450000D01*
%TO.N,Net-(U2-C1-)*%
X67637500Y-95550000D02*
X56500000Y-97450000D01*
%TO.N,Net-(U2-C1+)*%
X67637500Y-96500000D02*
X60000000Y-96500000D01*
X60000000Y-96500000D02*
X59050000Y-95550000D01*
X59050000Y-95550000D02*
X56500000Y-95550000D01*
%TO.N,/P1+*%
D39*
X70520000Y-104080000D02*
X73060000Y-104080000D01*
X67980000Y-104080000D02*
X70520000Y-104080000D01*
%TO.N,/P1-*%
X67980000Y-101540000D02*
X70520000Y-101540000D01*
X70520000Y-101540000D02*
X73060000Y-101540000D01*
%TO.N,/DTR*%
D43*
X41500000Y-133620000D02*
X40000000Y-135120000D01*
X42550000Y-112000000D02*
X41500000Y-113050000D01*
X41500000Y-113050000D02*
X41500000Y-133620000D01*
%TO.N,Net-(D5-A)*%
D44*
X55937500Y-122000000D02*
X55937500Y-124000000D01*
X57500000Y-125587500D02*
X61000000Y-125587500D01*
X61000000Y-125587500D02*
X61000000Y-127412500D01*
X55937500Y-124000000D02*
X57500000Y-125587500D01*
%TO.N,Net-(D4-A)*%
X49000000Y-124938000D02*
X49000000Y-125587500D01*
X49937500Y-124000000D02*
X49000000Y-124938000D01*
X49937500Y-122000000D02*
X49937500Y-124000000D01*
%TO.N,/1Hz*%
D43*
X55425000Y-110635000D02*
X54000000Y-110635000D01*
X49000000Y-127412500D02*
X49000000Y-135540000D01*
X49000000Y-135540000D02*
X48000000Y-136540000D01*
X49000000Y-127500000D02*
X49000000Y-127412500D01*
%TO.N,Net-(D2-A)*%
D44*
X37937500Y-122000000D02*
X37937500Y-124000000D01*
X37000000Y-124938000D02*
X37000000Y-125587500D01*
X37937500Y-124000000D02*
X37000000Y-124938000D01*
%TO.N,Net-(D6-A)*%
X61937500Y-122000000D02*
X62000000Y-122500000D01*
X55000000Y-126500000D02*
X55000000Y-127412500D01*
%TO.N,Net-(U5-CV)*%
X60575000Y-111905000D02*
X64000000Y-111905000D01*
X68405000Y-107500000D02*
X73000000Y-108500000D01*
X64000000Y-111905000D02*
X68405000Y-107500000D01*
%TD*%
M02*
