%TF.GenerationSoftware,KiCad,Pcbnew,10.0.6-10.0.6~ubuntu26.04.1*%
%TF.CreationDate,2026-09-08T19:27:16+07:00*%
%TF.ProjectId,lab8,6c616238-2e6b-4696-9361-645f70636258,Rev 2.0 - DRC Zero Errors*%
%TF.SameCoordinates,Original*%
%TF.FileFunction,Legend,Top*%
%TF.FilePolarity,Positive*%
%FSLAX46Y46*%
G04 Gerber Fmt 4.6, Leading zero omitted, Abs format (unit mm)*
G04 Created by KiCad (PCBNEW 10.0.6-10.0.6~ubuntu26.04.1) date 2026-09-08 19:27:16*
%MOMM*%
%LPD*%
G01*
G04 APERTURE LIST*
G04 Aperture macros list*
%AMRoundRect*
0 Rectangle with rounded corners*
0 $1 Rounding radius*
0 $2 $3 $4 $5 $6 $7 $8 $9 X,Y pos of 4 corners*
0 Add a 4 corners polygon primitive as box body*
4,1,4,$2,$3,$4,$5,$6,$7,$8,$9,$2,$3,0*
0 Add four circle primitives for the rounded corners*
1,1,$1+$1,$2,$3*
1,1,$1+$1,$4,$5*
1,1,$1+$1,$6,$7*
1,1,$1+$1,$8,$9*
0 Add four rect primitives between the rounded corners*
20,1,$1+$1,$2,$3,$4,$5,0*
20,1,$1+$1,$4,$5,$6,$7,0*
20,1,$1+$1,$6,$7,$8,$9,0*
20,1,$1+$1,$8,$9,$2,$3,0*%
G04 Aperture macros list end*
%ADD10C,0.100000*%
%ADD11C,0.150000*%
%ADD12C,0.120000*%
%ADD13C,1.650000*%
%ADD14R,2.700000X2.700000*%
%ADD15RoundRect,0.062500X-0.475000X-0.062500X0.475000X-0.062500X0.475000X0.062500X-0.475000X0.062500X0*%
%ADD16RoundRect,0.062500X-0.062500X-0.475000X0.062500X-0.475000X0.062500X0.475000X-0.062500X0.475000X0*%
%ADD17R,1.650000X2.500000*%
%ADD18RoundRect,0.250000X0.475000X-0.250000X0.475000X0.250000X-0.475000X0.250000X-0.475000X-0.250000X0*%
%ADD19RoundRect,0.250000X-0.550000X0.550000X-0.550000X-0.550000X0.550000X-0.550000X0.550000X0.550000X0*%
%ADD20C,1.600000*%
%ADD21RoundRect,0.250000X-0.250000X-0.475000X0.250000X-0.475000X0.250000X0.475000X-0.250000X0.475000X0*%
%ADD22RoundRect,0.250000X-0.262500X-0.450000X0.262500X-0.450000X0.262500X0.450000X-0.262500X0.450000X0*%
%ADD23RoundRect,0.250000X-0.475000X0.250000X-0.475000X-0.250000X0.475000X-0.250000X0.475000X0.250000X0*%
%ADD24RoundRect,0.250000X0.262500X0.450000X-0.262500X0.450000X-0.262500X-0.450000X0.262500X-0.450000X0*%
%ADD25RoundRect,0.250000X-0.450000X0.262500X-0.450000X-0.262500X0.450000X-0.262500X0.450000X0.262500X0*%
%ADD26R,1.700000X1.700000*%
%ADD27C,1.700000*%
%ADD28RoundRect,0.243750X0.243750X0.456250X-0.243750X0.456250X-0.243750X-0.456250X0.243750X-0.456250X0*%
%ADD29RoundRect,0.243750X-0.243750X-0.456250X0.243750X-0.456250X0.243750X0.456250X-0.243750X0.456250X0*%
%ADD30RoundRect,0.150000X0.150000X-0.512500X0.150000X0.512500X-0.150000X0.512500X-0.150000X-0.512500X0*%
%ADD31RoundRect,0.250000X0.450000X-0.262500X0.450000X0.262500X-0.450000X0.262500X-0.450000X-0.262500X0*%
%ADD32RoundRect,0.250000X0.550000X0.550000X-0.550000X0.550000X-0.550000X-0.550000X0.550000X-0.550000X0*%
%ADD33RoundRect,0.250000X0.250000X0.475000X-0.250000X0.475000X-0.250000X-0.475000X0.250000X-0.475000X0*%
%ADD34RoundRect,0.150000X0.150000X-0.725000X0.150000X0.725000X-0.150000X0.725000X-0.150000X-0.725000X0*%
%ADD35O,0.800000X0.800000*%
%ADD36RoundRect,0.112500X0.112500X0.537500X-0.112500X0.537500X-0.112500X-0.537500X0.112500X-0.537500X0*%
%ADD37O,1.450000X2.000000*%
%ADD38O,1.150000X1.800000*%
%ADD39RoundRect,0.375000X-0.625000X-0.375000X0.625000X-0.375000X0.625000X0.375000X-0.625000X0.375000X0*%
%ADD40RoundRect,0.500000X-0.500000X-1.400000X0.500000X-1.400000X0.500000X1.400000X-0.500000X1.400000X0*%
G04 APERTURE END LIST*
D10*
X63566666Y-119957419D02*
X63566666Y-120671704D01*
X63566666Y-120671704D02*
X63519047Y-120814561D01*
X63519047Y-120814561D02*
X63423809Y-120909800D01*
X63423809Y-120909800D02*
X63280952Y-120957419D01*
X63280952Y-120957419D02*
X63185714Y-120957419D01*
X64185714Y-120385990D02*
X64090476Y-120338371D01*
X64090476Y-120338371D02*
X64042857Y-120290752D01*
X64042857Y-120290752D02*
X63995238Y-120195514D01*
X63995238Y-120195514D02*
X63995238Y-120147895D01*
X63995238Y-120147895D02*
X64042857Y-120052657D01*
X64042857Y-120052657D02*
X64090476Y-120005038D01*
X64090476Y-120005038D02*
X64185714Y-119957419D01*
X64185714Y-119957419D02*
X64376190Y-119957419D01*
X64376190Y-119957419D02*
X64471428Y-120005038D01*
X64471428Y-120005038D02*
X64519047Y-120052657D01*
X64519047Y-120052657D02*
X64566666Y-120147895D01*
X64566666Y-120147895D02*
X64566666Y-120195514D01*
X64566666Y-120195514D02*
X64519047Y-120290752D01*
X64519047Y-120290752D02*
X64471428Y-120338371D01*
X64471428Y-120338371D02*
X64376190Y-120385990D01*
X64376190Y-120385990D02*
X64185714Y-120385990D01*
X64185714Y-120385990D02*
X64090476Y-120433609D01*
X64090476Y-120433609D02*
X64042857Y-120481228D01*
X64042857Y-120481228D02*
X63995238Y-120576466D01*
X63995238Y-120576466D02*
X63995238Y-120766942D01*
X63995238Y-120766942D02*
X64042857Y-120862180D01*
X64042857Y-120862180D02*
X64090476Y-120909800D01*
X64090476Y-120909800D02*
X64185714Y-120957419D01*
X64185714Y-120957419D02*
X64376190Y-120957419D01*
X64376190Y-120957419D02*
X64471428Y-120909800D01*
X64471428Y-120909800D02*
X64519047Y-120862180D01*
X64519047Y-120862180D02*
X64566666Y-120766942D01*
X64566666Y-120766942D02*
X64566666Y-120576466D01*
X64566666Y-120576466D02*
X64519047Y-120481228D01*
X64519047Y-120481228D02*
X64471428Y-120433609D01*
X64471428Y-120433609D02*
X64376190Y-120385990D01*
X41570080Y-106305595D02*
X40760557Y-106305595D01*
X40760557Y-106305595D02*
X40665319Y-106353214D01*
X40665319Y-106353214D02*
X40617700Y-106400833D01*
X40617700Y-106400833D02*
X40570080Y-106496071D01*
X40570080Y-106496071D02*
X40570080Y-106686547D01*
X40570080Y-106686547D02*
X40617700Y-106781785D01*
X40617700Y-106781785D02*
X40665319Y-106829404D01*
X40665319Y-106829404D02*
X40760557Y-106877023D01*
X40760557Y-106877023D02*
X41570080Y-106877023D01*
X41570080Y-107257976D02*
X41570080Y-107877023D01*
X41570080Y-107877023D02*
X41189128Y-107543690D01*
X41189128Y-107543690D02*
X41189128Y-107686547D01*
X41189128Y-107686547D02*
X41141509Y-107781785D01*
X41141509Y-107781785D02*
X41093890Y-107829404D01*
X41093890Y-107829404D02*
X40998652Y-107877023D01*
X40998652Y-107877023D02*
X40760557Y-107877023D01*
X40760557Y-107877023D02*
X40665319Y-107829404D01*
X40665319Y-107829404D02*
X40617700Y-107781785D01*
X40617700Y-107781785D02*
X40570080Y-107686547D01*
X40570080Y-107686547D02*
X40570080Y-107400833D01*
X40570080Y-107400833D02*
X40617700Y-107305595D01*
X40617700Y-107305595D02*
X40665319Y-107257976D01*
X44733332Y-90690200D02*
X44590475Y-90642580D01*
X44590475Y-90642580D02*
X44352380Y-90642580D01*
X44352380Y-90642580D02*
X44257142Y-90690200D01*
X44257142Y-90690200D02*
X44209523Y-90737819D01*
X44209523Y-90737819D02*
X44161904Y-90833057D01*
X44161904Y-90833057D02*
X44161904Y-90928295D01*
X44161904Y-90928295D02*
X44209523Y-91023533D01*
X44209523Y-91023533D02*
X44257142Y-91071152D01*
X44257142Y-91071152D02*
X44352380Y-91118771D01*
X44352380Y-91118771D02*
X44542856Y-91166390D01*
X44542856Y-91166390D02*
X44638094Y-91214009D01*
X44638094Y-91214009D02*
X44685713Y-91261628D01*
X44685713Y-91261628D02*
X44733332Y-91356866D01*
X44733332Y-91356866D02*
X44733332Y-91452104D01*
X44733332Y-91452104D02*
X44685713Y-91547342D01*
X44685713Y-91547342D02*
X44638094Y-91594961D01*
X44638094Y-91594961D02*
X44542856Y-91642580D01*
X44542856Y-91642580D02*
X44304761Y-91642580D01*
X44304761Y-91642580D02*
X44161904Y-91594961D01*
X43828570Y-91642580D02*
X43590475Y-90642580D01*
X43590475Y-90642580D02*
X43399999Y-91356866D01*
X43399999Y-91356866D02*
X43209523Y-90642580D01*
X43209523Y-90642580D02*
X42971428Y-91642580D01*
X42638094Y-91547342D02*
X42590475Y-91594961D01*
X42590475Y-91594961D02*
X42495237Y-91642580D01*
X42495237Y-91642580D02*
X42257142Y-91642580D01*
X42257142Y-91642580D02*
X42161904Y-91594961D01*
X42161904Y-91594961D02*
X42114285Y-91547342D01*
X42114285Y-91547342D02*
X42066666Y-91452104D01*
X42066666Y-91452104D02*
X42066666Y-91356866D01*
X42066666Y-91356866D02*
X42114285Y-91214009D01*
X42114285Y-91214009D02*
X42685713Y-90642580D01*
X42685713Y-90642580D02*
X42066666Y-90642580D01*
D11*
X70179580Y-96666666D02*
X70227200Y-96714285D01*
X70227200Y-96714285D02*
X70274819Y-96857142D01*
X70274819Y-96857142D02*
X70274819Y-96952380D01*
X70274819Y-96952380D02*
X70227200Y-97095237D01*
X70227200Y-97095237D02*
X70131961Y-97190475D01*
X70131961Y-97190475D02*
X70036723Y-97238094D01*
X70036723Y-97238094D02*
X69846247Y-97285713D01*
X69846247Y-97285713D02*
X69703390Y-97285713D01*
X69703390Y-97285713D02*
X69512914Y-97238094D01*
X69512914Y-97238094D02*
X69417676Y-97190475D01*
X69417676Y-97190475D02*
X69322438Y-97095237D01*
X69322438Y-97095237D02*
X69274819Y-96952380D01*
X69274819Y-96952380D02*
X69274819Y-96857142D01*
X69274819Y-96857142D02*
X69322438Y-96714285D01*
X69322438Y-96714285D02*
X69370057Y-96666666D01*
X69608152Y-95809523D02*
X70274819Y-95809523D01*
X69227200Y-96047618D02*
X69941485Y-96285713D01*
X69941485Y-96285713D02*
X69941485Y-95666666D01*
X67909580Y-109892857D02*
X67957200Y-109940476D01*
X67957200Y-109940476D02*
X68004819Y-110083333D01*
X68004819Y-110083333D02*
X68004819Y-110178571D01*
X68004819Y-110178571D02*
X67957200Y-110321428D01*
X67957200Y-110321428D02*
X67861961Y-110416666D01*
X67861961Y-110416666D02*
X67766723Y-110464285D01*
X67766723Y-110464285D02*
X67576247Y-110511904D01*
X67576247Y-110511904D02*
X67433390Y-110511904D01*
X67433390Y-110511904D02*
X67242914Y-110464285D01*
X67242914Y-110464285D02*
X67147676Y-110416666D01*
X67147676Y-110416666D02*
X67052438Y-110321428D01*
X67052438Y-110321428D02*
X67004819Y-110178571D01*
X67004819Y-110178571D02*
X67004819Y-110083333D01*
X67004819Y-110083333D02*
X67052438Y-109940476D01*
X67052438Y-109940476D02*
X67100057Y-109892857D01*
X68004819Y-108940476D02*
X68004819Y-109511904D01*
X68004819Y-109226190D02*
X67004819Y-109226190D01*
X67004819Y-109226190D02*
X67147676Y-109321428D01*
X67147676Y-109321428D02*
X67242914Y-109416666D01*
X67242914Y-109416666D02*
X67290533Y-109511904D01*
X68004819Y-107988095D02*
X68004819Y-108559523D01*
X68004819Y-108273809D02*
X67004819Y-108273809D01*
X67004819Y-108273809D02*
X67147676Y-108369047D01*
X67147676Y-108369047D02*
X67242914Y-108464285D01*
X67242914Y-108464285D02*
X67290533Y-108559523D01*
X59653333Y-96859580D02*
X59605714Y-96907200D01*
X59605714Y-96907200D02*
X59462857Y-96954819D01*
X59462857Y-96954819D02*
X59367619Y-96954819D01*
X59367619Y-96954819D02*
X59224762Y-96907200D01*
X59224762Y-96907200D02*
X59129524Y-96811961D01*
X59129524Y-96811961D02*
X59081905Y-96716723D01*
X59081905Y-96716723D02*
X59034286Y-96526247D01*
X59034286Y-96526247D02*
X59034286Y-96383390D01*
X59034286Y-96383390D02*
X59081905Y-96192914D01*
X59081905Y-96192914D02*
X59129524Y-96097676D01*
X59129524Y-96097676D02*
X59224762Y-96002438D01*
X59224762Y-96002438D02*
X59367619Y-95954819D01*
X59367619Y-95954819D02*
X59462857Y-95954819D01*
X59462857Y-95954819D02*
X59605714Y-96002438D01*
X59605714Y-96002438D02*
X59653333Y-96050057D01*
X59986667Y-95954819D02*
X60605714Y-95954819D01*
X60605714Y-95954819D02*
X60272381Y-96335771D01*
X60272381Y-96335771D02*
X60415238Y-96335771D01*
X60415238Y-96335771D02*
X60510476Y-96383390D01*
X60510476Y-96383390D02*
X60558095Y-96431009D01*
X60558095Y-96431009D02*
X60605714Y-96526247D01*
X60605714Y-96526247D02*
X60605714Y-96764342D01*
X60605714Y-96764342D02*
X60558095Y-96859580D01*
X60558095Y-96859580D02*
X60510476Y-96907200D01*
X60510476Y-96907200D02*
X60415238Y-96954819D01*
X60415238Y-96954819D02*
X60129524Y-96954819D01*
X60129524Y-96954819D02*
X60034286Y-96907200D01*
X60034286Y-96907200D02*
X59986667Y-96859580D01*
D10*
X63366666Y-127997419D02*
X63366666Y-128711704D01*
X63366666Y-128711704D02*
X63319047Y-128854561D01*
X63319047Y-128854561D02*
X63223809Y-128949800D01*
X63223809Y-128949800D02*
X63080952Y-128997419D01*
X63080952Y-128997419D02*
X62985714Y-128997419D01*
X64271428Y-127997419D02*
X64080952Y-127997419D01*
X64080952Y-127997419D02*
X63985714Y-128045038D01*
X63985714Y-128045038D02*
X63938095Y-128092657D01*
X63938095Y-128092657D02*
X63842857Y-128235514D01*
X63842857Y-128235514D02*
X63795238Y-128425990D01*
X63795238Y-128425990D02*
X63795238Y-128806942D01*
X63795238Y-128806942D02*
X63842857Y-128902180D01*
X63842857Y-128902180D02*
X63890476Y-128949800D01*
X63890476Y-128949800D02*
X63985714Y-128997419D01*
X63985714Y-128997419D02*
X64176190Y-128997419D01*
X64176190Y-128997419D02*
X64271428Y-128949800D01*
X64271428Y-128949800D02*
X64319047Y-128902180D01*
X64319047Y-128902180D02*
X64366666Y-128806942D01*
X64366666Y-128806942D02*
X64366666Y-128568847D01*
X64366666Y-128568847D02*
X64319047Y-128473609D01*
X64319047Y-128473609D02*
X64271428Y-128425990D01*
X64271428Y-128425990D02*
X64176190Y-128378371D01*
X64176190Y-128378371D02*
X63985714Y-128378371D01*
X63985714Y-128378371D02*
X63890476Y-128425990D01*
X63890476Y-128425990D02*
X63842857Y-128473609D01*
X63842857Y-128473609D02*
X63795238Y-128568847D01*
D11*
X29183333Y-126954819D02*
X28850000Y-126478628D01*
X28611905Y-126954819D02*
X28611905Y-125954819D01*
X28611905Y-125954819D02*
X28992857Y-125954819D01*
X28992857Y-125954819D02*
X29088095Y-126002438D01*
X29088095Y-126002438D02*
X29135714Y-126050057D01*
X29135714Y-126050057D02*
X29183333Y-126145295D01*
X29183333Y-126145295D02*
X29183333Y-126288152D01*
X29183333Y-126288152D02*
X29135714Y-126383390D01*
X29135714Y-126383390D02*
X29088095Y-126431009D01*
X29088095Y-126431009D02*
X28992857Y-126478628D01*
X28992857Y-126478628D02*
X28611905Y-126478628D01*
X30135714Y-126954819D02*
X29564286Y-126954819D01*
X29850000Y-126954819D02*
X29850000Y-125954819D01*
X29850000Y-125954819D02*
X29754762Y-126097676D01*
X29754762Y-126097676D02*
X29659524Y-126192914D01*
X29659524Y-126192914D02*
X29564286Y-126240533D01*
X30359580Y-113846666D02*
X30407200Y-113894285D01*
X30407200Y-113894285D02*
X30454819Y-114037142D01*
X30454819Y-114037142D02*
X30454819Y-114132380D01*
X30454819Y-114132380D02*
X30407200Y-114275237D01*
X30407200Y-114275237D02*
X30311961Y-114370475D01*
X30311961Y-114370475D02*
X30216723Y-114418094D01*
X30216723Y-114418094D02*
X30026247Y-114465713D01*
X30026247Y-114465713D02*
X29883390Y-114465713D01*
X29883390Y-114465713D02*
X29692914Y-114418094D01*
X29692914Y-114418094D02*
X29597676Y-114370475D01*
X29597676Y-114370475D02*
X29502438Y-114275237D01*
X29502438Y-114275237D02*
X29454819Y-114132380D01*
X29454819Y-114132380D02*
X29454819Y-114037142D01*
X29454819Y-114037142D02*
X29502438Y-113894285D01*
X29502438Y-113894285D02*
X29550057Y-113846666D01*
X29454819Y-113513332D02*
X29454819Y-112846666D01*
X29454819Y-112846666D02*
X30454819Y-113275237D01*
X41183333Y-126954819D02*
X40850000Y-126478628D01*
X40611905Y-126954819D02*
X40611905Y-125954819D01*
X40611905Y-125954819D02*
X40992857Y-125954819D01*
X40992857Y-125954819D02*
X41088095Y-126002438D01*
X41088095Y-126002438D02*
X41135714Y-126050057D01*
X41135714Y-126050057D02*
X41183333Y-126145295D01*
X41183333Y-126145295D02*
X41183333Y-126288152D01*
X41183333Y-126288152D02*
X41135714Y-126383390D01*
X41135714Y-126383390D02*
X41088095Y-126431009D01*
X41088095Y-126431009D02*
X40992857Y-126478628D01*
X40992857Y-126478628D02*
X40611905Y-126478628D01*
X41516667Y-125954819D02*
X42135714Y-125954819D01*
X42135714Y-125954819D02*
X41802381Y-126335771D01*
X41802381Y-126335771D02*
X41945238Y-126335771D01*
X41945238Y-126335771D02*
X42040476Y-126383390D01*
X42040476Y-126383390D02*
X42088095Y-126431009D01*
X42088095Y-126431009D02*
X42135714Y-126526247D01*
X42135714Y-126526247D02*
X42135714Y-126764342D01*
X42135714Y-126764342D02*
X42088095Y-126859580D01*
X42088095Y-126859580D02*
X42040476Y-126907200D01*
X42040476Y-126907200D02*
X41945238Y-126954819D01*
X41945238Y-126954819D02*
X41659524Y-126954819D01*
X41659524Y-126954819D02*
X41564286Y-126907200D01*
X41564286Y-126907200D02*
X41516667Y-126859580D01*
X50804819Y-112166666D02*
X50328628Y-112499999D01*
X50804819Y-112738094D02*
X49804819Y-112738094D01*
X49804819Y-112738094D02*
X49804819Y-112357142D01*
X49804819Y-112357142D02*
X49852438Y-112261904D01*
X49852438Y-112261904D02*
X49900057Y-112214285D01*
X49900057Y-112214285D02*
X49995295Y-112166666D01*
X49995295Y-112166666D02*
X50138152Y-112166666D01*
X50138152Y-112166666D02*
X50233390Y-112214285D01*
X50233390Y-112214285D02*
X50281009Y-112261904D01*
X50281009Y-112261904D02*
X50328628Y-112357142D01*
X50328628Y-112357142D02*
X50328628Y-112738094D01*
X50233390Y-111595237D02*
X50185771Y-111690475D01*
X50185771Y-111690475D02*
X50138152Y-111738094D01*
X50138152Y-111738094D02*
X50042914Y-111785713D01*
X50042914Y-111785713D02*
X49995295Y-111785713D01*
X49995295Y-111785713D02*
X49900057Y-111738094D01*
X49900057Y-111738094D02*
X49852438Y-111690475D01*
X49852438Y-111690475D02*
X49804819Y-111595237D01*
X49804819Y-111595237D02*
X49804819Y-111404761D01*
X49804819Y-111404761D02*
X49852438Y-111309523D01*
X49852438Y-111309523D02*
X49900057Y-111261904D01*
X49900057Y-111261904D02*
X49995295Y-111214285D01*
X49995295Y-111214285D02*
X50042914Y-111214285D01*
X50042914Y-111214285D02*
X50138152Y-111261904D01*
X50138152Y-111261904D02*
X50185771Y-111309523D01*
X50185771Y-111309523D02*
X50233390Y-111404761D01*
X50233390Y-111404761D02*
X50233390Y-111595237D01*
X50233390Y-111595237D02*
X50281009Y-111690475D01*
X50281009Y-111690475D02*
X50328628Y-111738094D01*
X50328628Y-111738094D02*
X50423866Y-111785713D01*
X50423866Y-111785713D02*
X50614342Y-111785713D01*
X50614342Y-111785713D02*
X50709580Y-111738094D01*
X50709580Y-111738094D02*
X50757200Y-111690475D01*
X50757200Y-111690475D02*
X50804819Y-111595237D01*
X50804819Y-111595237D02*
X50804819Y-111404761D01*
X50804819Y-111404761D02*
X50757200Y-111309523D01*
X50757200Y-111309523D02*
X50709580Y-111261904D01*
X50709580Y-111261904D02*
X50614342Y-111214285D01*
X50614342Y-111214285D02*
X50423866Y-111214285D01*
X50423866Y-111214285D02*
X50328628Y-111261904D01*
X50328628Y-111261904D02*
X50281009Y-111309523D01*
X50281009Y-111309523D02*
X50233390Y-111404761D01*
X29454819Y-129953333D02*
X30169104Y-129953333D01*
X30169104Y-129953333D02*
X30311961Y-130000952D01*
X30311961Y-130000952D02*
X30407200Y-130096190D01*
X30407200Y-130096190D02*
X30454819Y-130239047D01*
X30454819Y-130239047D02*
X30454819Y-130334285D01*
X30454819Y-128953333D02*
X30454819Y-129524761D01*
X30454819Y-129239047D02*
X29454819Y-129239047D01*
X29454819Y-129239047D02*
X29597676Y-129334285D01*
X29597676Y-129334285D02*
X29692914Y-129429523D01*
X29692914Y-129429523D02*
X29740533Y-129524761D01*
X54653333Y-96859580D02*
X54605714Y-96907200D01*
X54605714Y-96907200D02*
X54462857Y-96954819D01*
X54462857Y-96954819D02*
X54367619Y-96954819D01*
X54367619Y-96954819D02*
X54224762Y-96907200D01*
X54224762Y-96907200D02*
X54129524Y-96811961D01*
X54129524Y-96811961D02*
X54081905Y-96716723D01*
X54081905Y-96716723D02*
X54034286Y-96526247D01*
X54034286Y-96526247D02*
X54034286Y-96383390D01*
X54034286Y-96383390D02*
X54081905Y-96192914D01*
X54081905Y-96192914D02*
X54129524Y-96097676D01*
X54129524Y-96097676D02*
X54224762Y-96002438D01*
X54224762Y-96002438D02*
X54367619Y-95954819D01*
X54367619Y-95954819D02*
X54462857Y-95954819D01*
X54462857Y-95954819D02*
X54605714Y-96002438D01*
X54605714Y-96002438D02*
X54653333Y-96050057D01*
X55034286Y-96050057D02*
X55081905Y-96002438D01*
X55081905Y-96002438D02*
X55177143Y-95954819D01*
X55177143Y-95954819D02*
X55415238Y-95954819D01*
X55415238Y-95954819D02*
X55510476Y-96002438D01*
X55510476Y-96002438D02*
X55558095Y-96050057D01*
X55558095Y-96050057D02*
X55605714Y-96145295D01*
X55605714Y-96145295D02*
X55605714Y-96240533D01*
X55605714Y-96240533D02*
X55558095Y-96383390D01*
X55558095Y-96383390D02*
X54986667Y-96954819D01*
X54986667Y-96954819D02*
X55605714Y-96954819D01*
D10*
X63357419Y-102833333D02*
X64071704Y-102833333D01*
X64071704Y-102833333D02*
X64214561Y-102880952D01*
X64214561Y-102880952D02*
X64309800Y-102976190D01*
X64309800Y-102976190D02*
X64357419Y-103119047D01*
X64357419Y-103119047D02*
X64357419Y-103214285D01*
X63357419Y-102452380D02*
X63357419Y-101785714D01*
X63357419Y-101785714D02*
X64357419Y-102214285D01*
D11*
X43333333Y-114039580D02*
X43285714Y-114087200D01*
X43285714Y-114087200D02*
X43142857Y-114134819D01*
X43142857Y-114134819D02*
X43047619Y-114134819D01*
X43047619Y-114134819D02*
X42904762Y-114087200D01*
X42904762Y-114087200D02*
X42809524Y-113991961D01*
X42809524Y-113991961D02*
X42761905Y-113896723D01*
X42761905Y-113896723D02*
X42714286Y-113706247D01*
X42714286Y-113706247D02*
X42714286Y-113563390D01*
X42714286Y-113563390D02*
X42761905Y-113372914D01*
X42761905Y-113372914D02*
X42809524Y-113277676D01*
X42809524Y-113277676D02*
X42904762Y-113182438D01*
X42904762Y-113182438D02*
X43047619Y-113134819D01*
X43047619Y-113134819D02*
X43142857Y-113134819D01*
X43142857Y-113134819D02*
X43285714Y-113182438D01*
X43285714Y-113182438D02*
X43333333Y-113230057D01*
X43809524Y-114134819D02*
X44000000Y-114134819D01*
X44000000Y-114134819D02*
X44095238Y-114087200D01*
X44095238Y-114087200D02*
X44142857Y-114039580D01*
X44142857Y-114039580D02*
X44238095Y-113896723D01*
X44238095Y-113896723D02*
X44285714Y-113706247D01*
X44285714Y-113706247D02*
X44285714Y-113325295D01*
X44285714Y-113325295D02*
X44238095Y-113230057D01*
X44238095Y-113230057D02*
X44190476Y-113182438D01*
X44190476Y-113182438D02*
X44095238Y-113134819D01*
X44095238Y-113134819D02*
X43904762Y-113134819D01*
X43904762Y-113134819D02*
X43809524Y-113182438D01*
X43809524Y-113182438D02*
X43761905Y-113230057D01*
X43761905Y-113230057D02*
X43714286Y-113325295D01*
X43714286Y-113325295D02*
X43714286Y-113563390D01*
X43714286Y-113563390D02*
X43761905Y-113658628D01*
X43761905Y-113658628D02*
X43809524Y-113706247D01*
X43809524Y-113706247D02*
X43904762Y-113753866D01*
X43904762Y-113753866D02*
X44095238Y-113753866D01*
X44095238Y-113753866D02*
X44190476Y-113706247D01*
X44190476Y-113706247D02*
X44238095Y-113658628D01*
X44238095Y-113658628D02*
X44285714Y-113563390D01*
X42261905Y-120804819D02*
X42261905Y-119804819D01*
X42261905Y-119804819D02*
X42500000Y-119804819D01*
X42500000Y-119804819D02*
X42642857Y-119852438D01*
X42642857Y-119852438D02*
X42738095Y-119947676D01*
X42738095Y-119947676D02*
X42785714Y-120042914D01*
X42785714Y-120042914D02*
X42833333Y-120233390D01*
X42833333Y-120233390D02*
X42833333Y-120376247D01*
X42833333Y-120376247D02*
X42785714Y-120566723D01*
X42785714Y-120566723D02*
X42738095Y-120661961D01*
X42738095Y-120661961D02*
X42642857Y-120757200D01*
X42642857Y-120757200D02*
X42500000Y-120804819D01*
X42500000Y-120804819D02*
X42261905Y-120804819D01*
X43166667Y-119804819D02*
X43785714Y-119804819D01*
X43785714Y-119804819D02*
X43452381Y-120185771D01*
X43452381Y-120185771D02*
X43595238Y-120185771D01*
X43595238Y-120185771D02*
X43690476Y-120233390D01*
X43690476Y-120233390D02*
X43738095Y-120281009D01*
X43738095Y-120281009D02*
X43785714Y-120376247D01*
X43785714Y-120376247D02*
X43785714Y-120614342D01*
X43785714Y-120614342D02*
X43738095Y-120709580D01*
X43738095Y-120709580D02*
X43690476Y-120757200D01*
X43690476Y-120757200D02*
X43595238Y-120804819D01*
X43595238Y-120804819D02*
X43309524Y-120804819D01*
X43309524Y-120804819D02*
X43214286Y-120757200D01*
X43214286Y-120757200D02*
X43166667Y-120709580D01*
X54261905Y-120804819D02*
X54261905Y-119804819D01*
X54261905Y-119804819D02*
X54500000Y-119804819D01*
X54500000Y-119804819D02*
X54642857Y-119852438D01*
X54642857Y-119852438D02*
X54738095Y-119947676D01*
X54738095Y-119947676D02*
X54785714Y-120042914D01*
X54785714Y-120042914D02*
X54833333Y-120233390D01*
X54833333Y-120233390D02*
X54833333Y-120376247D01*
X54833333Y-120376247D02*
X54785714Y-120566723D01*
X54785714Y-120566723D02*
X54738095Y-120661961D01*
X54738095Y-120661961D02*
X54642857Y-120757200D01*
X54642857Y-120757200D02*
X54500000Y-120804819D01*
X54500000Y-120804819D02*
X54261905Y-120804819D01*
X55738095Y-119804819D02*
X55261905Y-119804819D01*
X55261905Y-119804819D02*
X55214286Y-120281009D01*
X55214286Y-120281009D02*
X55261905Y-120233390D01*
X55261905Y-120233390D02*
X55357143Y-120185771D01*
X55357143Y-120185771D02*
X55595238Y-120185771D01*
X55595238Y-120185771D02*
X55690476Y-120233390D01*
X55690476Y-120233390D02*
X55738095Y-120281009D01*
X55738095Y-120281009D02*
X55785714Y-120376247D01*
X55785714Y-120376247D02*
X55785714Y-120614342D01*
X55785714Y-120614342D02*
X55738095Y-120709580D01*
X55738095Y-120709580D02*
X55690476Y-120757200D01*
X55690476Y-120757200D02*
X55595238Y-120804819D01*
X55595238Y-120804819D02*
X55357143Y-120804819D01*
X55357143Y-120804819D02*
X55261905Y-120757200D01*
X55261905Y-120757200D02*
X55214286Y-120709580D01*
X48261905Y-120804819D02*
X48261905Y-119804819D01*
X48261905Y-119804819D02*
X48500000Y-119804819D01*
X48500000Y-119804819D02*
X48642857Y-119852438D01*
X48642857Y-119852438D02*
X48738095Y-119947676D01*
X48738095Y-119947676D02*
X48785714Y-120042914D01*
X48785714Y-120042914D02*
X48833333Y-120233390D01*
X48833333Y-120233390D02*
X48833333Y-120376247D01*
X48833333Y-120376247D02*
X48785714Y-120566723D01*
X48785714Y-120566723D02*
X48738095Y-120661961D01*
X48738095Y-120661961D02*
X48642857Y-120757200D01*
X48642857Y-120757200D02*
X48500000Y-120804819D01*
X48500000Y-120804819D02*
X48261905Y-120804819D01*
X49690476Y-120138152D02*
X49690476Y-120804819D01*
X49452381Y-119757200D02*
X49214286Y-120471485D01*
X49214286Y-120471485D02*
X49833333Y-120471485D01*
X65954819Y-94861904D02*
X66764342Y-94861904D01*
X66764342Y-94861904D02*
X66859580Y-94814285D01*
X66859580Y-94814285D02*
X66907200Y-94766666D01*
X66907200Y-94766666D02*
X66954819Y-94671428D01*
X66954819Y-94671428D02*
X66954819Y-94480952D01*
X66954819Y-94480952D02*
X66907200Y-94385714D01*
X66907200Y-94385714D02*
X66859580Y-94338095D01*
X66859580Y-94338095D02*
X66764342Y-94290476D01*
X66764342Y-94290476D02*
X65954819Y-94290476D01*
X66050057Y-93861904D02*
X66002438Y-93814285D01*
X66002438Y-93814285D02*
X65954819Y-93719047D01*
X65954819Y-93719047D02*
X65954819Y-93480952D01*
X65954819Y-93480952D02*
X66002438Y-93385714D01*
X66002438Y-93385714D02*
X66050057Y-93338095D01*
X66050057Y-93338095D02*
X66145295Y-93290476D01*
X66145295Y-93290476D02*
X66240533Y-93290476D01*
X66240533Y-93290476D02*
X66383390Y-93338095D01*
X66383390Y-93338095D02*
X66954819Y-93909523D01*
X66954819Y-93909523D02*
X66954819Y-93290476D01*
X47183333Y-126954819D02*
X46850000Y-126478628D01*
X46611905Y-126954819D02*
X46611905Y-125954819D01*
X46611905Y-125954819D02*
X46992857Y-125954819D01*
X46992857Y-125954819D02*
X47088095Y-126002438D01*
X47088095Y-126002438D02*
X47135714Y-126050057D01*
X47135714Y-126050057D02*
X47183333Y-126145295D01*
X47183333Y-126145295D02*
X47183333Y-126288152D01*
X47183333Y-126288152D02*
X47135714Y-126383390D01*
X47135714Y-126383390D02*
X47088095Y-126431009D01*
X47088095Y-126431009D02*
X46992857Y-126478628D01*
X46992857Y-126478628D02*
X46611905Y-126478628D01*
X48040476Y-126288152D02*
X48040476Y-126954819D01*
X47802381Y-125907200D02*
X47564286Y-126621485D01*
X47564286Y-126621485D02*
X48183333Y-126621485D01*
X36261905Y-120804819D02*
X36261905Y-119804819D01*
X36261905Y-119804819D02*
X36500000Y-119804819D01*
X36500000Y-119804819D02*
X36642857Y-119852438D01*
X36642857Y-119852438D02*
X36738095Y-119947676D01*
X36738095Y-119947676D02*
X36785714Y-120042914D01*
X36785714Y-120042914D02*
X36833333Y-120233390D01*
X36833333Y-120233390D02*
X36833333Y-120376247D01*
X36833333Y-120376247D02*
X36785714Y-120566723D01*
X36785714Y-120566723D02*
X36738095Y-120661961D01*
X36738095Y-120661961D02*
X36642857Y-120757200D01*
X36642857Y-120757200D02*
X36500000Y-120804819D01*
X36500000Y-120804819D02*
X36261905Y-120804819D01*
X37214286Y-119900057D02*
X37261905Y-119852438D01*
X37261905Y-119852438D02*
X37357143Y-119804819D01*
X37357143Y-119804819D02*
X37595238Y-119804819D01*
X37595238Y-119804819D02*
X37690476Y-119852438D01*
X37690476Y-119852438D02*
X37738095Y-119900057D01*
X37738095Y-119900057D02*
X37785714Y-119995295D01*
X37785714Y-119995295D02*
X37785714Y-120090533D01*
X37785714Y-120090533D02*
X37738095Y-120233390D01*
X37738095Y-120233390D02*
X37166667Y-120804819D01*
X37166667Y-120804819D02*
X37785714Y-120804819D01*
X47454819Y-131953333D02*
X48169104Y-131953333D01*
X48169104Y-131953333D02*
X48311961Y-132000952D01*
X48311961Y-132000952D02*
X48407200Y-132096190D01*
X48407200Y-132096190D02*
X48454819Y-132239047D01*
X48454819Y-132239047D02*
X48454819Y-132334285D01*
X47788152Y-131048571D02*
X48454819Y-131048571D01*
X47407200Y-131286666D02*
X48121485Y-131524761D01*
X48121485Y-131524761D02*
X48121485Y-130905714D01*
X35183333Y-126954819D02*
X34850000Y-126478628D01*
X34611905Y-126954819D02*
X34611905Y-125954819D01*
X34611905Y-125954819D02*
X34992857Y-125954819D01*
X34992857Y-125954819D02*
X35088095Y-126002438D01*
X35088095Y-126002438D02*
X35135714Y-126050057D01*
X35135714Y-126050057D02*
X35183333Y-126145295D01*
X35183333Y-126145295D02*
X35183333Y-126288152D01*
X35183333Y-126288152D02*
X35135714Y-126383390D01*
X35135714Y-126383390D02*
X35088095Y-126431009D01*
X35088095Y-126431009D02*
X34992857Y-126478628D01*
X34992857Y-126478628D02*
X34611905Y-126478628D01*
X35564286Y-126050057D02*
X35611905Y-126002438D01*
X35611905Y-126002438D02*
X35707143Y-125954819D01*
X35707143Y-125954819D02*
X35945238Y-125954819D01*
X35945238Y-125954819D02*
X36040476Y-126002438D01*
X36040476Y-126002438D02*
X36088095Y-126050057D01*
X36088095Y-126050057D02*
X36135714Y-126145295D01*
X36135714Y-126145295D02*
X36135714Y-126240533D01*
X36135714Y-126240533D02*
X36088095Y-126383390D01*
X36088095Y-126383390D02*
X35516667Y-126954819D01*
X35516667Y-126954819D02*
X36135714Y-126954819D01*
X66859580Y-100986666D02*
X66907200Y-101034285D01*
X66907200Y-101034285D02*
X66954819Y-101177142D01*
X66954819Y-101177142D02*
X66954819Y-101272380D01*
X66954819Y-101272380D02*
X66907200Y-101415237D01*
X66907200Y-101415237D02*
X66811961Y-101510475D01*
X66811961Y-101510475D02*
X66716723Y-101558094D01*
X66716723Y-101558094D02*
X66526247Y-101605713D01*
X66526247Y-101605713D02*
X66383390Y-101605713D01*
X66383390Y-101605713D02*
X66192914Y-101558094D01*
X66192914Y-101558094D02*
X66097676Y-101510475D01*
X66097676Y-101510475D02*
X66002438Y-101415237D01*
X66002438Y-101415237D02*
X65954819Y-101272380D01*
X65954819Y-101272380D02*
X65954819Y-101177142D01*
X65954819Y-101177142D02*
X66002438Y-101034285D01*
X66002438Y-101034285D02*
X66050057Y-100986666D01*
X65954819Y-100081904D02*
X65954819Y-100558094D01*
X65954819Y-100558094D02*
X66431009Y-100605713D01*
X66431009Y-100605713D02*
X66383390Y-100558094D01*
X66383390Y-100558094D02*
X66335771Y-100462856D01*
X66335771Y-100462856D02*
X66335771Y-100224761D01*
X66335771Y-100224761D02*
X66383390Y-100129523D01*
X66383390Y-100129523D02*
X66431009Y-100081904D01*
X66431009Y-100081904D02*
X66526247Y-100034285D01*
X66526247Y-100034285D02*
X66764342Y-100034285D01*
X66764342Y-100034285D02*
X66859580Y-100081904D01*
X66859580Y-100081904D02*
X66907200Y-100129523D01*
X66907200Y-100129523D02*
X66954819Y-100224761D01*
X66954819Y-100224761D02*
X66954819Y-100462856D01*
X66954819Y-100462856D02*
X66907200Y-100558094D01*
X66907200Y-100558094D02*
X66859580Y-100605713D01*
X50804819Y-107816666D02*
X50328628Y-108149999D01*
X50804819Y-108388094D02*
X49804819Y-108388094D01*
X49804819Y-108388094D02*
X49804819Y-108007142D01*
X49804819Y-108007142D02*
X49852438Y-107911904D01*
X49852438Y-107911904D02*
X49900057Y-107864285D01*
X49900057Y-107864285D02*
X49995295Y-107816666D01*
X49995295Y-107816666D02*
X50138152Y-107816666D01*
X50138152Y-107816666D02*
X50233390Y-107864285D01*
X50233390Y-107864285D02*
X50281009Y-107911904D01*
X50281009Y-107911904D02*
X50328628Y-108007142D01*
X50328628Y-108007142D02*
X50328628Y-108388094D01*
X49804819Y-107483332D02*
X49804819Y-106816666D01*
X49804819Y-106816666D02*
X50804819Y-107245237D01*
X53183333Y-126954819D02*
X52850000Y-126478628D01*
X52611905Y-126954819D02*
X52611905Y-125954819D01*
X52611905Y-125954819D02*
X52992857Y-125954819D01*
X52992857Y-125954819D02*
X53088095Y-126002438D01*
X53088095Y-126002438D02*
X53135714Y-126050057D01*
X53135714Y-126050057D02*
X53183333Y-126145295D01*
X53183333Y-126145295D02*
X53183333Y-126288152D01*
X53183333Y-126288152D02*
X53135714Y-126383390D01*
X53135714Y-126383390D02*
X53088095Y-126431009D01*
X53088095Y-126431009D02*
X52992857Y-126478628D01*
X52992857Y-126478628D02*
X52611905Y-126478628D01*
X54088095Y-125954819D02*
X53611905Y-125954819D01*
X53611905Y-125954819D02*
X53564286Y-126431009D01*
X53564286Y-126431009D02*
X53611905Y-126383390D01*
X53611905Y-126383390D02*
X53707143Y-126335771D01*
X53707143Y-126335771D02*
X53945238Y-126335771D01*
X53945238Y-126335771D02*
X54040476Y-126383390D01*
X54040476Y-126383390D02*
X54088095Y-126431009D01*
X54088095Y-126431009D02*
X54135714Y-126526247D01*
X54135714Y-126526247D02*
X54135714Y-126764342D01*
X54135714Y-126764342D02*
X54088095Y-126859580D01*
X54088095Y-126859580D02*
X54040476Y-126907200D01*
X54040476Y-126907200D02*
X53945238Y-126954819D01*
X53945238Y-126954819D02*
X53707143Y-126954819D01*
X53707143Y-126954819D02*
X53611905Y-126907200D01*
X53611905Y-126907200D02*
X53564286Y-126859580D01*
X39666666Y-124574819D02*
X39666666Y-125289104D01*
X39666666Y-125289104D02*
X39619047Y-125431961D01*
X39619047Y-125431961D02*
X39523809Y-125527200D01*
X39523809Y-125527200D02*
X39380952Y-125574819D01*
X39380952Y-125574819D02*
X39285714Y-125574819D01*
X40047619Y-124574819D02*
X40666666Y-124574819D01*
X40666666Y-124574819D02*
X40333333Y-124955771D01*
X40333333Y-124955771D02*
X40476190Y-124955771D01*
X40476190Y-124955771D02*
X40571428Y-125003390D01*
X40571428Y-125003390D02*
X40619047Y-125051009D01*
X40619047Y-125051009D02*
X40666666Y-125146247D01*
X40666666Y-125146247D02*
X40666666Y-125384342D01*
X40666666Y-125384342D02*
X40619047Y-125479580D01*
X40619047Y-125479580D02*
X40571428Y-125527200D01*
X40571428Y-125527200D02*
X40476190Y-125574819D01*
X40476190Y-125574819D02*
X40190476Y-125574819D01*
X40190476Y-125574819D02*
X40095238Y-125527200D01*
X40095238Y-125527200D02*
X40047619Y-125479580D01*
X60261905Y-120804819D02*
X60261905Y-119804819D01*
X60261905Y-119804819D02*
X60500000Y-119804819D01*
X60500000Y-119804819D02*
X60642857Y-119852438D01*
X60642857Y-119852438D02*
X60738095Y-119947676D01*
X60738095Y-119947676D02*
X60785714Y-120042914D01*
X60785714Y-120042914D02*
X60833333Y-120233390D01*
X60833333Y-120233390D02*
X60833333Y-120376247D01*
X60833333Y-120376247D02*
X60785714Y-120566723D01*
X60785714Y-120566723D02*
X60738095Y-120661961D01*
X60738095Y-120661961D02*
X60642857Y-120757200D01*
X60642857Y-120757200D02*
X60500000Y-120804819D01*
X60500000Y-120804819D02*
X60261905Y-120804819D01*
X61690476Y-119804819D02*
X61500000Y-119804819D01*
X61500000Y-119804819D02*
X61404762Y-119852438D01*
X61404762Y-119852438D02*
X61357143Y-119900057D01*
X61357143Y-119900057D02*
X61261905Y-120042914D01*
X61261905Y-120042914D02*
X61214286Y-120233390D01*
X61214286Y-120233390D02*
X61214286Y-120614342D01*
X61214286Y-120614342D02*
X61261905Y-120709580D01*
X61261905Y-120709580D02*
X61309524Y-120757200D01*
X61309524Y-120757200D02*
X61404762Y-120804819D01*
X61404762Y-120804819D02*
X61595238Y-120804819D01*
X61595238Y-120804819D02*
X61690476Y-120757200D01*
X61690476Y-120757200D02*
X61738095Y-120709580D01*
X61738095Y-120709580D02*
X61785714Y-120614342D01*
X61785714Y-120614342D02*
X61785714Y-120376247D01*
X61785714Y-120376247D02*
X61738095Y-120281009D01*
X61738095Y-120281009D02*
X61690476Y-120233390D01*
X61690476Y-120233390D02*
X61595238Y-120185771D01*
X61595238Y-120185771D02*
X61404762Y-120185771D01*
X61404762Y-120185771D02*
X61309524Y-120233390D01*
X61309524Y-120233390D02*
X61261905Y-120281009D01*
X61261905Y-120281009D02*
X61214286Y-120376247D01*
X71107142Y-105109580D02*
X71059523Y-105157200D01*
X71059523Y-105157200D02*
X70916666Y-105204819D01*
X70916666Y-105204819D02*
X70821428Y-105204819D01*
X70821428Y-105204819D02*
X70678571Y-105157200D01*
X70678571Y-105157200D02*
X70583333Y-105061961D01*
X70583333Y-105061961D02*
X70535714Y-104966723D01*
X70535714Y-104966723D02*
X70488095Y-104776247D01*
X70488095Y-104776247D02*
X70488095Y-104633390D01*
X70488095Y-104633390D02*
X70535714Y-104442914D01*
X70535714Y-104442914D02*
X70583333Y-104347676D01*
X70583333Y-104347676D02*
X70678571Y-104252438D01*
X70678571Y-104252438D02*
X70821428Y-104204819D01*
X70821428Y-104204819D02*
X70916666Y-104204819D01*
X70916666Y-104204819D02*
X71059523Y-104252438D01*
X71059523Y-104252438D02*
X71107142Y-104300057D01*
X72059523Y-105204819D02*
X71488095Y-105204819D01*
X71773809Y-105204819D02*
X71773809Y-104204819D01*
X71773809Y-104204819D02*
X71678571Y-104347676D01*
X71678571Y-104347676D02*
X71583333Y-104442914D01*
X71583333Y-104442914D02*
X71488095Y-104490533D01*
X72678571Y-104204819D02*
X72773809Y-104204819D01*
X72773809Y-104204819D02*
X72869047Y-104252438D01*
X72869047Y-104252438D02*
X72916666Y-104300057D01*
X72916666Y-104300057D02*
X72964285Y-104395295D01*
X72964285Y-104395295D02*
X73011904Y-104585771D01*
X73011904Y-104585771D02*
X73011904Y-104823866D01*
X73011904Y-104823866D02*
X72964285Y-105014342D01*
X72964285Y-105014342D02*
X72916666Y-105109580D01*
X72916666Y-105109580D02*
X72869047Y-105157200D01*
X72869047Y-105157200D02*
X72773809Y-105204819D01*
X72773809Y-105204819D02*
X72678571Y-105204819D01*
X72678571Y-105204819D02*
X72583333Y-105157200D01*
X72583333Y-105157200D02*
X72535714Y-105109580D01*
X72535714Y-105109580D02*
X72488095Y-105014342D01*
X72488095Y-105014342D02*
X72440476Y-104823866D01*
X72440476Y-104823866D02*
X72440476Y-104585771D01*
X72440476Y-104585771D02*
X72488095Y-104395295D01*
X72488095Y-104395295D02*
X72535714Y-104300057D01*
X72535714Y-104300057D02*
X72583333Y-104252438D01*
X72583333Y-104252438D02*
X72678571Y-104204819D01*
X43333333Y-108039580D02*
X43285714Y-108087200D01*
X43285714Y-108087200D02*
X43142857Y-108134819D01*
X43142857Y-108134819D02*
X43047619Y-108134819D01*
X43047619Y-108134819D02*
X42904762Y-108087200D01*
X42904762Y-108087200D02*
X42809524Y-107991961D01*
X42809524Y-107991961D02*
X42761905Y-107896723D01*
X42761905Y-107896723D02*
X42714286Y-107706247D01*
X42714286Y-107706247D02*
X42714286Y-107563390D01*
X42714286Y-107563390D02*
X42761905Y-107372914D01*
X42761905Y-107372914D02*
X42809524Y-107277676D01*
X42809524Y-107277676D02*
X42904762Y-107182438D01*
X42904762Y-107182438D02*
X43047619Y-107134819D01*
X43047619Y-107134819D02*
X43142857Y-107134819D01*
X43142857Y-107134819D02*
X43285714Y-107182438D01*
X43285714Y-107182438D02*
X43333333Y-107230057D01*
X43904762Y-107563390D02*
X43809524Y-107515771D01*
X43809524Y-107515771D02*
X43761905Y-107468152D01*
X43761905Y-107468152D02*
X43714286Y-107372914D01*
X43714286Y-107372914D02*
X43714286Y-107325295D01*
X43714286Y-107325295D02*
X43761905Y-107230057D01*
X43761905Y-107230057D02*
X43809524Y-107182438D01*
X43809524Y-107182438D02*
X43904762Y-107134819D01*
X43904762Y-107134819D02*
X44095238Y-107134819D01*
X44095238Y-107134819D02*
X44190476Y-107182438D01*
X44190476Y-107182438D02*
X44238095Y-107230057D01*
X44238095Y-107230057D02*
X44285714Y-107325295D01*
X44285714Y-107325295D02*
X44285714Y-107372914D01*
X44285714Y-107372914D02*
X44238095Y-107468152D01*
X44238095Y-107468152D02*
X44190476Y-107515771D01*
X44190476Y-107515771D02*
X44095238Y-107563390D01*
X44095238Y-107563390D02*
X43904762Y-107563390D01*
X43904762Y-107563390D02*
X43809524Y-107611009D01*
X43809524Y-107611009D02*
X43761905Y-107658628D01*
X43761905Y-107658628D02*
X43714286Y-107753866D01*
X43714286Y-107753866D02*
X43714286Y-107944342D01*
X43714286Y-107944342D02*
X43761905Y-108039580D01*
X43761905Y-108039580D02*
X43809524Y-108087200D01*
X43809524Y-108087200D02*
X43904762Y-108134819D01*
X43904762Y-108134819D02*
X44095238Y-108134819D01*
X44095238Y-108134819D02*
X44190476Y-108087200D01*
X44190476Y-108087200D02*
X44238095Y-108039580D01*
X44238095Y-108039580D02*
X44285714Y-107944342D01*
X44285714Y-107944342D02*
X44285714Y-107753866D01*
X44285714Y-107753866D02*
X44238095Y-107658628D01*
X44238095Y-107658628D02*
X44190476Y-107611009D01*
X44190476Y-107611009D02*
X44095238Y-107563390D01*
X57454819Y-107361904D02*
X58264342Y-107361904D01*
X58264342Y-107361904D02*
X58359580Y-107314285D01*
X58359580Y-107314285D02*
X58407200Y-107266666D01*
X58407200Y-107266666D02*
X58454819Y-107171428D01*
X58454819Y-107171428D02*
X58454819Y-106980952D01*
X58454819Y-106980952D02*
X58407200Y-106885714D01*
X58407200Y-106885714D02*
X58359580Y-106838095D01*
X58359580Y-106838095D02*
X58264342Y-106790476D01*
X58264342Y-106790476D02*
X57454819Y-106790476D01*
X57454819Y-105838095D02*
X57454819Y-106314285D01*
X57454819Y-106314285D02*
X57931009Y-106361904D01*
X57931009Y-106361904D02*
X57883390Y-106314285D01*
X57883390Y-106314285D02*
X57835771Y-106219047D01*
X57835771Y-106219047D02*
X57835771Y-105980952D01*
X57835771Y-105980952D02*
X57883390Y-105885714D01*
X57883390Y-105885714D02*
X57931009Y-105838095D01*
X57931009Y-105838095D02*
X58026247Y-105790476D01*
X58026247Y-105790476D02*
X58264342Y-105790476D01*
X58264342Y-105790476D02*
X58359580Y-105838095D01*
X58359580Y-105838095D02*
X58407200Y-105885714D01*
X58407200Y-105885714D02*
X58454819Y-105980952D01*
X58454819Y-105980952D02*
X58454819Y-106219047D01*
X58454819Y-106219047D02*
X58407200Y-106314285D01*
X58407200Y-106314285D02*
X58359580Y-106361904D01*
X30261905Y-120804819D02*
X30261905Y-119804819D01*
X30261905Y-119804819D02*
X30500000Y-119804819D01*
X30500000Y-119804819D02*
X30642857Y-119852438D01*
X30642857Y-119852438D02*
X30738095Y-119947676D01*
X30738095Y-119947676D02*
X30785714Y-120042914D01*
X30785714Y-120042914D02*
X30833333Y-120233390D01*
X30833333Y-120233390D02*
X30833333Y-120376247D01*
X30833333Y-120376247D02*
X30785714Y-120566723D01*
X30785714Y-120566723D02*
X30738095Y-120661961D01*
X30738095Y-120661961D02*
X30642857Y-120757200D01*
X30642857Y-120757200D02*
X30500000Y-120804819D01*
X30500000Y-120804819D02*
X30261905Y-120804819D01*
X31785714Y-120804819D02*
X31214286Y-120804819D01*
X31500000Y-120804819D02*
X31500000Y-119804819D01*
X31500000Y-119804819D02*
X31404762Y-119947676D01*
X31404762Y-119947676D02*
X31309524Y-120042914D01*
X31309524Y-120042914D02*
X31214286Y-120090533D01*
D10*
X28852580Y-100616905D02*
X28043057Y-100616905D01*
X28043057Y-100616905D02*
X27947819Y-100664524D01*
X27947819Y-100664524D02*
X27900200Y-100712143D01*
X27900200Y-100712143D02*
X27852580Y-100807381D01*
X27852580Y-100807381D02*
X27852580Y-100997857D01*
X27852580Y-100997857D02*
X27900200Y-101093095D01*
X27900200Y-101093095D02*
X27947819Y-101140714D01*
X27947819Y-101140714D02*
X28043057Y-101188333D01*
X28043057Y-101188333D02*
X28852580Y-101188333D01*
X27900200Y-101616905D02*
X27852580Y-101759762D01*
X27852580Y-101759762D02*
X27852580Y-101997857D01*
X27852580Y-101997857D02*
X27900200Y-102093095D01*
X27900200Y-102093095D02*
X27947819Y-102140714D01*
X27947819Y-102140714D02*
X28043057Y-102188333D01*
X28043057Y-102188333D02*
X28138295Y-102188333D01*
X28138295Y-102188333D02*
X28233533Y-102140714D01*
X28233533Y-102140714D02*
X28281152Y-102093095D01*
X28281152Y-102093095D02*
X28328771Y-101997857D01*
X28328771Y-101997857D02*
X28376390Y-101807381D01*
X28376390Y-101807381D02*
X28424009Y-101712143D01*
X28424009Y-101712143D02*
X28471628Y-101664524D01*
X28471628Y-101664524D02*
X28566866Y-101616905D01*
X28566866Y-101616905D02*
X28662104Y-101616905D01*
X28662104Y-101616905D02*
X28757342Y-101664524D01*
X28757342Y-101664524D02*
X28804961Y-101712143D01*
X28804961Y-101712143D02*
X28852580Y-101807381D01*
X28852580Y-101807381D02*
X28852580Y-102045476D01*
X28852580Y-102045476D02*
X28804961Y-102188333D01*
X28376390Y-102950238D02*
X28328771Y-103093095D01*
X28328771Y-103093095D02*
X28281152Y-103140714D01*
X28281152Y-103140714D02*
X28185914Y-103188333D01*
X28185914Y-103188333D02*
X28043057Y-103188333D01*
X28043057Y-103188333D02*
X27947819Y-103140714D01*
X27947819Y-103140714D02*
X27900200Y-103093095D01*
X27900200Y-103093095D02*
X27852580Y-102997857D01*
X27852580Y-102997857D02*
X27852580Y-102616905D01*
X27852580Y-102616905D02*
X28852580Y-102616905D01*
X28852580Y-102616905D02*
X28852580Y-102950238D01*
X28852580Y-102950238D02*
X28804961Y-103045476D01*
X28804961Y-103045476D02*
X28757342Y-103093095D01*
X28757342Y-103093095D02*
X28662104Y-103140714D01*
X28662104Y-103140714D02*
X28566866Y-103140714D01*
X28566866Y-103140714D02*
X28471628Y-103093095D01*
X28471628Y-103093095D02*
X28424009Y-103045476D01*
X28424009Y-103045476D02*
X28376390Y-102950238D01*
X28376390Y-102950238D02*
X28376390Y-102616905D01*
X27852580Y-104140714D02*
X27852580Y-103569286D01*
X27852580Y-103855000D02*
X28852580Y-103855000D01*
X28852580Y-103855000D02*
X28709723Y-103759762D01*
X28709723Y-103759762D02*
X28614485Y-103664524D01*
X28614485Y-103664524D02*
X28566866Y-103569286D01*
D11*
X30359580Y-104486666D02*
X30407200Y-104534285D01*
X30407200Y-104534285D02*
X30454819Y-104677142D01*
X30454819Y-104677142D02*
X30454819Y-104772380D01*
X30454819Y-104772380D02*
X30407200Y-104915237D01*
X30407200Y-104915237D02*
X30311961Y-105010475D01*
X30311961Y-105010475D02*
X30216723Y-105058094D01*
X30216723Y-105058094D02*
X30026247Y-105105713D01*
X30026247Y-105105713D02*
X29883390Y-105105713D01*
X29883390Y-105105713D02*
X29692914Y-105058094D01*
X29692914Y-105058094D02*
X29597676Y-105010475D01*
X29597676Y-105010475D02*
X29502438Y-104915237D01*
X29502438Y-104915237D02*
X29454819Y-104772380D01*
X29454819Y-104772380D02*
X29454819Y-104677142D01*
X29454819Y-104677142D02*
X29502438Y-104534285D01*
X29502438Y-104534285D02*
X29550057Y-104486666D01*
X29454819Y-103629523D02*
X29454819Y-103819999D01*
X29454819Y-103819999D02*
X29502438Y-103915237D01*
X29502438Y-103915237D02*
X29550057Y-103962856D01*
X29550057Y-103962856D02*
X29692914Y-104058094D01*
X29692914Y-104058094D02*
X29883390Y-104105713D01*
X29883390Y-104105713D02*
X30264342Y-104105713D01*
X30264342Y-104105713D02*
X30359580Y-104058094D01*
X30359580Y-104058094D02*
X30407200Y-104010475D01*
X30407200Y-104010475D02*
X30454819Y-103915237D01*
X30454819Y-103915237D02*
X30454819Y-103724761D01*
X30454819Y-103724761D02*
X30407200Y-103629523D01*
X30407200Y-103629523D02*
X30359580Y-103581904D01*
X30359580Y-103581904D02*
X30264342Y-103534285D01*
X30264342Y-103534285D02*
X30026247Y-103534285D01*
X30026247Y-103534285D02*
X29931009Y-103581904D01*
X29931009Y-103581904D02*
X29883390Y-103629523D01*
X29883390Y-103629523D02*
X29835771Y-103724761D01*
X29835771Y-103724761D02*
X29835771Y-103915237D01*
X29835771Y-103915237D02*
X29883390Y-104010475D01*
X29883390Y-104010475D02*
X29931009Y-104058094D01*
X29931009Y-104058094D02*
X30026247Y-104105713D01*
X59183333Y-126954819D02*
X58850000Y-126478628D01*
X58611905Y-126954819D02*
X58611905Y-125954819D01*
X58611905Y-125954819D02*
X58992857Y-125954819D01*
X58992857Y-125954819D02*
X59088095Y-126002438D01*
X59088095Y-126002438D02*
X59135714Y-126050057D01*
X59135714Y-126050057D02*
X59183333Y-126145295D01*
X59183333Y-126145295D02*
X59183333Y-126288152D01*
X59183333Y-126288152D02*
X59135714Y-126383390D01*
X59135714Y-126383390D02*
X59088095Y-126431009D01*
X59088095Y-126431009D02*
X58992857Y-126478628D01*
X58992857Y-126478628D02*
X58611905Y-126478628D01*
X60040476Y-125954819D02*
X59850000Y-125954819D01*
X59850000Y-125954819D02*
X59754762Y-126002438D01*
X59754762Y-126002438D02*
X59707143Y-126050057D01*
X59707143Y-126050057D02*
X59611905Y-126192914D01*
X59611905Y-126192914D02*
X59564286Y-126383390D01*
X59564286Y-126383390D02*
X59564286Y-126764342D01*
X59564286Y-126764342D02*
X59611905Y-126859580D01*
X59611905Y-126859580D02*
X59659524Y-126907200D01*
X59659524Y-126907200D02*
X59754762Y-126954819D01*
X59754762Y-126954819D02*
X59945238Y-126954819D01*
X59945238Y-126954819D02*
X60040476Y-126907200D01*
X60040476Y-126907200D02*
X60088095Y-126859580D01*
X60088095Y-126859580D02*
X60135714Y-126764342D01*
X60135714Y-126764342D02*
X60135714Y-126526247D01*
X60135714Y-126526247D02*
X60088095Y-126431009D01*
X60088095Y-126431009D02*
X60040476Y-126383390D01*
X60040476Y-126383390D02*
X59945238Y-126335771D01*
X59945238Y-126335771D02*
X59754762Y-126335771D01*
X59754762Y-126335771D02*
X59659524Y-126383390D01*
X59659524Y-126383390D02*
X59611905Y-126431009D01*
X59611905Y-126431009D02*
X59564286Y-126526247D01*
X46094580Y-93976666D02*
X46142200Y-94024285D01*
X46142200Y-94024285D02*
X46189819Y-94167142D01*
X46189819Y-94167142D02*
X46189819Y-94262380D01*
X46189819Y-94262380D02*
X46142200Y-94405237D01*
X46142200Y-94405237D02*
X46046961Y-94500475D01*
X46046961Y-94500475D02*
X45951723Y-94548094D01*
X45951723Y-94548094D02*
X45761247Y-94595713D01*
X45761247Y-94595713D02*
X45618390Y-94595713D01*
X45618390Y-94595713D02*
X45427914Y-94548094D01*
X45427914Y-94548094D02*
X45332676Y-94500475D01*
X45332676Y-94500475D02*
X45237438Y-94405237D01*
X45237438Y-94405237D02*
X45189819Y-94262380D01*
X45189819Y-94262380D02*
X45189819Y-94167142D01*
X45189819Y-94167142D02*
X45237438Y-94024285D01*
X45237438Y-94024285D02*
X45285057Y-93976666D01*
X46189819Y-93024285D02*
X46189819Y-93595713D01*
X46189819Y-93309999D02*
X45189819Y-93309999D01*
X45189819Y-93309999D02*
X45332676Y-93405237D01*
X45332676Y-93405237D02*
X45427914Y-93500475D01*
X45427914Y-93500475D02*
X45475533Y-93595713D01*
X50238095Y-91454819D02*
X50238095Y-92264342D01*
X50238095Y-92264342D02*
X50285714Y-92359580D01*
X50285714Y-92359580D02*
X50333333Y-92407200D01*
X50333333Y-92407200D02*
X50428571Y-92454819D01*
X50428571Y-92454819D02*
X50619047Y-92454819D01*
X50619047Y-92454819D02*
X50714285Y-92407200D01*
X50714285Y-92407200D02*
X50761904Y-92359580D01*
X50761904Y-92359580D02*
X50809523Y-92264342D01*
X50809523Y-92264342D02*
X50809523Y-91454819D01*
X51809523Y-92454819D02*
X51238095Y-92454819D01*
X51523809Y-92454819D02*
X51523809Y-91454819D01*
X51523809Y-91454819D02*
X51428571Y-91597676D01*
X51428571Y-91597676D02*
X51333333Y-91692914D01*
X51333333Y-91692914D02*
X51238095Y-91740533D01*
D10*
X55742580Y-128206666D02*
X55028295Y-128206666D01*
X55028295Y-128206666D02*
X54885438Y-128159047D01*
X54885438Y-128159047D02*
X54790200Y-128063809D01*
X54790200Y-128063809D02*
X54742580Y-127920952D01*
X54742580Y-127920952D02*
X54742580Y-127825714D01*
X55742580Y-129159047D02*
X55742580Y-128682857D01*
X55742580Y-128682857D02*
X55266390Y-128635238D01*
X55266390Y-128635238D02*
X55314009Y-128682857D01*
X55314009Y-128682857D02*
X55361628Y-128778095D01*
X55361628Y-128778095D02*
X55361628Y-129016190D01*
X55361628Y-129016190D02*
X55314009Y-129111428D01*
X55314009Y-129111428D02*
X55266390Y-129159047D01*
X55266390Y-129159047D02*
X55171152Y-129206666D01*
X55171152Y-129206666D02*
X54933057Y-129206666D01*
X54933057Y-129206666D02*
X54837819Y-129159047D01*
X54837819Y-129159047D02*
X54790200Y-129111428D01*
X54790200Y-129111428D02*
X54742580Y-129016190D01*
X54742580Y-129016190D02*
X54742580Y-128778095D01*
X54742580Y-128778095D02*
X54790200Y-128682857D01*
X54790200Y-128682857D02*
X54837819Y-128635238D01*
%TO.C,J8*%
X66220000Y-118130000D02*
X74430000Y-118130000D01*
X74430000Y-123140000D01*
X66220000Y-123140000D01*
X66220000Y-118130000D01*
%TO.C,U3*%
D12*
X34000000Y-103160000D02*
X34000000Y-103885000D01*
X34000000Y-107655000D02*
X34000000Y-108380000D01*
X34000000Y-108380000D02*
X34725000Y-108380000D01*
X34725000Y-103160000D02*
X34000000Y-103160000D01*
X38495000Y-108380000D02*
X39220000Y-108380000D01*
X39220000Y-103160000D02*
X38495000Y-103160000D01*
X39220000Y-103885000D02*
X39220000Y-103160000D01*
X39220000Y-108380000D02*
X39220000Y-107655000D01*
X33500000Y-107270000D02*
X33170000Y-107030000D01*
X33170000Y-107510000D01*
X33500000Y-107270000D01*
G36*
X33500000Y-107270000D02*
G01*
X33170000Y-107510000D01*
X33170000Y-107030000D01*
X33500000Y-107270000D01*
G37*
%TO.C,SW2*%
D10*
X34150000Y-93010000D02*
X45540000Y-93010000D01*
X45540000Y-97190000D01*
X34150000Y-97190000D01*
X34150000Y-93010000D01*
%TO.C,C4*%
D12*
X70765000Y-96761252D02*
X70765000Y-96238748D01*
X72235000Y-96761252D02*
X72235000Y-96238748D01*
%TO.C,C11*%
X64745225Y-111525000D02*
X65245225Y-111525000D01*
X64995225Y-111275000D02*
X64995225Y-111775000D01*
X67550000Y-110420000D02*
X67550000Y-115580000D01*
X67590000Y-110420000D02*
X67590000Y-115580000D01*
X67630000Y-110421000D02*
X67630000Y-115579000D01*
X67670000Y-110423000D02*
X67670000Y-115577000D01*
X67710000Y-110425000D02*
X67710000Y-115575000D01*
X67750000Y-110428000D02*
X67750000Y-115572000D01*
X67790000Y-110431000D02*
X67790000Y-111960000D01*
X67790000Y-114040000D02*
X67790000Y-115569000D01*
X67830000Y-110435000D02*
X67830000Y-111960000D01*
X67830000Y-114040000D02*
X67830000Y-115565000D01*
X67870000Y-110440000D02*
X67870000Y-111960000D01*
X67870000Y-114040000D02*
X67870000Y-115560000D01*
X67910000Y-110445000D02*
X67910000Y-111960000D01*
X67910000Y-114040000D02*
X67910000Y-115555000D01*
X67950000Y-110451000D02*
X67950000Y-111960000D01*
X67950000Y-114040000D02*
X67950000Y-115549000D01*
X67990000Y-110457000D02*
X67990000Y-111960000D01*
X67990000Y-114040000D02*
X67990000Y-115543000D01*
X68030000Y-110464000D02*
X68030000Y-111960000D01*
X68030000Y-114040000D02*
X68030000Y-115536000D01*
X68070000Y-110472000D02*
X68070000Y-111960000D01*
X68070000Y-114040000D02*
X68070000Y-115528000D01*
X68110000Y-110481000D02*
X68110000Y-111960000D01*
X68110000Y-114040000D02*
X68110000Y-115519000D01*
X68150000Y-110490000D02*
X68150000Y-111960000D01*
X68150000Y-114040000D02*
X68150000Y-115510000D01*
X68190000Y-110499000D02*
X68190000Y-111960000D01*
X68190000Y-114040000D02*
X68190000Y-115501000D01*
X68230000Y-110510000D02*
X68230000Y-111960000D01*
X68230000Y-114040000D02*
X68230000Y-115490000D01*
X68270000Y-110521000D02*
X68270000Y-111960000D01*
X68270000Y-114040000D02*
X68270000Y-115479000D01*
X68310000Y-110533000D02*
X68310000Y-111960000D01*
X68310000Y-114040000D02*
X68310000Y-115467000D01*
X68350000Y-110545000D02*
X68350000Y-111960000D01*
X68350000Y-114040000D02*
X68350000Y-115455000D01*
X68390000Y-110558000D02*
X68390000Y-111960000D01*
X68390000Y-114040000D02*
X68390000Y-115442000D01*
X68430000Y-110572000D02*
X68430000Y-111960000D01*
X68430000Y-114040000D02*
X68430000Y-115428000D01*
X68470000Y-110587000D02*
X68470000Y-111960000D01*
X68470000Y-114040000D02*
X68470000Y-115413000D01*
X68510000Y-110602000D02*
X68510000Y-111960000D01*
X68510000Y-114040000D02*
X68510000Y-115398000D01*
X68550000Y-110618000D02*
X68550000Y-111960000D01*
X68550000Y-114040000D02*
X68550000Y-115382000D01*
X68590000Y-110635000D02*
X68590000Y-111960000D01*
X68590000Y-114040000D02*
X68590000Y-115365000D01*
X68630000Y-110653000D02*
X68630000Y-111960000D01*
X68630000Y-114040000D02*
X68630000Y-115347000D01*
X68670000Y-110671000D02*
X68670000Y-111960000D01*
X68670000Y-114040000D02*
X68670000Y-115329000D01*
X68710000Y-110691000D02*
X68710000Y-111960000D01*
X68710000Y-114040000D02*
X68710000Y-115309000D01*
X68750000Y-110711000D02*
X68750000Y-111960000D01*
X68750000Y-114040000D02*
X68750000Y-115289000D01*
X68790000Y-110732000D02*
X68790000Y-111960000D01*
X68790000Y-114040000D02*
X68790000Y-115268000D01*
X68830000Y-110754000D02*
X68830000Y-111960000D01*
X68830000Y-114040000D02*
X68830000Y-115246000D01*
X68870000Y-110777000D02*
X68870000Y-111960000D01*
X68870000Y-114040000D02*
X68870000Y-115223000D01*
X68910000Y-110801000D02*
X68910000Y-111960000D01*
X68910000Y-114040000D02*
X68910000Y-115199000D01*
X68950000Y-110825000D02*
X68950000Y-111960000D01*
X68950000Y-114040000D02*
X68950000Y-115175000D01*
X68990000Y-110851000D02*
X68990000Y-111960000D01*
X68990000Y-114040000D02*
X68990000Y-115149000D01*
X69030000Y-110878000D02*
X69030000Y-111960000D01*
X69030000Y-114040000D02*
X69030000Y-115122000D01*
X69070000Y-110906000D02*
X69070000Y-111960000D01*
X69070000Y-114040000D02*
X69070000Y-115094000D01*
X69110000Y-110935000D02*
X69110000Y-111960000D01*
X69110000Y-114040000D02*
X69110000Y-115065000D01*
X69150000Y-110965000D02*
X69150000Y-111960000D01*
X69150000Y-114040000D02*
X69150000Y-115035000D01*
X69190000Y-110997000D02*
X69190000Y-111960000D01*
X69190000Y-114040000D02*
X69190000Y-115003000D01*
X69230000Y-111030000D02*
X69230000Y-111960000D01*
X69230000Y-114040000D02*
X69230000Y-114970000D01*
X69270000Y-111064000D02*
X69270000Y-111960000D01*
X69270000Y-114040000D02*
X69270000Y-114936000D01*
X69310000Y-111099000D02*
X69310000Y-111960000D01*
X69310000Y-114040000D02*
X69310000Y-114901000D01*
X69350000Y-111136000D02*
X69350000Y-111960000D01*
X69350000Y-114040000D02*
X69350000Y-114864000D01*
X69390000Y-111175000D02*
X69390000Y-111960000D01*
X69390000Y-114040000D02*
X69390000Y-114825000D01*
X69430000Y-111215000D02*
X69430000Y-111960000D01*
X69430000Y-114040000D02*
X69430000Y-114785000D01*
X69470000Y-111257000D02*
X69470000Y-111960000D01*
X69470000Y-114040000D02*
X69470000Y-114743000D01*
X69510000Y-111301000D02*
X69510000Y-111960000D01*
X69510000Y-114040000D02*
X69510000Y-114699000D01*
X69550000Y-111348000D02*
X69550000Y-111960000D01*
X69550000Y-114040000D02*
X69550000Y-114652000D01*
X69590000Y-111396000D02*
X69590000Y-111960000D01*
X69590000Y-114040000D02*
X69590000Y-114604000D01*
X69630000Y-111447000D02*
X69630000Y-111960000D01*
X69630000Y-114040000D02*
X69630000Y-114553000D01*
X69670000Y-111501000D02*
X69670000Y-111960000D01*
X69670000Y-114040000D02*
X69670000Y-114499000D01*
X69710000Y-111557000D02*
X69710000Y-111960000D01*
X69710000Y-114040000D02*
X69710000Y-114443000D01*
X69750000Y-111617000D02*
X69750000Y-111960000D01*
X69750000Y-114040000D02*
X69750000Y-114383000D01*
X69790000Y-111681000D02*
X69790000Y-111960000D01*
X69790000Y-114040000D02*
X69790000Y-114319000D01*
X69830000Y-111749000D02*
X69830000Y-111960000D01*
X69830000Y-114040000D02*
X69830000Y-114251000D01*
X69870000Y-111823000D02*
X69870000Y-114177000D01*
X69910000Y-111902000D02*
X69910000Y-114098000D01*
X69950000Y-111989000D02*
X69950000Y-114011000D01*
X69990000Y-112086000D02*
X69990000Y-113914000D01*
X70030000Y-112195000D02*
X70030000Y-113805000D01*
X70070000Y-112323000D02*
X70070000Y-113677000D01*
X70110000Y-112483000D02*
X70110000Y-113517000D01*
X70150000Y-112717000D02*
X70150000Y-113283000D01*
X70170000Y-113000000D02*
G75*
G02*
X64930000Y-113000000I-2620000J0D01*
G01*
X64930000Y-113000000D02*
G75*
G02*
X70170000Y-113000000I2620000J0D01*
G01*
%TO.C,C3*%
X60765000Y-96761252D02*
X60765000Y-96238748D01*
X62235000Y-96761252D02*
X62235000Y-96238748D01*
%TO.C,J6*%
D10*
X60190000Y-131090000D02*
X65200000Y-131090000D01*
X65200000Y-139300000D01*
X60190000Y-139300000D01*
X60190000Y-131090000D01*
%TO.C,R1*%
D12*
X30265000Y-126727064D02*
X30265000Y-126272936D01*
X31735000Y-126727064D02*
X31735000Y-126272936D01*
%TO.C,C7*%
X29738748Y-111265000D02*
X30261252Y-111265000D01*
X29738748Y-112735000D02*
X30261252Y-112735000D01*
%TO.C,R3*%
X42265000Y-126727064D02*
X42265000Y-126272936D01*
X43735000Y-126727064D02*
X43735000Y-126272936D01*
%TO.C,R8*%
X51265000Y-112227064D02*
X51265000Y-111772936D01*
X52735000Y-112227064D02*
X52735000Y-111772936D01*
%TO.C,J1*%
X28620000Y-130620000D02*
X30000000Y-130620000D01*
X28620000Y-132000000D02*
X28620000Y-130620000D01*
X28620000Y-133270000D02*
X28620000Y-138460000D01*
X28620000Y-133270000D02*
X31380000Y-133270000D01*
X28620000Y-138460000D02*
X31380000Y-138460000D01*
X31380000Y-133270000D02*
X31380000Y-138460000D01*
%TO.C,C2*%
X55765000Y-96761252D02*
X55765000Y-96238748D01*
X57235000Y-96761252D02*
X57235000Y-96238748D01*
%TO.C,J7*%
D10*
X66220000Y-100130000D02*
X74430000Y-100130000D01*
X74430000Y-105140000D01*
X66220000Y-105140000D01*
X66220000Y-100130000D01*
%TO.C,C9*%
D12*
X43238748Y-111265000D02*
X43761252Y-111265000D01*
X43238748Y-112735000D02*
X43761252Y-112735000D01*
%TO.C,D3*%
X41315000Y-121040000D02*
X41315000Y-122960000D01*
X41315000Y-122960000D02*
X44000000Y-122960000D01*
X44000000Y-121040000D02*
X41315000Y-121040000D01*
%TO.C,D5*%
X53315000Y-121040000D02*
X53315000Y-122960000D01*
X53315000Y-122960000D02*
X56000000Y-122960000D01*
X56000000Y-121040000D02*
X53315000Y-121040000D01*
%TO.C,D4*%
X47315000Y-121040000D02*
X47315000Y-122960000D01*
X47315000Y-122960000D02*
X50000000Y-122960000D01*
X50000000Y-121040000D02*
X47315000Y-121040000D01*
%TO.C,U2*%
X65590000Y-94940000D02*
X67410000Y-94940000D01*
X65590000Y-94990000D02*
X65590000Y-94940000D01*
X65590000Y-98060000D02*
X65590000Y-98010000D01*
X67410000Y-94940000D02*
X67410000Y-94990000D01*
X67410000Y-98010000D02*
X67410000Y-98060000D01*
X67410000Y-98060000D02*
X65590000Y-98060000D01*
X65050000Y-94990000D02*
X64810000Y-94660000D01*
X65290000Y-94660000D01*
X65050000Y-94990000D01*
G36*
X65050000Y-94990000D02*
G01*
X64810000Y-94660000D01*
X65290000Y-94660000D01*
X65050000Y-94990000D01*
G37*
%TO.C,R4*%
X48265000Y-126727064D02*
X48265000Y-126272936D01*
X49735000Y-126727064D02*
X49735000Y-126272936D01*
%TO.C,D2*%
X35315000Y-121040000D02*
X35315000Y-122960000D01*
X35315000Y-122960000D02*
X38000000Y-122960000D01*
X38000000Y-121040000D02*
X35315000Y-121040000D01*
%TO.C,J4*%
X46620000Y-132620000D02*
X48000000Y-132620000D01*
X46620000Y-134000000D02*
X46620000Y-132620000D01*
X46620000Y-135270000D02*
X46620000Y-137920000D01*
X46620000Y-135270000D02*
X49380000Y-135270000D01*
X46620000Y-137920000D02*
X49380000Y-137920000D01*
X49380000Y-135270000D02*
X49380000Y-137920000D01*
%TO.C,R2*%
X36265000Y-126727064D02*
X36265000Y-126272936D01*
X37735000Y-126727064D02*
X37735000Y-126272936D01*
%TO.C,C5*%
X66238748Y-101765000D02*
X66761252Y-101765000D01*
X66238748Y-103235000D02*
X66761252Y-103235000D01*
%TO.C,R7*%
X51265000Y-106227064D02*
X51265000Y-105772936D01*
X52735000Y-106227064D02*
X52735000Y-105772936D01*
%TO.C,R5*%
X54265000Y-126727064D02*
X54265000Y-126272936D01*
X55735000Y-126727064D02*
X55735000Y-126272936D01*
%TO.C,J3*%
X38620000Y-126120000D02*
X40000000Y-126120000D01*
X38620000Y-127500000D02*
X38620000Y-126120000D01*
X38620000Y-128770000D02*
X38620000Y-139040000D01*
X38620000Y-128770000D02*
X41380000Y-128770000D01*
X38620000Y-139040000D02*
X41380000Y-139040000D01*
X41380000Y-128770000D02*
X41380000Y-139040000D01*
%TO.C,D6*%
X59315000Y-121040000D02*
X59315000Y-122960000D01*
X59315000Y-122960000D02*
X62000000Y-122960000D01*
X62000000Y-121040000D02*
X59315000Y-121040000D01*
%TO.C,C10*%
X68945225Y-107025000D02*
X69445225Y-107025000D01*
X69195225Y-106775000D02*
X69195225Y-107275000D01*
X71750000Y-105920000D02*
X71750000Y-111080000D01*
X71790000Y-105920000D02*
X71790000Y-111080000D01*
X71830000Y-105921000D02*
X71830000Y-111079000D01*
X71870000Y-105923000D02*
X71870000Y-111077000D01*
X71910000Y-105925000D02*
X71910000Y-111075000D01*
X71950000Y-105928000D02*
X71950000Y-111072000D01*
X71990000Y-105931000D02*
X71990000Y-107460000D01*
X71990000Y-109540000D02*
X71990000Y-111069000D01*
X72030000Y-105935000D02*
X72030000Y-107460000D01*
X72030000Y-109540000D02*
X72030000Y-111065000D01*
X72070000Y-105940000D02*
X72070000Y-107460000D01*
X72070000Y-109540000D02*
X72070000Y-111060000D01*
X72110000Y-105945000D02*
X72110000Y-107460000D01*
X72110000Y-109540000D02*
X72110000Y-111055000D01*
X72150000Y-105951000D02*
X72150000Y-107460000D01*
X72150000Y-109540000D02*
X72150000Y-111049000D01*
X72190000Y-105957000D02*
X72190000Y-107460000D01*
X72190000Y-109540000D02*
X72190000Y-111043000D01*
X72230000Y-105964000D02*
X72230000Y-107460000D01*
X72230000Y-109540000D02*
X72230000Y-111036000D01*
X72270000Y-105972000D02*
X72270000Y-107460000D01*
X72270000Y-109540000D02*
X72270000Y-111028000D01*
X72310000Y-105981000D02*
X72310000Y-107460000D01*
X72310000Y-109540000D02*
X72310000Y-111019000D01*
X72350000Y-105990000D02*
X72350000Y-107460000D01*
X72350000Y-109540000D02*
X72350000Y-111010000D01*
X72390000Y-105999000D02*
X72390000Y-107460000D01*
X72390000Y-109540000D02*
X72390000Y-111001000D01*
X72430000Y-106010000D02*
X72430000Y-107460000D01*
X72430000Y-109540000D02*
X72430000Y-110990000D01*
X72470000Y-106021000D02*
X72470000Y-107460000D01*
X72470000Y-109540000D02*
X72470000Y-110979000D01*
X72510000Y-106033000D02*
X72510000Y-107460000D01*
X72510000Y-109540000D02*
X72510000Y-110967000D01*
X72550000Y-106045000D02*
X72550000Y-107460000D01*
X72550000Y-109540000D02*
X72550000Y-110955000D01*
X72590000Y-106058000D02*
X72590000Y-107460000D01*
X72590000Y-109540000D02*
X72590000Y-110942000D01*
X72630000Y-106072000D02*
X72630000Y-107460000D01*
X72630000Y-109540000D02*
X72630000Y-110928000D01*
X72670000Y-106087000D02*
X72670000Y-107460000D01*
X72670000Y-109540000D02*
X72670000Y-110913000D01*
X72710000Y-106102000D02*
X72710000Y-107460000D01*
X72710000Y-109540000D02*
X72710000Y-110898000D01*
X72750000Y-106118000D02*
X72750000Y-107460000D01*
X72750000Y-109540000D02*
X72750000Y-110882000D01*
X72790000Y-106135000D02*
X72790000Y-107460000D01*
X72790000Y-109540000D02*
X72790000Y-110865000D01*
X72830000Y-106153000D02*
X72830000Y-107460000D01*
X72830000Y-109540000D02*
X72830000Y-110847000D01*
X72870000Y-106171000D02*
X72870000Y-107460000D01*
X72870000Y-109540000D02*
X72870000Y-110829000D01*
X72910000Y-106191000D02*
X72910000Y-107460000D01*
X72910000Y-109540000D02*
X72910000Y-110809000D01*
X72950000Y-106211000D02*
X72950000Y-107460000D01*
X72950000Y-109540000D02*
X72950000Y-110789000D01*
X72990000Y-106232000D02*
X72990000Y-107460000D01*
X72990000Y-109540000D02*
X72990000Y-110768000D01*
X73030000Y-106254000D02*
X73030000Y-107460000D01*
X73030000Y-109540000D02*
X73030000Y-110746000D01*
X73070000Y-106277000D02*
X73070000Y-107460000D01*
X73070000Y-109540000D02*
X73070000Y-110723000D01*
X73110000Y-106301000D02*
X73110000Y-107460000D01*
X73110000Y-109540000D02*
X73110000Y-110699000D01*
X73150000Y-106325000D02*
X73150000Y-107460000D01*
X73150000Y-109540000D02*
X73150000Y-110675000D01*
X73190000Y-106351000D02*
X73190000Y-107460000D01*
X73190000Y-109540000D02*
X73190000Y-110649000D01*
X73230000Y-106378000D02*
X73230000Y-107460000D01*
X73230000Y-109540000D02*
X73230000Y-110622000D01*
X73270000Y-106406000D02*
X73270000Y-107460000D01*
X73270000Y-109540000D02*
X73270000Y-110594000D01*
X73310000Y-106435000D02*
X73310000Y-107460000D01*
X73310000Y-109540000D02*
X73310000Y-110565000D01*
X73350000Y-106465000D02*
X73350000Y-107460000D01*
X73350000Y-109540000D02*
X73350000Y-110535000D01*
X73390000Y-106497000D02*
X73390000Y-107460000D01*
X73390000Y-109540000D02*
X73390000Y-110503000D01*
X73430000Y-106530000D02*
X73430000Y-107460000D01*
X73430000Y-109540000D02*
X73430000Y-110470000D01*
X73470000Y-106564000D02*
X73470000Y-107460000D01*
X73470000Y-109540000D02*
X73470000Y-110436000D01*
X73510000Y-106599000D02*
X73510000Y-107460000D01*
X73510000Y-109540000D02*
X73510000Y-110401000D01*
X73550000Y-106636000D02*
X73550000Y-107460000D01*
X73550000Y-109540000D02*
X73550000Y-110364000D01*
X73590000Y-106675000D02*
X73590000Y-107460000D01*
X73590000Y-109540000D02*
X73590000Y-110325000D01*
X73630000Y-106715000D02*
X73630000Y-107460000D01*
X73630000Y-109540000D02*
X73630000Y-110285000D01*
X73670000Y-106757000D02*
X73670000Y-107460000D01*
X73670000Y-109540000D02*
X73670000Y-110243000D01*
X73710000Y-106801000D02*
X73710000Y-107460000D01*
X73710000Y-109540000D02*
X73710000Y-110199000D01*
X73750000Y-106848000D02*
X73750000Y-107460000D01*
X73750000Y-109540000D02*
X73750000Y-110152000D01*
X73790000Y-106896000D02*
X73790000Y-107460000D01*
X73790000Y-109540000D02*
X73790000Y-110104000D01*
X73830000Y-106947000D02*
X73830000Y-107460000D01*
X73830000Y-109540000D02*
X73830000Y-110053000D01*
X73870000Y-107001000D02*
X73870000Y-107460000D01*
X73870000Y-109540000D02*
X73870000Y-109999000D01*
X73910000Y-107057000D02*
X73910000Y-107460000D01*
X73910000Y-109540000D02*
X73910000Y-109943000D01*
X73950000Y-107117000D02*
X73950000Y-107460000D01*
X73950000Y-109540000D02*
X73950000Y-109883000D01*
X73990000Y-107181000D02*
X73990000Y-107460000D01*
X73990000Y-109540000D02*
X73990000Y-109819000D01*
X74030000Y-107249000D02*
X74030000Y-107460000D01*
X74030000Y-109540000D02*
X74030000Y-109751000D01*
X74070000Y-107323000D02*
X74070000Y-109677000D01*
X74110000Y-107402000D02*
X74110000Y-109598000D01*
X74150000Y-107489000D02*
X74150000Y-109511000D01*
X74190000Y-107586000D02*
X74190000Y-109414000D01*
X74230000Y-107695000D02*
X74230000Y-109305000D01*
X74270000Y-107823000D02*
X74270000Y-109177000D01*
X74310000Y-107983000D02*
X74310000Y-109017000D01*
X74350000Y-108217000D02*
X74350000Y-108783000D01*
X74370000Y-108500000D02*
G75*
G02*
X69130000Y-108500000I-2620000J0D01*
G01*
X69130000Y-108500000D02*
G75*
G02*
X74370000Y-108500000I2620000J0D01*
G01*
%TO.C,C8*%
X43238748Y-105265000D02*
X43761252Y-105265000D01*
X43238748Y-106735000D02*
X43761252Y-106735000D01*
%TO.C,U5*%
X55940000Y-107440000D02*
X60060000Y-107440000D01*
X55940000Y-107535000D02*
X55940000Y-107440000D01*
X55940000Y-112560000D02*
X55940000Y-112465000D01*
X60060000Y-107440000D02*
X60060000Y-107535000D01*
X60060000Y-112465000D02*
X60060000Y-112560000D01*
X60060000Y-112560000D02*
X55940000Y-112560000D01*
X55400000Y-107530000D02*
X55160000Y-107200000D01*
X55640000Y-107200000D01*
X55400000Y-107530000D01*
G36*
X55400000Y-107530000D02*
G01*
X55160000Y-107200000D01*
X55640000Y-107200000D01*
X55400000Y-107530000D01*
G37*
%TO.C,D1*%
X29315000Y-121040000D02*
X29315000Y-122960000D01*
X29315000Y-122960000D02*
X32000000Y-122960000D01*
X32000000Y-121040000D02*
X29315000Y-121040000D01*
%TO.C,USB1*%
X25010000Y-99830000D02*
X25460000Y-99830000D01*
X25460000Y-91830000D02*
X25460000Y-92130000D01*
X25460000Y-92130000D02*
X25010000Y-92130000D01*
X25460000Y-99830000D02*
X25460000Y-100130000D01*
X25460000Y-100130000D02*
X25610000Y-100130000D01*
X25610000Y-91830000D02*
X25460000Y-91830000D01*
X28010000Y-100130000D02*
X29410000Y-100130000D01*
X29410000Y-91830000D02*
X28010000Y-91830000D01*
X31160000Y-94180000D02*
X31160000Y-93180000D01*
X31160000Y-97780000D02*
X31160000Y-98780000D01*
X31585000Y-94180000D02*
X31160000Y-94180000D01*
X31585000Y-94905000D02*
X31585000Y-94180000D01*
%TO.C,C6*%
X29738748Y-105265000D02*
X30261252Y-105265000D01*
X29738748Y-106735000D02*
X30261252Y-106735000D01*
%TO.C,R6*%
X60265000Y-126727064D02*
X60265000Y-126272936D01*
X61735000Y-126727064D02*
X61735000Y-126272936D01*
%TO.C,C1*%
X44765000Y-96761252D02*
X44765000Y-96238748D01*
X46235000Y-96761252D02*
X46235000Y-96238748D01*
%TO.C,U1*%
X49150000Y-93090000D02*
X52910000Y-93090000D01*
X49150000Y-99910000D02*
X52910000Y-99910000D01*
X52910000Y-93090000D02*
X52910000Y-94350000D01*
X52910000Y-99910000D02*
X52910000Y-98650000D01*
X47870000Y-93190000D02*
X47630000Y-92860000D01*
X48110000Y-92860000D01*
X47870000Y-93190000D01*
G36*
X47870000Y-93190000D02*
G01*
X47630000Y-92860000D01*
X48110000Y-92860000D01*
X47870000Y-93190000D01*
G37*
%TO.C,J5*%
D10*
X51690000Y-131090000D02*
X56700000Y-131090000D01*
X56700000Y-139300000D01*
X51690000Y-139300000D01*
X51690000Y-131090000D01*
%TD*%
%LPC*%
D13*
%TO.C,J8*%
X67980000Y-122080000D03*
X70520000Y-122080000D03*
X73060000Y-122080000D03*
X67980000Y-119540000D03*
X70520000Y-119540000D03*
X73060000Y-119540000D03*
%TD*%
D14*
%TO.C,U3*%
X36610000Y-105770000D03*
D15*
X34297500Y-107270000D03*
X34297500Y-106770000D03*
X34297500Y-106270000D03*
X34297500Y-105770000D03*
X34297500Y-105270000D03*
X34297500Y-104770000D03*
X34297500Y-104270000D03*
D16*
X35110000Y-103457500D03*
X35610000Y-103457500D03*
X36110000Y-103457500D03*
X36610000Y-103457500D03*
X37110000Y-103457500D03*
X37610000Y-103457500D03*
X38110000Y-103457500D03*
D15*
X38922500Y-104270000D03*
X38922500Y-104770000D03*
X38922500Y-105270000D03*
X38922500Y-105770000D03*
X38922500Y-106270000D03*
X38922500Y-106770000D03*
X38922500Y-107270000D03*
D16*
X38110000Y-108082500D03*
X37610000Y-108082500D03*
X37110000Y-108082500D03*
X36610000Y-108082500D03*
X36110000Y-108082500D03*
X35610000Y-108082500D03*
X35110000Y-108082500D03*
%TD*%
D17*
%TO.C,SW2*%
X35670000Y-95000000D03*
D13*
X37850000Y-95000000D03*
X39850000Y-95000000D03*
X41850000Y-95000000D03*
D17*
X43970000Y-95000000D03*
%TD*%
D18*
%TO.C,C4*%
X71500000Y-97450000D03*
X71500000Y-95550000D03*
%TD*%
D19*
%TO.C,C11*%
X66300000Y-113000000D03*
D20*
X68800000Y-113000000D03*
%TD*%
D21*
%TO.C,C3*%
X61500000Y-97450000D03*
X61500000Y-95550000D03*
%TD*%
D13*
%TO.C,J6*%
X64040000Y-137630000D03*
X64040000Y-135090000D03*
X64040000Y-132550000D03*
X61500000Y-132550000D03*
X61500000Y-135090000D03*
X61500000Y-137630000D03*
%TD*%
D22*
%TO.C,R1*%
X31000000Y-127412500D03*
X31000000Y-125587500D03*
%TD*%
D23*
%TO.C,C7*%
X29050000Y-112000000D03*
X30950000Y-112000000D03*
%TD*%
D24*
%TO.C,R3*%
X43000000Y-127412500D03*
X43000000Y-125587500D03*
%TD*%
D25*
%TO.C,R8*%
X52000000Y-112912500D03*
X52000000Y-111087500D03*
%TD*%
D26*
%TO.C,J1*%
X30000000Y-132000000D03*
D27*
X30000000Y-134540000D03*
X30000000Y-137080000D03*
%TD*%
D21*
%TO.C,C2*%
X56500000Y-97450000D03*
X56500000Y-95550000D03*
%TD*%
D13*
%TO.C,J7*%
X67980000Y-104080000D03*
X70520000Y-104080000D03*
X73060000Y-104080000D03*
X67980000Y-101540000D03*
X70520000Y-101540000D03*
X73060000Y-101540000D03*
%TD*%
D21*
%TO.C,C9*%
X42550000Y-112000000D03*
X44450000Y-112000000D03*
%TD*%
D28*
%TO.C,D3*%
X42062500Y-122000000D03*
X43937500Y-122000000D03*
%TD*%
D29*
%TO.C,D5*%
X54062500Y-122000000D03*
X55937500Y-122000000D03*
%TD*%
%TO.C,D4*%
X48062500Y-122000000D03*
X49937500Y-122000000D03*
%TD*%
D30*
%TO.C,U2*%
X65362500Y-95550000D03*
X65362500Y-96500000D03*
X65362500Y-97450000D03*
X67637500Y-97450000D03*
X67637500Y-96500000D03*
X67637500Y-95550000D03*
%TD*%
D24*
%TO.C,R4*%
X49000000Y-127412500D03*
X49000000Y-125587500D03*
%TD*%
D28*
%TO.C,D2*%
X36062500Y-122000000D03*
X37937500Y-122000000D03*
%TD*%
D26*
%TO.C,J4*%
X48000000Y-134000000D03*
D27*
X48000000Y-136540000D03*
%TD*%
D22*
%TO.C,R2*%
X37000000Y-127412500D03*
X37000000Y-125587500D03*
%TD*%
D18*
%TO.C,C5*%
X65550000Y-102500000D03*
X67450000Y-102500000D03*
%TD*%
D31*
%TO.C,R7*%
X52000000Y-106912500D03*
X52000000Y-105087500D03*
%TD*%
D24*
%TO.C,R5*%
X55000000Y-127412500D03*
X55000000Y-125587500D03*
%TD*%
D26*
%TO.C,J3*%
X40000000Y-127500000D03*
D27*
X40000000Y-130040000D03*
X40000000Y-132580000D03*
X40000000Y-135120000D03*
X40000000Y-137660000D03*
%TD*%
D29*
%TO.C,D6*%
X60062500Y-122000000D03*
X61937500Y-122000000D03*
%TD*%
D32*
%TO.C,C10*%
X70500000Y-108500000D03*
D20*
X73000000Y-108500000D03*
%TD*%
D33*
%TO.C,C8*%
X42550000Y-106000000D03*
X44450000Y-106000000D03*
%TD*%
D34*
%TO.C,U5*%
X55425000Y-108095000D03*
X55425000Y-109365000D03*
X55425000Y-110635000D03*
X55425000Y-111905000D03*
X60575000Y-111905000D03*
X60575000Y-110635000D03*
X60575000Y-109365000D03*
X60575000Y-108095000D03*
%TD*%
D28*
%TO.C,D1*%
X30062500Y-122000000D03*
X31937500Y-122000000D03*
%TD*%
D35*
%TO.C,USB1*%
X29560000Y-93480000D03*
X29560000Y-98480000D03*
D36*
X30660000Y-94680000D03*
X30660000Y-95330000D03*
X30660000Y-95980000D03*
X30660000Y-96630000D03*
X30660000Y-97280000D03*
D37*
X30610000Y-99705000D03*
D38*
X26810000Y-99855000D03*
X26810000Y-92105000D03*
D37*
X30610000Y-92255000D03*
%TD*%
D18*
%TO.C,C6*%
X29050000Y-106000000D03*
X30950000Y-106000000D03*
%TD*%
D24*
%TO.C,R6*%
X61000000Y-127412500D03*
X61000000Y-125587500D03*
%TD*%
D23*
%TO.C,C1*%
X45500000Y-97450000D03*
X45500000Y-95550000D03*
%TD*%
D39*
%TO.C,U1*%
X47850000Y-94200000D03*
X47850000Y-96500000D03*
D40*
X54150000Y-96500000D03*
D39*
X47850000Y-98800000D03*
%TD*%
D13*
%TO.C,J5*%
X55540000Y-137630000D03*
X55540000Y-135090000D03*
X55540000Y-132550000D03*
X53000000Y-132550000D03*
X53000000Y-135090000D03*
X53000000Y-137630000D03*
%TD*%
%LPD*%
M02*
