%TF.GenerationSoftware,KiCad,Pcbnew,10.0.6-10.0.6~ubuntu26.04.1*%
%TF.CreationDate,2026-09-08T19:53:41+07:00*%
%TF.ProjectId,lab8,6c616238-2e6b-4696-9361-645f70636258,Rev 2.0 - DRC Zero Errors*%
%TF.SameCoordinates,Original*%
%TF.FileFunction,Soldermask,Top*%
%TF.FilePolarity,Negative*%
%FSLAX46Y46*%
G04 Gerber Fmt 4.6, Leading zero omitted, Abs format (unit mm)*
G04 Created by KiCad (PCBNEW 10.0.6-10.0.6~ubuntu26.04.1) date 2026-09-08 19:53:41*
%MOMM*%
%LPD*%
G01*
G04 APERTURE LIST*
G04 Aperture macros list*
%AMRoundRect*
0 Rectangle with rounded corners*
0 $1 Rounding radius*
0 $2 $3 $4 $5 $6 $7 $8 $9 X,Y pos of 4 corners*
0 Add a 4 corners polygon primitive as box body*
4,1,4,$2,$3,$4,$5,$6,$7,$8,$9,$2,$3,0*
0 Add four circle primitives for the rounded corners*
1,1,$1+$1,$2,$3*
1,1,$1+$1,$4,$5*
1,1,$1+$1,$6,$7*
1,1,$1+$1,$8,$9*
0 Add four rect primitives between the rounded corners*
20,1,$1+$1,$2,$3,$4,$5,0*
20,1,$1+$1,$4,$5,$6,$7,0*
20,1,$1+$1,$6,$7,$8,$9,0*
20,1,$1+$1,$8,$9,$2,$3,0*%
G04 Aperture macros list end*
%ADD10C,1.650000*%
%ADD11R,2.700000X2.700000*%
%ADD12RoundRect,0.062500X-0.475000X-0.062500X0.475000X-0.062500X0.475000X0.062500X-0.475000X0.062500X0*%
%ADD13RoundRect,0.062500X-0.062500X-0.475000X0.062500X-0.475000X0.062500X0.475000X-0.062500X0.475000X0*%
%ADD14R,1.650000X2.500000*%
%ADD15RoundRect,0.250000X0.475000X-0.250000X0.475000X0.250000X-0.475000X0.250000X-0.475000X-0.250000X0*%
%ADD16RoundRect,0.250000X-0.550000X0.550000X-0.550000X-0.550000X0.550000X-0.550000X0.550000X0.550000X0*%
%ADD17C,1.600000*%
%ADD18RoundRect,0.250000X-0.250000X-0.475000X0.250000X-0.475000X0.250000X0.475000X-0.250000X0.475000X0*%
%ADD19RoundRect,0.250000X-0.262500X-0.450000X0.262500X-0.450000X0.262500X0.450000X-0.262500X0.450000X0*%
%ADD20RoundRect,0.250000X-0.475000X0.250000X-0.475000X-0.250000X0.475000X-0.250000X0.475000X0.250000X0*%
%ADD21RoundRect,0.250000X0.262500X0.450000X-0.262500X0.450000X-0.262500X-0.450000X0.262500X-0.450000X0*%
%ADD22RoundRect,0.250000X-0.450000X0.262500X-0.450000X-0.262500X0.450000X-0.262500X0.450000X0.262500X0*%
%ADD23R,1.700000X1.700000*%
%ADD24C,1.700000*%
%ADD25RoundRect,0.243750X0.243750X0.456250X-0.243750X0.456250X-0.243750X-0.456250X0.243750X-0.456250X0*%
%ADD26RoundRect,0.243750X-0.243750X-0.456250X0.243750X-0.456250X0.243750X0.456250X-0.243750X0.456250X0*%
%ADD27RoundRect,0.150000X0.150000X-0.512500X0.150000X0.512500X-0.150000X0.512500X-0.150000X-0.512500X0*%
%ADD28RoundRect,0.250000X0.450000X-0.262500X0.450000X0.262500X-0.450000X0.262500X-0.450000X-0.262500X0*%
%ADD29RoundRect,0.250000X0.550000X0.550000X-0.550000X0.550000X-0.550000X-0.550000X0.550000X-0.550000X0*%
%ADD30RoundRect,0.250000X0.250000X0.475000X-0.250000X0.475000X-0.250000X-0.475000X0.250000X-0.475000X0*%
%ADD31RoundRect,0.150000X0.150000X-0.725000X0.150000X0.725000X-0.150000X0.725000X-0.150000X-0.725000X0*%
%ADD32O,0.800000X0.800000*%
%ADD33RoundRect,0.112500X0.112500X0.537500X-0.112500X0.537500X-0.112500X-0.537500X0.112500X-0.537500X0*%
%ADD34O,1.450000X2.000000*%
%ADD35O,1.150000X1.800000*%
%ADD36RoundRect,0.375000X-0.625000X-0.375000X0.625000X-0.375000X0.625000X0.375000X-0.625000X0.375000X0*%
%ADD37RoundRect,0.500000X-0.500000X-1.400000X0.500000X-1.400000X0.500000X1.400000X-0.500000X1.400000X0*%
G04 APERTURE END LIST*
D10*
%TO.C,J8*%
X67980000Y-122080000D03*
X70520000Y-122080000D03*
X73060000Y-122080000D03*
X67980000Y-119540000D03*
X70520000Y-119540000D03*
X73060000Y-119540000D03*
%TD*%
D11*
%TO.C,U3*%
X36610000Y-105770000D03*
D12*
X34297500Y-107270000D03*
X34297500Y-106770000D03*
X34297500Y-106270000D03*
X34297500Y-105770000D03*
X34297500Y-105270000D03*
X34297500Y-104770000D03*
X34297500Y-104270000D03*
D13*
X35110000Y-103457500D03*
X35610000Y-103457500D03*
X36110000Y-103457500D03*
X36610000Y-103457500D03*
X37110000Y-103457500D03*
X37610000Y-103457500D03*
X38110000Y-103457500D03*
D12*
X38922500Y-104270000D03*
X38922500Y-104770000D03*
X38922500Y-105270000D03*
X38922500Y-105770000D03*
X38922500Y-106270000D03*
X38922500Y-106770000D03*
X38922500Y-107270000D03*
D13*
X38110000Y-108082500D03*
X37610000Y-108082500D03*
X37110000Y-108082500D03*
X36610000Y-108082500D03*
X36110000Y-108082500D03*
X35610000Y-108082500D03*
X35110000Y-108082500D03*
%TD*%
D14*
%TO.C,SW2*%
X35670000Y-95000000D03*
D10*
X37850000Y-95000000D03*
X39850000Y-95000000D03*
X41850000Y-95000000D03*
D14*
X43970000Y-95000000D03*
%TD*%
D15*
%TO.C,C4*%
X71500000Y-97450000D03*
X71500000Y-95550000D03*
%TD*%
D16*
%TO.C,C11*%
X66300000Y-113000000D03*
D17*
X68800000Y-113000000D03*
%TD*%
D18*
%TO.C,C3*%
X61500000Y-97450000D03*
X61500000Y-95550000D03*
%TD*%
D10*
%TO.C,J6*%
X64040000Y-137630000D03*
X64040000Y-135090000D03*
X64040000Y-132550000D03*
X61500000Y-132550000D03*
X61500000Y-135090000D03*
X61500000Y-137630000D03*
%TD*%
D19*
%TO.C,R1*%
X31000000Y-127412500D03*
X31000000Y-125587500D03*
%TD*%
D20*
%TO.C,C7*%
X29050000Y-112000000D03*
X30950000Y-112000000D03*
%TD*%
D21*
%TO.C,R3*%
X43000000Y-127412500D03*
X43000000Y-125587500D03*
%TD*%
D22*
%TO.C,R8*%
X52000000Y-112912500D03*
X52000000Y-111087500D03*
%TD*%
D23*
%TO.C,J1*%
X30000000Y-132000000D03*
D24*
X30000000Y-134540000D03*
X30000000Y-137080000D03*
%TD*%
D18*
%TO.C,C2*%
X56500000Y-97450000D03*
X56500000Y-95550000D03*
%TD*%
D10*
%TO.C,J7*%
X67980000Y-104080000D03*
X70520000Y-104080000D03*
X73060000Y-104080000D03*
X67980000Y-101540000D03*
X70520000Y-101540000D03*
X73060000Y-101540000D03*
%TD*%
D18*
%TO.C,C9*%
X42550000Y-112000000D03*
X44450000Y-112000000D03*
%TD*%
D25*
%TO.C,D3*%
X42062500Y-122000000D03*
X43937500Y-122000000D03*
%TD*%
D26*
%TO.C,D5*%
X54062500Y-122000000D03*
X55937500Y-122000000D03*
%TD*%
%TO.C,D4*%
X48062500Y-122000000D03*
X49937500Y-122000000D03*
%TD*%
D27*
%TO.C,U2*%
X65362500Y-95550000D03*
X65362500Y-96500000D03*
X65362500Y-97450000D03*
X67637500Y-97450000D03*
X67637500Y-96500000D03*
X67637500Y-95550000D03*
%TD*%
D21*
%TO.C,R4*%
X49000000Y-127412500D03*
X49000000Y-125587500D03*
%TD*%
D25*
%TO.C,D2*%
X36062500Y-122000000D03*
X37937500Y-122000000D03*
%TD*%
D23*
%TO.C,J4*%
X48000000Y-134000000D03*
D24*
X48000000Y-136540000D03*
%TD*%
D19*
%TO.C,R2*%
X37000000Y-127412500D03*
X37000000Y-125587500D03*
%TD*%
D15*
%TO.C,C5*%
X65550000Y-102500000D03*
X67450000Y-102500000D03*
%TD*%
D28*
%TO.C,R7*%
X52000000Y-106912500D03*
X52000000Y-105087500D03*
%TD*%
D21*
%TO.C,R5*%
X55000000Y-127412500D03*
X55000000Y-125587500D03*
%TD*%
D23*
%TO.C,J3*%
X40000000Y-127500000D03*
D24*
X40000000Y-130040000D03*
X40000000Y-132580000D03*
X40000000Y-135120000D03*
X40000000Y-137660000D03*
%TD*%
D26*
%TO.C,D6*%
X60062500Y-122000000D03*
X61937500Y-122000000D03*
%TD*%
D29*
%TO.C,C10*%
X70500000Y-108500000D03*
D17*
X73000000Y-108500000D03*
%TD*%
D30*
%TO.C,C8*%
X42550000Y-106000000D03*
X44450000Y-106000000D03*
%TD*%
D31*
%TO.C,U5*%
X55425000Y-108095000D03*
X55425000Y-109365000D03*
X55425000Y-110635000D03*
X55425000Y-111905000D03*
X60575000Y-111905000D03*
X60575000Y-110635000D03*
X60575000Y-109365000D03*
X60575000Y-108095000D03*
%TD*%
D25*
%TO.C,D1*%
X30062500Y-122000000D03*
X31937500Y-122000000D03*
%TD*%
D32*
%TO.C,USB1*%
X29560000Y-93480000D03*
X29560000Y-98480000D03*
D33*
X30660000Y-94680000D03*
X30660000Y-95330000D03*
X30660000Y-95980000D03*
X30660000Y-96630000D03*
X30660000Y-97280000D03*
D34*
X30610000Y-99705000D03*
D35*
X26810000Y-99855000D03*
X26810000Y-92105000D03*
D34*
X30610000Y-92255000D03*
%TD*%
D15*
%TO.C,C6*%
X29050000Y-106000000D03*
X30950000Y-106000000D03*
%TD*%
D21*
%TO.C,R6*%
X61000000Y-127412500D03*
X61000000Y-125587500D03*
%TD*%
D20*
%TO.C,C1*%
X45500000Y-97450000D03*
X45500000Y-95550000D03*
%TD*%
D36*
%TO.C,U1*%
X47850000Y-94200000D03*
X47850000Y-96500000D03*
D37*
X54150000Y-96500000D03*
D36*
X47850000Y-98800000D03*
%TD*%
D10*
%TO.C,J5*%
X55540000Y-137630000D03*
X55540000Y-135090000D03*
X55540000Y-132550000D03*
X53000000Y-132550000D03*
X53000000Y-135090000D03*
X53000000Y-137630000D03*
%TD*%
M02*
