%TF.GenerationSoftware,KiCad,Pcbnew,10.0.6-10.0.6~ubuntu26.04.1*%
%TF.CreationDate,2026-09-01T15:11:08+07:00*%
%TF.ProjectId,USB_TypeC_TP4056_Charger,5553425f-5479-4706-9543-5f5450343035,rev?*%
%TF.SameCoordinates,Original*%
%TF.FileFunction,Copper,L1,Top*%
%TF.FilePolarity,Positive*%
%FSLAX46Y46*%
G04 Gerber Fmt 4.6, Leading zero omitted, Abs format (unit mm)*
G04 Created by KiCad (PCBNEW 10.0.6-10.0.6~ubuntu26.04.1) date 2026-09-01 15:11:08*
%MOMM*%
%LPD*%
G01*
G04 APERTURE LIST*
G04 Aperture macros list*
%AMRoundRect*
0 Rectangle with rounded corners*
0 $1 Rounding radius*
0 $2 $3 $4 $5 $6 $7 $8 $9 X,Y pos of 4 corners*
0 Add a 4 corners polygon primitive as box body*
4,1,4,$2,$3,$4,$5,$6,$7,$8,$9,$2,$3,0*
0 Add four circle primitives for the rounded corners*
1,1,$1+$1,$2,$3*
1,1,$1+$1,$4,$5*
1,1,$1+$1,$6,$7*
1,1,$1+$1,$8,$9*
0 Add four rect primitives between the rounded corners*
20,1,$1+$1,$2,$3,$4,$5,0*
20,1,$1+$1,$4,$5,$6,$7,0*
20,1,$1+$1,$6,$7,$8,$9,0*
20,1,$1+$1,$8,$9,$2,$3,0*%
G04 Aperture macros list end*
%TA.AperFunction,SMDPad,CuDef*%
%ADD10RoundRect,0.250000X-0.262500X-0.450000X0.262500X-0.450000X0.262500X0.450000X-0.262500X0.450000X0*%
%TD*%
%TA.AperFunction,SMDPad,CuDef*%
%ADD11RoundRect,0.250000X-0.250000X-0.475000X0.250000X-0.475000X0.250000X0.475000X-0.250000X0.475000X0*%
%TD*%
%TA.AperFunction,SMDPad,CuDef*%
%ADD12RoundRect,0.243750X0.456250X-0.243750X0.456250X0.243750X-0.456250X0.243750X-0.456250X-0.243750X0*%
%TD*%
%TA.AperFunction,SMDPad,CuDef*%
%ADD13RoundRect,0.250000X0.450000X-0.262500X0.450000X0.262500X-0.450000X0.262500X-0.450000X-0.262500X0*%
%TD*%
%TA.AperFunction,SMDPad,CuDef*%
%ADD14RoundRect,0.100000X-0.575000X-0.100000X0.575000X-0.100000X0.575000X0.100000X-0.575000X0.100000X0*%
%TD*%
%TA.AperFunction,SMDPad,CuDef*%
%ADD15R,0.300000X1.100000*%
%TD*%
%TA.AperFunction,ComponentPad*%
%ADD16O,1.000000X2.000000*%
%TD*%
%TA.AperFunction,SMDPad,CuDef*%
%ADD17RoundRect,0.150000X-0.600000X-0.150000X0.600000X-0.150000X0.600000X0.150000X-0.600000X0.150000X0*%
%TD*%
%TA.AperFunction,ComponentPad*%
%ADD18C,0.600000*%
%TD*%
%TA.AperFunction,SMDPad,CuDef*%
%ADD19RoundRect,0.572500X-0.572500X-0.927500X0.572500X-0.927500X0.572500X0.927500X-0.572500X0.927500X0*%
%TD*%
%TA.AperFunction,SMDPad,CuDef*%
%ADD20RoundRect,0.250000X0.475000X-0.250000X0.475000X0.250000X-0.475000X0.250000X-0.475000X-0.250000X0*%
%TD*%
%TA.AperFunction,SMDPad,CuDef*%
%ADD21RoundRect,0.300000X-0.300000X-0.300000X0.300000X-0.300000X0.300000X0.300000X-0.300000X0.300000X0*%
%TD*%
%TA.AperFunction,SMDPad,CuDef*%
%ADD22RoundRect,0.150000X-0.350000X-0.150000X0.350000X-0.150000X0.350000X0.150000X-0.350000X0.150000X0*%
%TD*%
%TA.AperFunction,ViaPad*%
%ADD23C,0.800000*%
%TD*%
%TA.AperFunction,Conductor*%
%ADD24C,0.800000*%
%TD*%
%TA.AperFunction,Conductor*%
%ADD25C,0.350000*%
%TD*%
G04 APERTURE END LIST*
D10*
%TO.P,R4,1*%
%TO.N,VBUS*%
X14687500Y-11200000D03*
%TO.P,R4,2*%
%TO.N,NET_R4_D1*%
X16512500Y-11200000D03*
%TD*%
D11*
%TO.P,C1,1*%
%TO.N,VBUS*%
X1450000Y-11200000D03*
%TO.P,C1,2*%
%TO.N,GND*%
X3350000Y-11200000D03*
%TD*%
D12*
%TO.P,D2,1*%
%TO.N,STDBY*%
X15600000Y-19537500D03*
%TO.P,D2,2*%
%TO.N,NET_R5_D2*%
X15600000Y-17662500D03*
%TD*%
D13*
%TO.P,R6,1*%
%TO.N,BAT_OUT*%
X2200000Y-21912500D03*
%TO.P,R6,2*%
%TO.N,DW_VCC*%
X2200000Y-20087500D03*
%TD*%
D14*
%TO.P,Q1,1*%
%TO.N,DW_D12*%
X10200000Y-22025000D03*
%TO.P,Q1,2*%
%TO.N,GND*%
X10200000Y-22675000D03*
%TO.P,Q1,3*%
%TO.N,BAT_MINUS*%
X10200000Y-23325000D03*
%TO.P,Q1,4*%
%TO.N,DW_OD*%
X10200000Y-23975000D03*
%TO.P,Q1,5*%
%TO.N,DW_OC*%
X15800000Y-23975000D03*
%TO.P,Q1,6*%
%TO.N,DW_D12*%
X15800000Y-23325000D03*
%TO.P,Q1,7*%
X15800000Y-22675000D03*
%TO.P,Q1,8*%
X15800000Y-22025000D03*
%TD*%
D10*
%TO.P,R7,1*%
%TO.N,DW_CS*%
X4287500Y-25400000D03*
%TO.P,R7,2*%
%TO.N,BAT_MINUS*%
X6112500Y-25400000D03*
%TD*%
%TO.P,R5,1*%
%TO.N,VBUS*%
X14687500Y-16200000D03*
%TO.P,R5,2*%
%TO.N,NET_R5_D2*%
X16512500Y-16200000D03*
%TD*%
D11*
%TO.P,C2,1*%
%TO.N,VBUS*%
X1450000Y-13800000D03*
%TO.P,C2,2*%
%TO.N,GND*%
X3350000Y-13800000D03*
%TD*%
D10*
%TO.P,R3,1*%
%TO.N,PROG*%
X1487500Y-16800000D03*
%TO.P,R3,2*%
%TO.N,GND*%
X3312500Y-16800000D03*
%TD*%
D15*
%TO.P,J1,A1*%
%TO.N,GND*%
X12250000Y-200000D03*
%TO.P,J1,A4*%
%TO.N,VBUS*%
X11750000Y-200000D03*
%TO.P,J1,A5*%
%TO.N,CC1*%
X11250000Y-200000D03*
%TO.P,J1,A6*%
%TO.N,N/C*%
X10750000Y-200000D03*
%TO.P,J1,A7*%
X10250000Y-200000D03*
%TO.P,J1,A9*%
%TO.N,VBUS*%
X9750000Y-200000D03*
%TO.P,J1,A12*%
%TO.N,GND*%
X9250000Y-200000D03*
%TO.P,J1,B1*%
X5750000Y-200000D03*
%TO.P,J1,B4*%
%TO.N,VBUS*%
X6250000Y-200000D03*
%TO.P,J1,B5*%
%TO.N,CC2*%
X6750000Y-200000D03*
%TO.P,J1,B6*%
%TO.N,N/C*%
X7250000Y-200000D03*
%TO.P,J1,B7*%
X7750000Y-200000D03*
%TO.P,J1,B9*%
%TO.N,VBUS*%
X8250000Y-200000D03*
%TO.P,J1,B12*%
%TO.N,GND*%
X8750000Y-200000D03*
D16*
%TO.P,J1,S1*%
X13300000Y-4200000D03*
X13300000Y-200000D03*
X4700000Y-4200000D03*
X4700000Y-200000D03*
%TD*%
D13*
%TO.P,R1,1*%
%TO.N,CC1*%
X4500000Y-8712500D03*
%TO.P,R1,2*%
%TO.N,GND*%
X4500000Y-6887500D03*
%TD*%
D12*
%TO.P,D1,1*%
%TO.N,CHRG*%
X15600000Y-14537500D03*
%TO.P,D1,2*%
%TO.N,NET_R4_D1*%
X15600000Y-12662500D03*
%TD*%
D17*
%TO.P,U1,1*%
%TO.N,GND*%
X6300000Y-11595000D03*
%TO.P,U1,2*%
%TO.N,PROG*%
X6300000Y-12865000D03*
%TO.P,U1,3*%
%TO.N,GND*%
X6300000Y-14135000D03*
%TO.P,U1,4*%
%TO.N,VBUS*%
X6300000Y-15405000D03*
%TO.P,U1,5*%
%TO.N,BAT_OUT*%
X11700000Y-15405000D03*
%TO.P,U1,6*%
%TO.N,STDBY*%
X11700000Y-14135000D03*
%TO.P,U1,7*%
%TO.N,CHRG*%
X11700000Y-12865000D03*
%TO.P,U1,8*%
%TO.N,VBUS*%
X11700000Y-11595000D03*
D18*
%TO.P,U1,9*%
%TO.N,GND*%
X8500000Y-13000000D03*
X8500000Y-14000000D03*
D19*
X9000000Y-13500000D03*
D18*
X9500000Y-13000000D03*
X9500000Y-14000000D03*
%TD*%
D20*
%TO.P,C4,1*%
%TO.N,DW_VCC*%
X2200000Y-24750000D03*
%TO.P,C4,2*%
%TO.N,GND*%
X2200000Y-22850000D03*
%TD*%
%TO.P,C3,1*%
%TO.N,BAT_OUT*%
X9000000Y-20150000D03*
%TO.P,C3,2*%
%TO.N,GND*%
X9000000Y-18250000D03*
%TD*%
D21*
%TO.P,J2,1*%
%TO.N,BAT_OUT*%
X8000000Y-26600000D03*
%TO.P,J2,2*%
%TO.N,BAT_MINUS*%
X10000000Y-26600000D03*
%TD*%
D22*
%TO.P,U2,1*%
%TO.N,DW_OD*%
X3900000Y-21550000D03*
%TO.P,U2,2*%
%TO.N,DW_CS*%
X3900000Y-22500000D03*
%TO.P,U2,3*%
%TO.N,DW_OC*%
X3900000Y-23450000D03*
%TO.P,U2,4*%
%TO.N,N/C*%
X6500000Y-23450000D03*
%TO.P,U2,5*%
%TO.N,DW_VCC*%
X6500000Y-22500000D03*
%TO.P,U2,6*%
%TO.N,GND*%
X6500000Y-21550000D03*
%TD*%
D13*
%TO.P,R2,1*%
%TO.N,CC2*%
X13500000Y-8712500D03*
%TO.P,R2,2*%
%TO.N,GND*%
X13500000Y-6887500D03*
%TD*%
D23*
%TO.N,GND*%
X3312500Y-16800000D03*
X10200000Y-22675000D03*
X6300000Y-11595000D03*
X4700000Y-200000D03*
X9000000Y-18250000D03*
X9250000Y-200000D03*
X3350000Y-11200000D03*
X5750000Y-200000D03*
X4700000Y-4200000D03*
X6300000Y-14135000D03*
X8750000Y-200000D03*
X13300000Y-4200000D03*
X3350000Y-13800000D03*
X4500000Y-6887500D03*
X2200000Y-22850000D03*
X13300000Y-200000D03*
X8500000Y-13000000D03*
X13500000Y-6887500D03*
X9500000Y-13000000D03*
X8500000Y-14000000D03*
X6500000Y-21550000D03*
X9000000Y-13500000D03*
X12250000Y-200000D03*
X9500000Y-14000000D03*
%TO.N,VBUS*%
X6000000Y-15400000D03*
X12000000Y-11500000D03*
%TD*%
%TO.N,VBUS*%
D24*
X8250000Y-200000D02*
X9750000Y-200000D01*
X12000000Y-11500000D02*
X11700000Y-11595000D01*
X6300000Y-15405000D02*
X6000000Y-15400000D01*
X8250000Y-200000D02*
X6250000Y-200000D01*
X6250000Y-200000D02*
X1450000Y-11200000D01*
D25*
X11700000Y-11595000D02*
X14687500Y-11200000D01*
D24*
X9750000Y-200000D02*
X11750000Y-200000D01*
X1450000Y-11200000D02*
X1450000Y-13800000D01*
X1450000Y-13800000D02*
X6300000Y-15405000D01*
D25*
X14687500Y-11200000D02*
X14687500Y-16200000D01*
%TO.N,BAT_OUT*%
X9000000Y-20150000D02*
X2200000Y-21912500D01*
D24*
X11700000Y-15405000D02*
X9000000Y-20150000D01*
X9000000Y-20150000D02*
X8000000Y-26600000D01*
%TO.N,BAT_MINUS*%
X6112500Y-25400000D02*
X10200000Y-23325000D01*
X10200000Y-23325000D02*
X10000000Y-26600000D01*
%TO.N,CC1*%
D25*
X11250000Y-200000D02*
X4500000Y-8712500D01*
%TO.N,CC2*%
X6750000Y-200000D02*
X13500000Y-8712500D01*
%TO.N,CHRG*%
X15600000Y-14537500D02*
X11700000Y-12865000D01*
%TO.N,STDBY*%
X15600000Y-19537500D02*
X11700000Y-14135000D01*
%TO.N,PROG*%
X1487500Y-16800000D02*
X6300000Y-12865000D01*
%TO.N,DW_VCC*%
X2200000Y-24750000D02*
X6500000Y-22500000D01*
X2200000Y-20087500D02*
X2200000Y-24750000D01*
%TO.N,DW_CS*%
X3900000Y-22500000D02*
X4287500Y-25400000D01*
%TO.N,DW_OD*%
X3900000Y-21550000D02*
X10200000Y-23975000D01*
%TO.N,DW_OC*%
X3900000Y-23450000D02*
X15800000Y-23975000D01*
%TO.N,NET_R4_D1*%
X16512500Y-11200000D02*
X15600000Y-12662500D01*
%TO.N,NET_R5_D2*%
X16512500Y-16200000D02*
X15600000Y-17662500D01*
%TO.N,DW_D12*%
D24*
X15800000Y-22025000D02*
X15800000Y-22675000D01*
X15800000Y-22675000D02*
X15800000Y-23325000D01*
X10200000Y-22025000D02*
X15800000Y-22025000D01*
%TD*%
%TA.AperFunction,Conductor*%
%TO.N,GND*%
G36*
X7825166Y-21172662D02*
G01*
X7882706Y-21212297D01*
X7909683Y-21276749D01*
X7908980Y-21309459D01*
X7777475Y-22157667D01*
X7747752Y-22220899D01*
X7688561Y-22258024D01*
X7618696Y-22257254D01*
X7610395Y-22254392D01*
X7543051Y-22228470D01*
X7487558Y-22186017D01*
X7468519Y-22147343D01*
X7451744Y-22089602D01*
X7368081Y-21948135D01*
X7281195Y-21861249D01*
X7247712Y-21799929D01*
X7246405Y-21754168D01*
X7250000Y-21731475D01*
X7250000Y-21725000D01*
X7047998Y-21725000D01*
X7039550Y-21722519D01*
X7030842Y-21723807D01*
X7013404Y-21720076D01*
X6987781Y-21712632D01*
X6952570Y-21702402D01*
X6952567Y-21702401D01*
X6915701Y-21699500D01*
X6915694Y-21699500D01*
X6686719Y-21699500D01*
X6619680Y-21679815D01*
X6573925Y-21627011D01*
X6563981Y-21557853D01*
X6593006Y-21494297D01*
X6651784Y-21456523D01*
X6655568Y-21455476D01*
X6950759Y-21378965D01*
X6981869Y-21375000D01*
X7249999Y-21375000D01*
X7259295Y-21365703D01*
X7269684Y-21330324D01*
X7322488Y-21284569D01*
X7342879Y-21277331D01*
X7755333Y-21170427D01*
X7825166Y-21172662D01*
G37*
%TD.AperFunction*%
%TA.AperFunction,Conductor*%
G36*
X3893039Y-219685D02*
G01*
X3938794Y-272489D01*
X3950000Y-324000D01*
X3950000Y-773873D01*
X3978820Y-918759D01*
X3978822Y-918767D01*
X4035357Y-1055254D01*
X4035362Y-1055264D01*
X4117436Y-1178096D01*
X4117439Y-1178100D01*
X4221899Y-1282560D01*
X4221903Y-1282563D01*
X4344735Y-1364637D01*
X4344745Y-1364642D01*
X4481232Y-1421177D01*
X4481240Y-1421179D01*
X4563327Y-1437508D01*
X4625238Y-1469893D01*
X4659812Y-1530608D01*
X4656073Y-1600378D01*
X4652787Y-1608718D01*
X1011437Y-9953474D01*
X966583Y-10007046D01*
X936792Y-10021586D01*
X880668Y-10040184D01*
X731342Y-10132289D01*
X607289Y-10256342D01*
X515187Y-10405663D01*
X515186Y-10405666D01*
X460001Y-10572203D01*
X460001Y-10572204D01*
X460000Y-10572204D01*
X449500Y-10674983D01*
X449500Y-11725001D01*
X449501Y-11725019D01*
X460000Y-11827796D01*
X460001Y-11827799D01*
X512693Y-11986812D01*
X515186Y-11994334D01*
X531039Y-12020036D01*
X549500Y-12085132D01*
X549500Y-12914867D01*
X531040Y-12979961D01*
X515187Y-13005663D01*
X515186Y-13005665D01*
X501757Y-13046191D01*
X460001Y-13172203D01*
X460001Y-13172204D01*
X460000Y-13172204D01*
X449500Y-13274983D01*
X449500Y-14325001D01*
X449501Y-14325019D01*
X460000Y-14427796D01*
X460001Y-14427799D01*
X515185Y-14594331D01*
X515187Y-14594336D01*
X521456Y-14604500D01*
X607288Y-14743656D01*
X731344Y-14867712D01*
X880666Y-14959814D01*
X1047203Y-15014999D01*
X1149991Y-15025500D01*
X1750008Y-15025499D01*
X1750016Y-15025498D01*
X1750019Y-15025498D01*
X1806302Y-15019748D01*
X1852797Y-15014999D01*
X2014900Y-14961282D01*
X2084728Y-14958881D01*
X2092861Y-14961268D01*
X2288877Y-15026135D01*
X2346338Y-15065884D01*
X2373187Y-15130389D01*
X2360899Y-15199170D01*
X2328412Y-15239851D01*
X1918593Y-15574945D01*
X1854234Y-15602142D01*
X1827499Y-15602308D01*
X1800011Y-15599500D01*
X1174998Y-15599500D01*
X1174980Y-15599501D01*
X1072203Y-15610000D01*
X1072200Y-15610001D01*
X905668Y-15665185D01*
X905663Y-15665187D01*
X756342Y-15757289D01*
X632289Y-15881342D01*
X540187Y-16030663D01*
X540186Y-16030666D01*
X485001Y-16197203D01*
X485001Y-16197204D01*
X485000Y-16197204D01*
X474500Y-16299983D01*
X474500Y-17300001D01*
X474501Y-17300019D01*
X485000Y-17402796D01*
X485001Y-17402799D01*
X522175Y-17514981D01*
X540186Y-17569334D01*
X632288Y-17718656D01*
X756344Y-17842712D01*
X905666Y-17934814D01*
X1072203Y-17989999D01*
X1174991Y-18000500D01*
X1800008Y-18000499D01*
X1800016Y-18000498D01*
X1800019Y-18000498D01*
X1856302Y-17994748D01*
X1902797Y-17989999D01*
X2017002Y-17952155D01*
X8025000Y-17952155D01*
X8025000Y-18075000D01*
X8825000Y-18075000D01*
X8825000Y-17500000D01*
X8477155Y-17500000D01*
X8417627Y-17506401D01*
X8417620Y-17506403D01*
X8282913Y-17556645D01*
X8282906Y-17556649D01*
X8167812Y-17642809D01*
X8167809Y-17642812D01*
X8081649Y-17757906D01*
X8081645Y-17757913D01*
X8031403Y-17892620D01*
X8031401Y-17892627D01*
X8025000Y-17952155D01*
X2017002Y-17952155D01*
X2069334Y-17934814D01*
X2218656Y-17842712D01*
X2342712Y-17718656D01*
X2434814Y-17569334D01*
X2434817Y-17569323D01*
X2435428Y-17568016D01*
X2436090Y-17567262D01*
X2438605Y-17563187D01*
X2439301Y-17563616D01*
X2481596Y-17515573D01*
X2548788Y-17496416D01*
X2615671Y-17516626D01*
X2647081Y-17546101D01*
X2692813Y-17607190D01*
X2807906Y-17693350D01*
X2807913Y-17693354D01*
X2942620Y-17743596D01*
X2942627Y-17743598D01*
X3002155Y-17749999D01*
X3002172Y-17750000D01*
X3137500Y-17750000D01*
X3487500Y-17750000D01*
X3622828Y-17750000D01*
X3622844Y-17749999D01*
X3682372Y-17743598D01*
X3682379Y-17743596D01*
X3817086Y-17693354D01*
X3817093Y-17693350D01*
X3932187Y-17607190D01*
X3932190Y-17607187D01*
X4018350Y-17492093D01*
X4018354Y-17492086D01*
X4068596Y-17357379D01*
X4068598Y-17357372D01*
X4074999Y-17297844D01*
X4075000Y-17297827D01*
X4075000Y-16975000D01*
X3487500Y-16975000D01*
X3487500Y-17750000D01*
X3137500Y-17750000D01*
X3137500Y-16924000D01*
X3157185Y-16856961D01*
X3209989Y-16811206D01*
X3213761Y-16809558D01*
X3312500Y-16768369D01*
X3312500Y-16749000D01*
X3332185Y-16681961D01*
X3384989Y-16636206D01*
X3436500Y-16625000D01*
X4075000Y-16625000D01*
X4075000Y-16302172D01*
X4074999Y-16302155D01*
X4068598Y-16242627D01*
X4068596Y-16242620D01*
X4018354Y-16107913D01*
X4018350Y-16107906D01*
X3932190Y-15992812D01*
X3855254Y-15935217D01*
X3813384Y-15879283D01*
X3808400Y-15809591D01*
X3841886Y-15748269D01*
X3851045Y-15739981D01*
X3969707Y-15642956D01*
X4034060Y-15615762D01*
X4087146Y-15621232D01*
X5193838Y-15987468D01*
X5242559Y-16017505D01*
X5298135Y-16073081D01*
X5439602Y-16156744D01*
X5551259Y-16189183D01*
X5567731Y-16195893D01*
X5567820Y-16195680D01*
X5573453Y-16198013D01*
X5647587Y-16228719D01*
X5649268Y-16229432D01*
X5722941Y-16261397D01*
X5722947Y-16261398D01*
X5728738Y-16263261D01*
X5728653Y-16263523D01*
X5731423Y-16264389D01*
X5731504Y-16264125D01*
X5737328Y-16265891D01*
X5737334Y-16265894D01*
X5816051Y-16281551D01*
X5817865Y-16281928D01*
X5896315Y-16298897D01*
X5896319Y-16298897D01*
X5902366Y-16299595D01*
X5902334Y-16299867D01*
X5905217Y-16300175D01*
X5905244Y-16299903D01*
X5911307Y-16300500D01*
X5911309Y-16300500D01*
X5991449Y-16300500D01*
X5993515Y-16300517D01*
X6230379Y-16304464D01*
X6243522Y-16305385D01*
X6277327Y-16309573D01*
X6319905Y-16306454D01*
X6330991Y-16306141D01*
X6373673Y-16306853D01*
X6407188Y-16300764D01*
X6420261Y-16299103D01*
X6454237Y-16296616D01*
X6495376Y-16285252D01*
X6506215Y-16282776D01*
X6548200Y-16275151D01*
X6579872Y-16262645D01*
X6592393Y-16258458D01*
X6615637Y-16252039D01*
X6625215Y-16249394D01*
X6625215Y-16249393D01*
X6625218Y-16249393D01*
X6663343Y-16230226D01*
X6673494Y-16225683D01*
X6702670Y-16214164D01*
X6748206Y-16205500D01*
X6965686Y-16205500D01*
X6965694Y-16205500D01*
X7002569Y-16202598D01*
X7002571Y-16202597D01*
X7002573Y-16202597D01*
X7048754Y-16189180D01*
X7160398Y-16156744D01*
X7301865Y-16073081D01*
X7418081Y-15956865D01*
X7501744Y-15815398D01*
X7547598Y-15657569D01*
X7550500Y-15620694D01*
X7550500Y-15189306D01*
X7547598Y-15152431D01*
X7541194Y-15130389D01*
X7506218Y-15010001D01*
X7501744Y-14994602D01*
X7418081Y-14853135D01*
X7418079Y-14853133D01*
X7418076Y-14853129D01*
X7301870Y-14736923D01*
X7301867Y-14736921D01*
X7301865Y-14736919D01*
X7258427Y-14711230D01*
X7210745Y-14660163D01*
X7198241Y-14591422D01*
X7222892Y-14531663D01*
X7221902Y-14530944D01*
X7224881Y-14526842D01*
X7224886Y-14526832D01*
X7224903Y-14526812D01*
X7227639Y-14523046D01*
X7252785Y-14473694D01*
X7605001Y-14473694D01*
X7620546Y-14611677D01*
X7681764Y-14786628D01*
X7780375Y-14943565D01*
X7911434Y-15074624D01*
X8068370Y-15173234D01*
X8243319Y-15234452D01*
X8243324Y-15234453D01*
X8381308Y-15249999D01*
X8824999Y-15249999D01*
X8825000Y-15249998D01*
X8825000Y-13675000D01*
X7605001Y-13675000D01*
X7605001Y-14473694D01*
X7252785Y-14473694D01*
X7285166Y-14410144D01*
X7300000Y-14316486D01*
X7300000Y-14310000D01*
X6424000Y-14310000D01*
X6356961Y-14290315D01*
X6311206Y-14237511D01*
X6300000Y-14186000D01*
X6300000Y-14084000D01*
X6319685Y-14016961D01*
X6372489Y-13971206D01*
X6424000Y-13960000D01*
X7299999Y-13960000D01*
X7299999Y-13953520D01*
X7285164Y-13859850D01*
X7285162Y-13859844D01*
X7227643Y-13746958D01*
X7221902Y-13739056D01*
X7224947Y-13736843D01*
X7223261Y-13733755D01*
X7208763Y-13717028D01*
X7206843Y-13703688D01*
X7200384Y-13691859D01*
X7201963Y-13669778D01*
X7198810Y-13647870D01*
X7204406Y-13635610D01*
X7205368Y-13622167D01*
X7218633Y-13604446D01*
X7227826Y-13584311D01*
X7243501Y-13571227D01*
X7247240Y-13566234D01*
X7254497Y-13561195D01*
X7256454Y-13559936D01*
X7301865Y-13533081D01*
X7418081Y-13416865D01*
X7440308Y-13379280D01*
X7491377Y-13331598D01*
X7560118Y-13319094D01*
X7574435Y-13325000D01*
X8825000Y-13325000D01*
X8825000Y-11750000D01*
X8381311Y-11750000D01*
X8381305Y-11750001D01*
X8243322Y-11765546D01*
X8068371Y-11826764D01*
X7911434Y-11925375D01*
X7780375Y-12056434D01*
X7681763Y-12213372D01*
X7681762Y-12213376D01*
X7649869Y-12304521D01*
X7609148Y-12361297D01*
X7544195Y-12387044D01*
X7475633Y-12373588D01*
X7426096Y-12326688D01*
X7418081Y-12313135D01*
X7418078Y-12313132D01*
X7418076Y-12313129D01*
X7301870Y-12196923D01*
X7301867Y-12196921D01*
X7301865Y-12196919D01*
X7258427Y-12171230D01*
X7210745Y-12120163D01*
X7198241Y-12051422D01*
X7222892Y-11991663D01*
X7221902Y-11990944D01*
X7224881Y-11986842D01*
X7224886Y-11986832D01*
X7224903Y-11986812D01*
X7227639Y-11983046D01*
X7285166Y-11870144D01*
X7300000Y-11776486D01*
X7300000Y-11770000D01*
X5300001Y-11770000D01*
X5300001Y-11776479D01*
X5314835Y-11870149D01*
X5314837Y-11870155D01*
X5372356Y-11983041D01*
X5378098Y-11990944D01*
X5375052Y-11993156D01*
X5399616Y-12038141D01*
X5394632Y-12107833D01*
X5352760Y-12163766D01*
X5341571Y-12171231D01*
X5298137Y-12196917D01*
X5298129Y-12196923D01*
X5181923Y-12313129D01*
X5181917Y-12313137D01*
X5098255Y-12454603D01*
X5098254Y-12454606D01*
X5052402Y-12612426D01*
X5052401Y-12612432D01*
X5049500Y-12649298D01*
X5049500Y-12956136D01*
X5029815Y-13023175D01*
X5003992Y-13052131D01*
X4302492Y-13625721D01*
X4238132Y-13652918D01*
X4169286Y-13641002D01*
X4117811Y-13593757D01*
X4100000Y-13529726D01*
X4100000Y-13277172D01*
X4099999Y-13277155D01*
X4093598Y-13217627D01*
X4093596Y-13217620D01*
X4043354Y-13082913D01*
X4043350Y-13082906D01*
X3957190Y-12967812D01*
X3957187Y-12967809D01*
X3842093Y-12881649D01*
X3842086Y-12881645D01*
X3707379Y-12831403D01*
X3707372Y-12831401D01*
X3647844Y-12825000D01*
X3525000Y-12825000D01*
X3525000Y-13366499D01*
X3505315Y-13433538D01*
X3452511Y-13479293D01*
X3383353Y-13489237D01*
X3362042Y-13484220D01*
X3260042Y-13450465D01*
X3202582Y-13410715D01*
X3175733Y-13346210D01*
X3175000Y-13332744D01*
X3175000Y-12825000D01*
X3052155Y-12825000D01*
X2992627Y-12831401D01*
X2992620Y-12831403D01*
X2857913Y-12881645D01*
X2857906Y-12881649D01*
X2742812Y-12967809D01*
X2742809Y-12967812D01*
X2656649Y-13082906D01*
X2656646Y-13082911D01*
X2649348Y-13102480D01*
X2607476Y-13158413D01*
X2542012Y-13182830D01*
X2473739Y-13167978D01*
X2424334Y-13118573D01*
X2415460Y-13098150D01*
X2410411Y-13082913D01*
X2384814Y-13005666D01*
X2381588Y-13000436D01*
X2368960Y-12979961D01*
X2350500Y-12914867D01*
X2350500Y-12085132D01*
X2368960Y-12020036D01*
X2384814Y-11994334D01*
X2415461Y-11901846D01*
X2455231Y-11844405D01*
X2519746Y-11817581D01*
X2588522Y-11829895D01*
X2639723Y-11877438D01*
X2649346Y-11897517D01*
X2656645Y-11917085D01*
X2656649Y-11917093D01*
X2742809Y-12032187D01*
X2742812Y-12032190D01*
X2857906Y-12118350D01*
X2857913Y-12118354D01*
X2992620Y-12168596D01*
X2992627Y-12168598D01*
X3052155Y-12174999D01*
X3052172Y-12175000D01*
X3175000Y-12175000D01*
X3525000Y-12175000D01*
X3647828Y-12175000D01*
X3647844Y-12174999D01*
X3707372Y-12168598D01*
X3707379Y-12168596D01*
X3842086Y-12118354D01*
X3842093Y-12118350D01*
X3957187Y-12032190D01*
X3957190Y-12032187D01*
X4043350Y-11917093D01*
X4043354Y-11917086D01*
X4093596Y-11782379D01*
X4093598Y-11782372D01*
X4099999Y-11722844D01*
X4100000Y-11722827D01*
X4100000Y-11413513D01*
X5300000Y-11413513D01*
X5300000Y-11420000D01*
X6125000Y-11420000D01*
X6475000Y-11420000D01*
X7299999Y-11420000D01*
X7299999Y-11413520D01*
X7285164Y-11319850D01*
X7285162Y-11319844D01*
X7227643Y-11206958D01*
X7227636Y-11206949D01*
X7138050Y-11117363D01*
X7138046Y-11117360D01*
X7025144Y-11059833D01*
X6931486Y-11045000D01*
X6475000Y-11045000D01*
X6475000Y-11420000D01*
X6125000Y-11420000D01*
X6125000Y-11045000D01*
X5668520Y-11045000D01*
X5574850Y-11059835D01*
X5574844Y-11059837D01*
X5461958Y-11117356D01*
X5461949Y-11117363D01*
X5372363Y-11206949D01*
X5372360Y-11206953D01*
X5314833Y-11319855D01*
X5300000Y-11413513D01*
X4100000Y-11413513D01*
X4100000Y-11375000D01*
X3525000Y-11375000D01*
X3525000Y-12175000D01*
X3175000Y-12175000D01*
X3175000Y-11025000D01*
X3525000Y-11025000D01*
X4100000Y-11025000D01*
X4100000Y-10677172D01*
X4099999Y-10677155D01*
X4093598Y-10617627D01*
X4093596Y-10617620D01*
X4043354Y-10482913D01*
X4043350Y-10482906D01*
X3957190Y-10367812D01*
X3957187Y-10367809D01*
X3842093Y-10281649D01*
X3842086Y-10281645D01*
X3707379Y-10231403D01*
X3707372Y-10231401D01*
X3647844Y-10225000D01*
X3525000Y-10225000D01*
X3525000Y-11025000D01*
X3175000Y-11025000D01*
X3175000Y-10225000D01*
X3048851Y-10225000D01*
X3048851Y-10223702D01*
X2985941Y-10208827D01*
X2937433Y-10158541D01*
X2923812Y-10090012D01*
X2933663Y-10051498D01*
X3211182Y-9415517D01*
X3256035Y-9361947D01*
X3322731Y-9341130D01*
X3390095Y-9359676D01*
X3430370Y-9400015D01*
X3457288Y-9443656D01*
X3581344Y-9567712D01*
X3730666Y-9659814D01*
X3897203Y-9714999D01*
X3999991Y-9725500D01*
X5000008Y-9725499D01*
X5000016Y-9725498D01*
X5000019Y-9725498D01*
X5056302Y-9719748D01*
X5102797Y-9714999D01*
X5269334Y-9659814D01*
X5418656Y-9567712D01*
X5542712Y-9443656D01*
X5634814Y-9294334D01*
X5689999Y-9127797D01*
X5700500Y-9025009D01*
X5700499Y-8399992D01*
X5695282Y-8348922D01*
X5708051Y-8280229D01*
X5721475Y-8259281D01*
X8902841Y-4247225D01*
X8959915Y-4206929D01*
X9029718Y-4203886D01*
X9090086Y-4239065D01*
X9097160Y-4247228D01*
X12278519Y-8259275D01*
X12304748Y-8324035D01*
X12304716Y-8348919D01*
X12299500Y-8399976D01*
X12299500Y-9025001D01*
X12299501Y-9025019D01*
X12310000Y-9127796D01*
X12310001Y-9127799D01*
X12321539Y-9162617D01*
X12365186Y-9294334D01*
X12457288Y-9443656D01*
X12581344Y-9567712D01*
X12730666Y-9659814D01*
X12897203Y-9714999D01*
X12999991Y-9725500D01*
X14000008Y-9725499D01*
X14000016Y-9725498D01*
X14000019Y-9725498D01*
X14056302Y-9719748D01*
X14102797Y-9714999D01*
X14269334Y-9659814D01*
X14418656Y-9567712D01*
X14542712Y-9443656D01*
X14634814Y-9294334D01*
X14689999Y-9127797D01*
X14700500Y-9025009D01*
X14700499Y-8399992D01*
X14700497Y-8399976D01*
X14689999Y-8297203D01*
X14689998Y-8297200D01*
X14677431Y-8259275D01*
X14634814Y-8130666D01*
X14542712Y-7981344D01*
X14418656Y-7857288D01*
X14269334Y-7765186D01*
X14269333Y-7765185D01*
X14269329Y-7765183D01*
X14268005Y-7764566D01*
X14267249Y-7763900D01*
X14263187Y-7761395D01*
X14263615Y-7760700D01*
X14215566Y-7718392D01*
X14196416Y-7651198D01*
X14216633Y-7584318D01*
X14246102Y-7552918D01*
X14307189Y-7507188D01*
X14307190Y-7507187D01*
X14393350Y-7392093D01*
X14393354Y-7392086D01*
X14443596Y-7257379D01*
X14443598Y-7257372D01*
X14449999Y-7197844D01*
X14450000Y-7197827D01*
X14450000Y-7062500D01*
X13624000Y-7062500D01*
X13556961Y-7042815D01*
X13511206Y-6990011D01*
X13509558Y-6986239D01*
X13468370Y-6887500D01*
X13449000Y-6887500D01*
X13381961Y-6867815D01*
X13336206Y-6815011D01*
X13325000Y-6763500D01*
X13325000Y-6712500D01*
X13675000Y-6712500D01*
X14450000Y-6712500D01*
X14450000Y-6577172D01*
X14449999Y-6577155D01*
X14443598Y-6517627D01*
X14443596Y-6517620D01*
X14393354Y-6382913D01*
X14393350Y-6382906D01*
X14307190Y-6267812D01*
X14307187Y-6267809D01*
X14192093Y-6181649D01*
X14192086Y-6181645D01*
X14057379Y-6131403D01*
X14057372Y-6131401D01*
X13997844Y-6125000D01*
X13675000Y-6125000D01*
X13675000Y-6712500D01*
X13325000Y-6712500D01*
X13325000Y-6125000D01*
X13002155Y-6125000D01*
X12942627Y-6131401D01*
X12942620Y-6131403D01*
X12807913Y-6181645D01*
X12807906Y-6181649D01*
X12692812Y-6267809D01*
X12658506Y-6313636D01*
X12602572Y-6355506D01*
X12532880Y-6360490D01*
X12471557Y-6327004D01*
X12462084Y-6316374D01*
X10844479Y-4276394D01*
X10385114Y-3697083D01*
X10328849Y-3626126D01*
X12550000Y-3626126D01*
X12550000Y-4025000D01*
X13000000Y-4025000D01*
X13000000Y-4375000D01*
X12550000Y-4375000D01*
X12550000Y-4773873D01*
X12578820Y-4918759D01*
X12578822Y-4918767D01*
X12635357Y-5055254D01*
X12635362Y-5055264D01*
X12717436Y-5178096D01*
X12717439Y-5178100D01*
X12821899Y-5282560D01*
X12821903Y-5282563D01*
X12944735Y-5364637D01*
X12944745Y-5364642D01*
X13081228Y-5421175D01*
X13081234Y-5421177D01*
X13125000Y-5429882D01*
X13125000Y-4945374D01*
X13184204Y-4979556D01*
X13260504Y-5000000D01*
X13339496Y-5000000D01*
X13415796Y-4979556D01*
X13475000Y-4945374D01*
X13475000Y-5429881D01*
X13518765Y-5421177D01*
X13518771Y-5421175D01*
X13655254Y-5364642D01*
X13655264Y-5364637D01*
X13778096Y-5282563D01*
X13778100Y-5282560D01*
X13882560Y-5178100D01*
X13882563Y-5178096D01*
X13964637Y-5055264D01*
X13964642Y-5055254D01*
X14021177Y-4918767D01*
X14021179Y-4918759D01*
X14049999Y-4773873D01*
X14050000Y-4773871D01*
X14050000Y-4375000D01*
X13600000Y-4375000D01*
X13600000Y-4025000D01*
X14050000Y-4025000D01*
X14050000Y-3626128D01*
X14049999Y-3626126D01*
X14021179Y-3481240D01*
X14021177Y-3481232D01*
X13964642Y-3344745D01*
X13964637Y-3344735D01*
X13882563Y-3221903D01*
X13882560Y-3221899D01*
X13778100Y-3117439D01*
X13778096Y-3117436D01*
X13655264Y-3035362D01*
X13655254Y-3035357D01*
X13518767Y-2978822D01*
X13518759Y-2978820D01*
X13475000Y-2970115D01*
X13475000Y-3454625D01*
X13415796Y-3420444D01*
X13339496Y-3400000D01*
X13260504Y-3400000D01*
X13184204Y-3420444D01*
X13125000Y-3454625D01*
X13125000Y-2970116D01*
X13124999Y-2970115D01*
X13081240Y-2978820D01*
X13081232Y-2978822D01*
X12944745Y-3035357D01*
X12944735Y-3035362D01*
X12821903Y-3117436D01*
X12821899Y-3117439D01*
X12717439Y-3221899D01*
X12717436Y-3221903D01*
X12635362Y-3344735D01*
X12635357Y-3344745D01*
X12578822Y-3481232D01*
X12578820Y-3481240D01*
X12550000Y-3626126D01*
X10328849Y-3626126D01*
X10008316Y-3221899D01*
X9923187Y-3114542D01*
X9896959Y-3049783D01*
X9909905Y-2981124D01*
X9923188Y-2960455D01*
X10789397Y-1868069D01*
X11241866Y-1297454D01*
X11298943Y-1257156D01*
X11339027Y-1250499D01*
X11447872Y-1250499D01*
X11447885Y-1250498D01*
X11486744Y-1246320D01*
X11513252Y-1246320D01*
X11552127Y-1250500D01*
X11947872Y-1250499D01*
X12007483Y-1244091D01*
X12142331Y-1193796D01*
X12257546Y-1107546D01*
X12300858Y-1049687D01*
X12356791Y-1007818D01*
X12400124Y-1000000D01*
X12424626Y-1000000D01*
X12498361Y-985333D01*
X12567953Y-991560D01*
X12623130Y-1034423D01*
X12631926Y-1050188D01*
X12632489Y-1049888D01*
X12635362Y-1055264D01*
X12717436Y-1178096D01*
X12717439Y-1178100D01*
X12821899Y-1282560D01*
X12821903Y-1282563D01*
X12944735Y-1364637D01*
X12944745Y-1364642D01*
X13081228Y-1421175D01*
X13081234Y-1421177D01*
X13125000Y-1429882D01*
X13125000Y-945374D01*
X13184204Y-979556D01*
X13260504Y-1000000D01*
X13339496Y-1000000D01*
X13415796Y-979556D01*
X13475000Y-945374D01*
X13475000Y-1429881D01*
X13518765Y-1421177D01*
X13518771Y-1421175D01*
X13655254Y-1364642D01*
X13655264Y-1364637D01*
X13778096Y-1282563D01*
X13778100Y-1282560D01*
X13882560Y-1178100D01*
X13882563Y-1178096D01*
X13964637Y-1055264D01*
X13964642Y-1055254D01*
X14021177Y-918767D01*
X14021179Y-918759D01*
X14049999Y-773873D01*
X14050000Y-773871D01*
X14050000Y-324000D01*
X14069685Y-256961D01*
X14122489Y-211206D01*
X14174000Y-200000D01*
X17676000Y-200000D01*
X17743039Y-219685D01*
X17788794Y-272489D01*
X17800000Y-324000D01*
X17800000Y-28676000D01*
X17780315Y-28743039D01*
X17727511Y-28788794D01*
X17676000Y-28800000D01*
X324000Y-28800000D01*
X256961Y-28780315D01*
X211206Y-28727511D01*
X200000Y-28676000D01*
X200000Y-24449983D01*
X974500Y-24449983D01*
X974500Y-25050001D01*
X974501Y-25050019D01*
X985000Y-25152796D01*
X985001Y-25152799D01*
X1040185Y-25319331D01*
X1040186Y-25319334D01*
X1132288Y-25468656D01*
X1256344Y-25592712D01*
X1405666Y-25684814D01*
X1572203Y-25739999D01*
X1674991Y-25750500D01*
X2725008Y-25750499D01*
X2725016Y-25750498D01*
X2725019Y-25750498D01*
X2781302Y-25744748D01*
X2827797Y-25739999D01*
X2994334Y-25684814D01*
X3085404Y-25628641D01*
X3152795Y-25610201D01*
X3219459Y-25631123D01*
X3264228Y-25684765D01*
X3274500Y-25734179D01*
X3274500Y-25900000D01*
X3274501Y-25900019D01*
X3285000Y-26002796D01*
X3285001Y-26002799D01*
X3324085Y-26120745D01*
X3340186Y-26169334D01*
X3432288Y-26318656D01*
X3556344Y-26442712D01*
X3705666Y-26534814D01*
X3872203Y-26589999D01*
X3974991Y-26600500D01*
X4600008Y-26600499D01*
X4600016Y-26600498D01*
X4600019Y-26600498D01*
X4656302Y-26594748D01*
X4702797Y-26589999D01*
X4869334Y-26534814D01*
X5018656Y-26442712D01*
X5112319Y-26349049D01*
X5173642Y-26315564D01*
X5243334Y-26320548D01*
X5287681Y-26349049D01*
X5381344Y-26442712D01*
X5530666Y-26534814D01*
X5697203Y-26589999D01*
X5799991Y-26600500D01*
X6425008Y-26600499D01*
X6425016Y-26600498D01*
X6425019Y-26600498D01*
X6481302Y-26594748D01*
X6527797Y-26589999D01*
X6694334Y-26534814D01*
X6710404Y-26524901D01*
X6777795Y-26506462D01*
X6844459Y-26527384D01*
X6889229Y-26581026D01*
X6899500Y-26630441D01*
X6899500Y-26944960D01*
X6914630Y-27079249D01*
X6914631Y-27079254D01*
X6974211Y-27249523D01*
X6999999Y-27290564D01*
X7070184Y-27402262D01*
X7197738Y-27529816D01*
X7350478Y-27625789D01*
X7520745Y-27685368D01*
X7520750Y-27685369D01*
X7611246Y-27695565D01*
X7655040Y-27700499D01*
X7655043Y-27700500D01*
X7655046Y-27700500D01*
X8344957Y-27700500D01*
X8344958Y-27700499D01*
X8412104Y-27692934D01*
X8479249Y-27685369D01*
X8479252Y-27685368D01*
X8479255Y-27685368D01*
X8649522Y-27625789D01*
X8802262Y-27529816D01*
X8912319Y-27419759D01*
X8973642Y-27386274D01*
X9043334Y-27391258D01*
X9087681Y-27419759D01*
X9197738Y-27529816D01*
X9350478Y-27625789D01*
X9520745Y-27685368D01*
X9520750Y-27685369D01*
X9611246Y-27695565D01*
X9655040Y-27700499D01*
X9655043Y-27700500D01*
X9655046Y-27700500D01*
X10344957Y-27700500D01*
X10344958Y-27700499D01*
X10412104Y-27692934D01*
X10479249Y-27685369D01*
X10479252Y-27685368D01*
X10479255Y-27685368D01*
X10649522Y-27625789D01*
X10802262Y-27529816D01*
X10929816Y-27402262D01*
X11025789Y-27249522D01*
X11085368Y-27079255D01*
X11100500Y-26944954D01*
X11100500Y-26255046D01*
X11085368Y-26120745D01*
X11025789Y-25950478D01*
X11025788Y-25950475D01*
X10970483Y-25862459D01*
X10951482Y-25795222D01*
X10951706Y-25788952D01*
X11018326Y-24698060D01*
X11042060Y-24632348D01*
X11072101Y-24605407D01*
X11071393Y-24604484D01*
X11114095Y-24571717D01*
X11203282Y-24503282D01*
X11204721Y-24501405D01*
X11206342Y-24500221D01*
X11209026Y-24497538D01*
X11209444Y-24497956D01*
X11261140Y-24460200D01*
X11308563Y-24453004D01*
X14935184Y-24613002D01*
X14977166Y-24622320D01*
X15068238Y-24660044D01*
X15185639Y-24675500D01*
X16414360Y-24675499D01*
X16414363Y-24675499D01*
X16531753Y-24660046D01*
X16531757Y-24660044D01*
X16531762Y-24660044D01*
X16677841Y-24599536D01*
X16803282Y-24503282D01*
X16899536Y-24377841D01*
X16960044Y-24231762D01*
X16975500Y-24114361D01*
X16975499Y-23835640D01*
X16960044Y-23718238D01*
X16951434Y-23697454D01*
X16943965Y-23627986D01*
X16951435Y-23602545D01*
X16960044Y-23581762D01*
X16975500Y-23464361D01*
X16975499Y-23185640D01*
X16960044Y-23068238D01*
X16951434Y-23047454D01*
X16943965Y-22977986D01*
X16951435Y-22952545D01*
X16960044Y-22931762D01*
X16975500Y-22814361D01*
X16975499Y-22535640D01*
X16960044Y-22418238D01*
X16951434Y-22397454D01*
X16943965Y-22327986D01*
X16951435Y-22302545D01*
X16960044Y-22281762D01*
X16975500Y-22164361D01*
X16975499Y-21885640D01*
X16975499Y-21885636D01*
X16960046Y-21768246D01*
X16960044Y-21768241D01*
X16960044Y-21768238D01*
X16899536Y-21622159D01*
X16803282Y-21496718D01*
X16677841Y-21400464D01*
X16625940Y-21378966D01*
X16531762Y-21339956D01*
X16531760Y-21339955D01*
X16414370Y-21324501D01*
X16414367Y-21324500D01*
X16414361Y-21324500D01*
X16414354Y-21324500D01*
X16410099Y-21324500D01*
X16343060Y-21304815D01*
X16341208Y-21303602D01*
X16226547Y-21226987D01*
X16226544Y-21226985D01*
X16226543Y-21226985D01*
X16226542Y-21226984D01*
X16062667Y-21159106D01*
X16062658Y-21159103D01*
X15888694Y-21124500D01*
X15888691Y-21124500D01*
X10111309Y-21124500D01*
X10111230Y-21124500D01*
X10044191Y-21104815D01*
X9998436Y-21052011D01*
X9988492Y-20982853D01*
X10017517Y-20919297D01*
X10023549Y-20912819D01*
X10024049Y-20912319D01*
X10067712Y-20868656D01*
X10159814Y-20719334D01*
X10214999Y-20552797D01*
X10225500Y-20450009D01*
X10225499Y-19849992D01*
X10225499Y-19849918D01*
X10241725Y-19788593D01*
X10249471Y-19774980D01*
X12220866Y-16310435D01*
X12271128Y-16261906D01*
X12339651Y-16248253D01*
X12404677Y-16273814D01*
X12429178Y-16299184D01*
X14395338Y-19022819D01*
X14418617Y-19088697D01*
X14412506Y-19134395D01*
X14409913Y-19142220D01*
X14399500Y-19244144D01*
X14399500Y-19830855D01*
X14409913Y-19932776D01*
X14464637Y-20097922D01*
X14464642Y-20097933D01*
X14555971Y-20245999D01*
X14555974Y-20246003D01*
X14678996Y-20369025D01*
X14679000Y-20369028D01*
X14827066Y-20460357D01*
X14827069Y-20460358D01*
X14827075Y-20460362D01*
X14992225Y-20515087D01*
X15094152Y-20525500D01*
X15094157Y-20525500D01*
X16105843Y-20525500D01*
X16105848Y-20525500D01*
X16207775Y-20515087D01*
X16372925Y-20460362D01*
X16521003Y-20369026D01*
X16644026Y-20246003D01*
X16735362Y-20097925D01*
X16790087Y-19932775D01*
X16800500Y-19830848D01*
X16800500Y-19244152D01*
X16790087Y-19142225D01*
X16735362Y-18977075D01*
X16735358Y-18977069D01*
X16735357Y-18977066D01*
X16644028Y-18829000D01*
X16644025Y-18828996D01*
X16521004Y-18705975D01*
X16521003Y-18705974D01*
X16520301Y-18705541D01*
X16519921Y-18705118D01*
X16515336Y-18701493D01*
X16515955Y-18700709D01*
X16473575Y-18653598D01*
X16462349Y-18584636D01*
X16490188Y-18520552D01*
X16515455Y-18498657D01*
X16515336Y-18498507D01*
X16518687Y-18495856D01*
X16520299Y-18494459D01*
X16521003Y-18494026D01*
X16644026Y-18371003D01*
X16735362Y-18222925D01*
X16790087Y-18057775D01*
X16800500Y-17955848D01*
X16800500Y-17514981D01*
X16820185Y-17447942D01*
X16872989Y-17402187D01*
X16911899Y-17391623D01*
X16912391Y-17391572D01*
X16927797Y-17389999D01*
X17094334Y-17334814D01*
X17243656Y-17242712D01*
X17367712Y-17118656D01*
X17459814Y-16969334D01*
X17514999Y-16802797D01*
X17525500Y-16700009D01*
X17525499Y-15699992D01*
X17521943Y-15665185D01*
X17514999Y-15597203D01*
X17514998Y-15597200D01*
X17469019Y-15458446D01*
X17459814Y-15430666D01*
X17367712Y-15281344D01*
X17243656Y-15157288D01*
X17094334Y-15065186D01*
X16927797Y-15010001D01*
X16927795Y-15010000D01*
X16907057Y-15007882D01*
X16842366Y-14981485D01*
X16802215Y-14924304D01*
X16796303Y-14871924D01*
X16800500Y-14830848D01*
X16800500Y-14244152D01*
X16790087Y-14142225D01*
X16735362Y-13977075D01*
X16735358Y-13977069D01*
X16735357Y-13977066D01*
X16644028Y-13829000D01*
X16644025Y-13828996D01*
X16521004Y-13705975D01*
X16521003Y-13705974D01*
X16520301Y-13705541D01*
X16519921Y-13705118D01*
X16515336Y-13701493D01*
X16515955Y-13700709D01*
X16473575Y-13653598D01*
X16462349Y-13584636D01*
X16490188Y-13520552D01*
X16515455Y-13498657D01*
X16515336Y-13498507D01*
X16518687Y-13495856D01*
X16520299Y-13494459D01*
X16521003Y-13494026D01*
X16644026Y-13371003D01*
X16735362Y-13222925D01*
X16790087Y-13057775D01*
X16800500Y-12955848D01*
X16800500Y-12514981D01*
X16820185Y-12447942D01*
X16872989Y-12402187D01*
X16911899Y-12391623D01*
X16912391Y-12391572D01*
X16927797Y-12389999D01*
X17094334Y-12334814D01*
X17243656Y-12242712D01*
X17367712Y-12118656D01*
X17459814Y-11969334D01*
X17514999Y-11802797D01*
X17525500Y-11700009D01*
X17525499Y-10699992D01*
X17523750Y-10682874D01*
X17514999Y-10597203D01*
X17514998Y-10597200D01*
X17477127Y-10482913D01*
X17459814Y-10430666D01*
X17367712Y-10281344D01*
X17243656Y-10157288D01*
X17094334Y-10065186D01*
X16927797Y-10010001D01*
X16927795Y-10010000D01*
X16825010Y-9999500D01*
X16199998Y-9999500D01*
X16199980Y-9999501D01*
X16097203Y-10010000D01*
X16097200Y-10010001D01*
X15930668Y-10065185D01*
X15930663Y-10065187D01*
X15781342Y-10157289D01*
X15687681Y-10250951D01*
X15626358Y-10284436D01*
X15556666Y-10279452D01*
X15512319Y-10250951D01*
X15418657Y-10157289D01*
X15418656Y-10157288D01*
X15269334Y-10065186D01*
X15102797Y-10010001D01*
X15102795Y-10010000D01*
X15000010Y-9999500D01*
X14374998Y-9999500D01*
X14374980Y-9999501D01*
X14272203Y-10010000D01*
X14272200Y-10010001D01*
X14105668Y-10065185D01*
X14105663Y-10065187D01*
X13956342Y-10157289D01*
X13832289Y-10281342D01*
X13740187Y-10430663D01*
X13740186Y-10430666D01*
X13690735Y-10579898D01*
X13650962Y-10637342D01*
X13589283Y-10663823D01*
X12617934Y-10792253D01*
X12548892Y-10781526D01*
X12524187Y-10766126D01*
X12493528Y-10741583D01*
X12465024Y-10726790D01*
X12453257Y-10719834D01*
X12426547Y-10701987D01*
X12426545Y-10701986D01*
X12385329Y-10684913D01*
X12375665Y-10680414D01*
X12336089Y-10659875D01*
X12336083Y-10659873D01*
X12305241Y-10650925D01*
X12292346Y-10646399D01*
X12269822Y-10637070D01*
X12262664Y-10634105D01*
X12262662Y-10634104D01*
X12218923Y-10625404D01*
X12208568Y-10622877D01*
X12165733Y-10610450D01*
X12165726Y-10610449D01*
X12133736Y-10607690D01*
X12120205Y-10605767D01*
X12088694Y-10599500D01*
X12088691Y-10599500D01*
X12044084Y-10599500D01*
X12033429Y-10599041D01*
X11989008Y-10595209D01*
X11989001Y-10595210D01*
X11957083Y-10598746D01*
X11943430Y-10599500D01*
X11911305Y-10599500D01*
X11867562Y-10608200D01*
X11857032Y-10609828D01*
X11812698Y-10614740D01*
X11782065Y-10624440D01*
X11768827Y-10627841D01*
X11737335Y-10634105D01*
X11737328Y-10634107D01*
X11696126Y-10651173D01*
X11686111Y-10654825D01*
X11343592Y-10763290D01*
X11343591Y-10763290D01*
X11314788Y-10779140D01*
X11255010Y-10794500D01*
X11034298Y-10794500D01*
X10997432Y-10797401D01*
X10997426Y-10797402D01*
X10839606Y-10843254D01*
X10839603Y-10843255D01*
X10698137Y-10926917D01*
X10698129Y-10926923D01*
X10581923Y-11043129D01*
X10581917Y-11043137D01*
X10498255Y-11184603D01*
X10498254Y-11184606D01*
X10452402Y-11342426D01*
X10452401Y-11342432D01*
X10449500Y-11379298D01*
X10449500Y-11810701D01*
X10452401Y-11847567D01*
X10452402Y-11847573D01*
X10498254Y-12005393D01*
X10498255Y-12005396D01*
X10498256Y-12005398D01*
X10533209Y-12064500D01*
X10581917Y-12146862D01*
X10586702Y-12153031D01*
X10584256Y-12154927D01*
X10610857Y-12203642D01*
X10605873Y-12273334D01*
X10585069Y-12305703D01*
X10586702Y-12306969D01*
X10581915Y-12313140D01*
X10573900Y-12326692D01*
X10522829Y-12374373D01*
X10454087Y-12386874D01*
X10389499Y-12360225D01*
X10350129Y-12304520D01*
X10318235Y-12213371D01*
X10219624Y-12056434D01*
X10088565Y-11925375D01*
X9931629Y-11826765D01*
X9756680Y-11765547D01*
X9756675Y-11765546D01*
X9618693Y-11750000D01*
X9175000Y-11750000D01*
X9175000Y-15249999D01*
X9618689Y-15249999D01*
X9618694Y-15249998D01*
X9756677Y-15234453D01*
X9931628Y-15173235D01*
X10088565Y-15074624D01*
X10219624Y-14943565D01*
X10318236Y-14786627D01*
X10318236Y-14786626D01*
X10350129Y-14695480D01*
X10390850Y-14638703D01*
X10455803Y-14612955D01*
X10524364Y-14626411D01*
X10573902Y-14673310D01*
X10581916Y-14686861D01*
X10586702Y-14693031D01*
X10584256Y-14694927D01*
X10610857Y-14743642D01*
X10605873Y-14813334D01*
X10585069Y-14845703D01*
X10586702Y-14846969D01*
X10581917Y-14853137D01*
X10498255Y-14994603D01*
X10498254Y-14994606D01*
X10452402Y-15152426D01*
X10452401Y-15152432D01*
X10449500Y-15189298D01*
X10449500Y-15620701D01*
X10452401Y-15657563D01*
X10452403Y-15657575D01*
X10460691Y-15686103D01*
X10460490Y-15755972D01*
X10449388Y-15782020D01*
X9507487Y-17437325D01*
X9457223Y-17485857D01*
X9399713Y-17500000D01*
X9175000Y-17500000D01*
X9175000Y-17988830D01*
X9158774Y-18050155D01*
X9080722Y-18187325D01*
X9047537Y-18225058D01*
X9000000Y-18260852D01*
X9000000Y-18296377D01*
X8983780Y-18357692D01*
X8981150Y-18362315D01*
X8930890Y-18410852D01*
X8873370Y-18425000D01*
X8025000Y-18425000D01*
X8025000Y-18547844D01*
X8031401Y-18607372D01*
X8031403Y-18607379D01*
X8081645Y-18742086D01*
X8081649Y-18742093D01*
X8167809Y-18857187D01*
X8167812Y-18857190D01*
X8282906Y-18943350D01*
X8282911Y-18943353D01*
X8302476Y-18950650D01*
X8358411Y-18992521D01*
X8382829Y-19057985D01*
X8367978Y-19126258D01*
X8318574Y-19175664D01*
X8298151Y-19184538D01*
X8205671Y-19215184D01*
X8205663Y-19215187D01*
X8056342Y-19307289D01*
X7932289Y-19431342D01*
X7840187Y-19580663D01*
X7840186Y-19580666D01*
X7799027Y-19704875D01*
X7759254Y-19762319D01*
X7712433Y-19785904D01*
X4010034Y-20745534D01*
X3978922Y-20749500D01*
X3481871Y-20749500D01*
X3481871Y-20748751D01*
X3417012Y-20732419D01*
X3369238Y-20681434D01*
X3356613Y-20612715D01*
X3362235Y-20586581D01*
X3389999Y-20502797D01*
X3400500Y-20400009D01*
X3400499Y-19774992D01*
X3399204Y-19762319D01*
X3389999Y-19672203D01*
X3389998Y-19672200D01*
X3334814Y-19505666D01*
X3242712Y-19356344D01*
X3118656Y-19232288D01*
X3025888Y-19175069D01*
X2969336Y-19140187D01*
X2969331Y-19140185D01*
X2927302Y-19126258D01*
X2802797Y-19085001D01*
X2802795Y-19085000D01*
X2700010Y-19074500D01*
X1699998Y-19074500D01*
X1699980Y-19074501D01*
X1597203Y-19085000D01*
X1597200Y-19085001D01*
X1430668Y-19140185D01*
X1430663Y-19140187D01*
X1281342Y-19232289D01*
X1157289Y-19356342D01*
X1065187Y-19505663D01*
X1065186Y-19505666D01*
X1010001Y-19672203D01*
X1010001Y-19672204D01*
X1010000Y-19672204D01*
X999500Y-19774983D01*
X999500Y-20400001D01*
X999501Y-20400019D01*
X1010000Y-20502796D01*
X1010001Y-20502799D01*
X1046424Y-20612715D01*
X1065186Y-20669334D01*
X1144705Y-20798256D01*
X1157289Y-20818657D01*
X1250951Y-20912319D01*
X1284436Y-20973642D01*
X1279452Y-21043334D01*
X1250951Y-21087681D01*
X1157289Y-21181342D01*
X1065187Y-21330663D01*
X1065185Y-21330668D01*
X1042057Y-21400464D01*
X1010001Y-21497203D01*
X1010001Y-21497204D01*
X1010000Y-21497204D01*
X999500Y-21599983D01*
X999500Y-22225001D01*
X999501Y-22225019D01*
X1010000Y-22327796D01*
X1010001Y-22327799D01*
X1017358Y-22350000D01*
X1065186Y-22494334D01*
X1157288Y-22643656D01*
X1281344Y-22767712D01*
X1326333Y-22795461D01*
X1373057Y-22847409D01*
X1384280Y-22916372D01*
X1356436Y-22980454D01*
X1298367Y-23019310D01*
X1261236Y-23025000D01*
X1225000Y-23025000D01*
X1225000Y-23147844D01*
X1231401Y-23207372D01*
X1231403Y-23207379D01*
X1281645Y-23342086D01*
X1281649Y-23342093D01*
X1367809Y-23457187D01*
X1367812Y-23457190D01*
X1474811Y-23537290D01*
X1516682Y-23593223D01*
X1524500Y-23636556D01*
X1524500Y-23686267D01*
X1504815Y-23753306D01*
X1452011Y-23799061D01*
X1439506Y-23803972D01*
X1405671Y-23815184D01*
X1405663Y-23815187D01*
X1256342Y-23907289D01*
X1132289Y-24031342D01*
X1040187Y-24180663D01*
X1040186Y-24180666D01*
X985001Y-24347203D01*
X985001Y-24347204D01*
X985000Y-24347204D01*
X974500Y-24449983D01*
X200000Y-24449983D01*
X200000Y-324000D01*
X219685Y-256961D01*
X272489Y-211206D01*
X324000Y-200000D01*
X3826000Y-200000D01*
X3893039Y-219685D01*
G37*
%TD.AperFunction*%
%TA.AperFunction,Conductor*%
G36*
X5223605Y-300593D02*
G01*
X5178751Y-354165D01*
X5112055Y-374982D01*
X5109954Y-375000D01*
X5000000Y-375000D01*
X5000000Y-200000D01*
X5267500Y-200000D01*
X5223605Y-300593D01*
G37*
%TD.AperFunction*%
%TA.AperFunction,Conductor*%
G36*
X13000000Y-375000D02*
G01*
X12774500Y-375000D01*
X12707461Y-355315D01*
X12661706Y-302511D01*
X12650500Y-251000D01*
X12650500Y-200000D01*
X13000000Y-200000D01*
X13000000Y-375000D01*
G37*
%TD.AperFunction*%
%TD*%
M02*
