%TF.GenerationSoftware,KiCad,Pcbnew,10.0.6-10.0.6~ubuntu26.04.1*%
%TF.CreationDate,2026-09-01T15:11:08+07:00*%
%TF.ProjectId,USB_TypeC_TP4056_Charger,5553425f-5479-4706-9543-5f5450343035,rev?*%
%TF.SameCoordinates,Original*%
%TF.FileFunction,Copper,L2,Bot*%
%TF.FilePolarity,Positive*%
%FSLAX46Y46*%
G04 Gerber Fmt 4.6, Leading zero omitted, Abs format (unit mm)*
G04 Created by KiCad (PCBNEW 10.0.6-10.0.6~ubuntu26.04.1) date 2026-09-01 15:11:08*
%MOMM*%
%LPD*%
G01*
G04 APERTURE LIST*
%TA.AperFunction,ComponentPad*%
%ADD10O,1.000000X2.000000*%
%TD*%
%TA.AperFunction,ComponentPad*%
%ADD11C,0.600000*%
%TD*%
%TA.AperFunction,ViaPad*%
%ADD12C,0.800000*%
%TD*%
%TA.AperFunction,Conductor*%
%ADD13C,0.800000*%
%TD*%
G04 APERTURE END LIST*
D10*
%TO.P,J1,S1*%
%TO.N,GND*%
X13300000Y-4200000D03*
X13300000Y-200000D03*
X4700000Y-4200000D03*
X4700000Y-200000D03*
%TD*%
D11*
%TO.P,U1,9*%
%TO.N,GND*%
X8500000Y-13000000D03*
X8500000Y-14000000D03*
X9500000Y-13000000D03*
X9500000Y-14000000D03*
%TD*%
D12*
%TO.N,GND*%
X3312500Y-16800000D03*
X10200000Y-22675000D03*
X6300000Y-11595000D03*
X4700000Y-200000D03*
X9000000Y-18250000D03*
X9250000Y-200000D03*
X3350000Y-11200000D03*
X5750000Y-200000D03*
X4700000Y-4200000D03*
X6300000Y-14135000D03*
X8750000Y-200000D03*
X13300000Y-4200000D03*
X3350000Y-13800000D03*
X4500000Y-6887500D03*
X2200000Y-22850000D03*
X13300000Y-200000D03*
X8500000Y-13000000D03*
X13500000Y-6887500D03*
X9500000Y-13000000D03*
X8500000Y-14000000D03*
X6500000Y-21550000D03*
X9000000Y-13500000D03*
X12250000Y-200000D03*
X9500000Y-14000000D03*
%TO.N,VBUS*%
X6000000Y-15400000D03*
X12000000Y-11500000D03*
%TD*%
%TO.N,VBUS*%
D13*
X6000000Y-15400000D02*
X12000000Y-11500000D01*
%TD*%
%TA.AperFunction,Conductor*%
%TO.N,GND*%
G36*
X3893039Y-219685D02*
G01*
X3938794Y-272489D01*
X3950000Y-324000D01*
X3950000Y-773873D01*
X3978820Y-918759D01*
X3978822Y-918767D01*
X4035357Y-1055254D01*
X4035362Y-1055264D01*
X4117436Y-1178096D01*
X4117439Y-1178100D01*
X4221899Y-1282560D01*
X4221903Y-1282563D01*
X4344735Y-1364637D01*
X4344745Y-1364642D01*
X4481228Y-1421175D01*
X4481234Y-1421177D01*
X4525000Y-1429882D01*
X4525000Y-945374D01*
X4584204Y-979556D01*
X4660504Y-1000000D01*
X4739496Y-1000000D01*
X4815796Y-979556D01*
X4875000Y-945374D01*
X4875000Y-1429881D01*
X4918765Y-1421177D01*
X4918771Y-1421175D01*
X5055254Y-1364642D01*
X5055264Y-1364637D01*
X5178096Y-1282563D01*
X5178100Y-1282560D01*
X5282560Y-1178100D01*
X5282563Y-1178096D01*
X5364637Y-1055264D01*
X5364642Y-1055254D01*
X5421177Y-918767D01*
X5421179Y-918759D01*
X5449999Y-773873D01*
X5450000Y-773871D01*
X5450000Y-324000D01*
X5469685Y-256961D01*
X5522489Y-211206D01*
X5574000Y-200000D01*
X12426000Y-200000D01*
X12493039Y-219685D01*
X12538794Y-272489D01*
X12550000Y-324000D01*
X12550000Y-773873D01*
X12578820Y-918759D01*
X12578822Y-918767D01*
X12635357Y-1055254D01*
X12635362Y-1055264D01*
X12717436Y-1178096D01*
X12717439Y-1178100D01*
X12821899Y-1282560D01*
X12821903Y-1282563D01*
X12944735Y-1364637D01*
X12944745Y-1364642D01*
X13081228Y-1421175D01*
X13081234Y-1421177D01*
X13125000Y-1429882D01*
X13125000Y-945374D01*
X13184204Y-979556D01*
X13260504Y-1000000D01*
X13339496Y-1000000D01*
X13415796Y-979556D01*
X13475000Y-945374D01*
X13475000Y-1429881D01*
X13518765Y-1421177D01*
X13518771Y-1421175D01*
X13655254Y-1364642D01*
X13655264Y-1364637D01*
X13778096Y-1282563D01*
X13778100Y-1282560D01*
X13882560Y-1178100D01*
X13882563Y-1178096D01*
X13964637Y-1055264D01*
X13964642Y-1055254D01*
X14021177Y-918767D01*
X14021179Y-918759D01*
X14049999Y-773873D01*
X14050000Y-773871D01*
X14050000Y-324000D01*
X14069685Y-256961D01*
X14122489Y-211206D01*
X14174000Y-200000D01*
X17676000Y-200000D01*
X17743039Y-219685D01*
X17788794Y-272489D01*
X17800000Y-324000D01*
X17800000Y-28676000D01*
X17780315Y-28743039D01*
X17727511Y-28788794D01*
X17676000Y-28800000D01*
X324000Y-28800000D01*
X256961Y-28780315D01*
X211206Y-28727511D01*
X200000Y-28676000D01*
X200000Y-15477272D01*
X5098448Y-15477272D01*
X5098448Y-15477277D01*
X5098943Y-15483038D01*
X5099500Y-15488695D01*
X5115528Y-15569273D01*
X5115825Y-15570815D01*
X5130846Y-15651671D01*
X5132456Y-15657231D01*
X5134103Y-15662659D01*
X5165568Y-15738625D01*
X5166159Y-15740078D01*
X5196646Y-15816400D01*
X5199319Y-15821556D01*
X5201985Y-15826543D01*
X5201987Y-15826547D01*
X5245580Y-15891788D01*
X5247671Y-15894917D01*
X5248471Y-15896130D01*
X5293317Y-15965124D01*
X5293318Y-15965125D01*
X5296901Y-15969606D01*
X5300538Y-15974037D01*
X5358665Y-16032164D01*
X5359696Y-16033208D01*
X5417147Y-16092133D01*
X5417153Y-16092139D01*
X5421527Y-16095822D01*
X5425969Y-16099467D01*
X5494359Y-16145164D01*
X5495585Y-16145994D01*
X5563374Y-16192543D01*
X5563375Y-16192543D01*
X5563376Y-16192544D01*
X5568396Y-16195309D01*
X5573455Y-16198014D01*
X5579950Y-16200704D01*
X5649505Y-16229514D01*
X5650690Y-16230013D01*
X5726381Y-16262496D01*
X5726387Y-16262497D01*
X5731777Y-16264207D01*
X5737321Y-16265889D01*
X5737334Y-16265894D01*
X5750511Y-16268514D01*
X5817931Y-16281926D01*
X5819471Y-16282242D01*
X5871370Y-16293251D01*
X5899904Y-16299304D01*
X5899905Y-16299304D01*
X5905589Y-16299936D01*
X5911308Y-16300500D01*
X5911309Y-16300500D01*
X5993487Y-16300500D01*
X5995058Y-16300510D01*
X6077272Y-16301552D01*
X6077278Y-16301550D01*
X6082936Y-16301066D01*
X6088688Y-16300500D01*
X6088691Y-16300500D01*
X6169511Y-16284423D01*
X6170611Y-16284211D01*
X6251672Y-16269153D01*
X6251679Y-16269149D01*
X6257244Y-16267538D01*
X6262659Y-16265896D01*
X6262661Y-16265894D01*
X6262666Y-16265894D01*
X6338698Y-16234400D01*
X6339959Y-16233887D01*
X6416400Y-16203354D01*
X6416407Y-16203349D01*
X6421510Y-16200704D01*
X6426538Y-16198016D01*
X6426547Y-16198013D01*
X6494906Y-16152336D01*
X6496119Y-16151535D01*
X9080966Y-14471384D01*
X9147899Y-14451355D01*
X9210541Y-14467966D01*
X9287705Y-14512516D01*
X9287706Y-14512517D01*
X9427594Y-14550000D01*
X9572406Y-14550000D01*
X9712296Y-14512516D01*
X9712297Y-14512515D01*
X9745727Y-14493214D01*
X9745727Y-14493213D01*
X9578852Y-14326339D01*
X9545367Y-14265016D01*
X9550351Y-14195325D01*
X9592222Y-14139391D01*
X9598930Y-14134708D01*
X9686382Y-14077864D01*
X9753316Y-14057834D01*
X9820457Y-14077171D01*
X9841640Y-14094151D01*
X9993214Y-14245727D01*
X10012515Y-14212297D01*
X10012516Y-14212296D01*
X10050000Y-14072406D01*
X10050000Y-13927590D01*
X10049769Y-13925836D01*
X10050000Y-13924354D01*
X10050000Y-13919463D01*
X10050762Y-13919463D01*
X10060531Y-13856800D01*
X10105124Y-13805681D01*
X12411648Y-12306441D01*
X12421405Y-12301313D01*
X12421176Y-12300883D01*
X12426534Y-12298018D01*
X12426547Y-12298013D01*
X12495024Y-12252256D01*
X12496135Y-12251524D01*
X12565124Y-12206683D01*
X12565133Y-12206674D01*
X12569625Y-12203082D01*
X12574021Y-12199473D01*
X12574035Y-12199464D01*
X12632299Y-12141198D01*
X12633101Y-12140406D01*
X12692133Y-12082854D01*
X12692139Y-12082845D01*
X12695771Y-12078532D01*
X12699453Y-12074045D01*
X12699464Y-12074035D01*
X12727769Y-12031672D01*
X12745140Y-12005676D01*
X12746022Y-12004373D01*
X12792543Y-11936626D01*
X12792545Y-11936619D01*
X12795321Y-11931582D01*
X12798010Y-11926551D01*
X12798013Y-11926547D01*
X12829520Y-11850480D01*
X12830030Y-11849269D01*
X12862495Y-11773619D01*
X12862496Y-11773610D01*
X12864256Y-11768066D01*
X12865892Y-11762672D01*
X12865892Y-11762669D01*
X12865894Y-11762666D01*
X12881941Y-11681985D01*
X12882257Y-11680449D01*
X12899303Y-11600096D01*
X12899303Y-11600092D01*
X12899940Y-11594361D01*
X12900500Y-11588692D01*
X12900500Y-11506477D01*
X12900510Y-11504905D01*
X12901552Y-11422728D01*
X12901551Y-11422722D01*
X12901067Y-11417069D01*
X12900500Y-11411309D01*
X12884448Y-11330611D01*
X12884172Y-11329175D01*
X12869153Y-11248330D01*
X12867540Y-11242759D01*
X12865895Y-11237338D01*
X12865894Y-11237337D01*
X12865894Y-11237334D01*
X12834429Y-11161373D01*
X12833837Y-11159917D01*
X12803352Y-11083596D01*
X12800714Y-11078508D01*
X12798011Y-11073448D01*
X12752317Y-11005065D01*
X12751537Y-11003883D01*
X12706683Y-10934876D01*
X12706681Y-10934874D01*
X12706680Y-10934872D01*
X12703091Y-10930385D01*
X12699466Y-10925967D01*
X12699464Y-10925965D01*
X12641259Y-10867760D01*
X12640228Y-10866715D01*
X12582855Y-10807868D01*
X12578436Y-10804147D01*
X12574034Y-10800535D01*
X12505692Y-10754870D01*
X12504391Y-10753989D01*
X12436623Y-10707455D01*
X12431574Y-10704673D01*
X12426550Y-10701988D01*
X12350620Y-10670537D01*
X12349173Y-10669927D01*
X12273623Y-10637505D01*
X12268176Y-10635777D01*
X12262663Y-10634105D01*
X12182054Y-10618071D01*
X12180517Y-10617755D01*
X12100092Y-10600695D01*
X12094350Y-10600056D01*
X12088696Y-10599500D01*
X12088691Y-10599500D01*
X12006477Y-10599500D01*
X12004905Y-10599490D01*
X11922728Y-10598448D01*
X11922727Y-10598448D01*
X11922722Y-10598448D01*
X11917077Y-10598931D01*
X11911309Y-10599499D01*
X11830647Y-10615543D01*
X11829109Y-10615839D01*
X11748320Y-10630848D01*
X11742885Y-10632421D01*
X11737329Y-10634107D01*
X11661372Y-10665568D01*
X11659921Y-10666158D01*
X11583605Y-10696643D01*
X11578504Y-10699287D01*
X11573451Y-10701987D01*
X11505109Y-10747652D01*
X11503798Y-10748516D01*
X8837557Y-12481572D01*
X8770620Y-12501603D01*
X8720718Y-12488369D01*
X8719798Y-12490592D01*
X8712290Y-12487482D01*
X8572406Y-12450000D01*
X8427594Y-12450000D01*
X8287705Y-12487483D01*
X8254272Y-12506784D01*
X8360539Y-12613051D01*
X8394024Y-12674374D01*
X8389040Y-12744066D01*
X8347169Y-12800000D01*
X8340437Y-12804700D01*
X8253013Y-12861526D01*
X8186076Y-12881557D01*
X8118936Y-12862220D01*
X8097752Y-12845240D01*
X8006784Y-12754272D01*
X7987483Y-12787705D01*
X7950000Y-12927593D01*
X7950000Y-12991191D01*
X7930315Y-13058230D01*
X7893579Y-13095158D01*
X5588343Y-14593562D01*
X5578602Y-14598698D01*
X5578825Y-14599115D01*
X5573457Y-14601984D01*
X5505066Y-14647680D01*
X5503759Y-14648542D01*
X5434876Y-14693317D01*
X5434874Y-14693318D01*
X5434872Y-14693320D01*
X5430319Y-14696960D01*
X5425971Y-14700528D01*
X5367873Y-14758627D01*
X5366757Y-14759729D01*
X5307870Y-14817143D01*
X5304104Y-14821615D01*
X5300539Y-14825960D01*
X5254819Y-14894382D01*
X5253940Y-14895679D01*
X5207459Y-14963370D01*
X5204692Y-14968392D01*
X5201984Y-14973457D01*
X5170536Y-15049379D01*
X5169927Y-15050824D01*
X5137506Y-15126374D01*
X5135765Y-15131859D01*
X5134104Y-15137337D01*
X5118076Y-15217918D01*
X5117760Y-15219457D01*
X5100696Y-15299900D01*
X5100060Y-15305611D01*
X5099500Y-15311307D01*
X5099500Y-15393486D01*
X5099489Y-15395057D01*
X5098448Y-15477272D01*
X200000Y-15477272D01*
X200000Y-3626126D01*
X3950000Y-3626126D01*
X3950000Y-4025000D01*
X4400000Y-4025000D01*
X4400000Y-4375000D01*
X3950000Y-4375000D01*
X3950000Y-4773873D01*
X3978820Y-4918759D01*
X3978822Y-4918767D01*
X4035357Y-5055254D01*
X4035362Y-5055264D01*
X4117436Y-5178096D01*
X4117439Y-5178100D01*
X4221899Y-5282560D01*
X4221903Y-5282563D01*
X4344735Y-5364637D01*
X4344745Y-5364642D01*
X4481228Y-5421175D01*
X4481234Y-5421177D01*
X4525000Y-5429882D01*
X4525000Y-4945374D01*
X4584204Y-4979556D01*
X4660504Y-5000000D01*
X4739496Y-5000000D01*
X4815796Y-4979556D01*
X4875000Y-4945374D01*
X4875000Y-5429881D01*
X4918765Y-5421177D01*
X4918771Y-5421175D01*
X5055254Y-5364642D01*
X5055264Y-5364637D01*
X5178096Y-5282563D01*
X5178100Y-5282560D01*
X5282560Y-5178100D01*
X5282563Y-5178096D01*
X5364637Y-5055264D01*
X5364642Y-5055254D01*
X5421177Y-4918767D01*
X5421179Y-4918759D01*
X5449999Y-4773873D01*
X5450000Y-4773871D01*
X5450000Y-4375000D01*
X5000000Y-4375000D01*
X5000000Y-4025000D01*
X5450000Y-4025000D01*
X5450000Y-3626128D01*
X5449999Y-3626126D01*
X12550000Y-3626126D01*
X12550000Y-4025000D01*
X13000000Y-4025000D01*
X13000000Y-4375000D01*
X12550000Y-4375000D01*
X12550000Y-4773873D01*
X12578820Y-4918759D01*
X12578822Y-4918767D01*
X12635357Y-5055254D01*
X12635362Y-5055264D01*
X12717436Y-5178096D01*
X12717439Y-5178100D01*
X12821899Y-5282560D01*
X12821903Y-5282563D01*
X12944735Y-5364637D01*
X12944745Y-5364642D01*
X13081228Y-5421175D01*
X13081234Y-5421177D01*
X13125000Y-5429882D01*
X13125000Y-4945374D01*
X13184204Y-4979556D01*
X13260504Y-5000000D01*
X13339496Y-5000000D01*
X13415796Y-4979556D01*
X13475000Y-4945374D01*
X13475000Y-5429881D01*
X13518765Y-5421177D01*
X13518771Y-5421175D01*
X13655254Y-5364642D01*
X13655264Y-5364637D01*
X13778096Y-5282563D01*
X13778100Y-5282560D01*
X13882560Y-5178100D01*
X13882563Y-5178096D01*
X13964637Y-5055264D01*
X13964642Y-5055254D01*
X14021177Y-4918767D01*
X14021179Y-4918759D01*
X14049999Y-4773873D01*
X14050000Y-4773871D01*
X14050000Y-4375000D01*
X13600000Y-4375000D01*
X13600000Y-4025000D01*
X14050000Y-4025000D01*
X14050000Y-3626128D01*
X14049999Y-3626126D01*
X14021179Y-3481240D01*
X14021177Y-3481232D01*
X13964642Y-3344745D01*
X13964637Y-3344735D01*
X13882563Y-3221903D01*
X13882560Y-3221899D01*
X13778100Y-3117439D01*
X13778096Y-3117436D01*
X13655264Y-3035362D01*
X13655254Y-3035357D01*
X13518767Y-2978822D01*
X13518759Y-2978820D01*
X13475000Y-2970115D01*
X13475000Y-3454625D01*
X13415796Y-3420444D01*
X13339496Y-3400000D01*
X13260504Y-3400000D01*
X13184204Y-3420444D01*
X13125000Y-3454625D01*
X13125000Y-2970116D01*
X13124999Y-2970115D01*
X13081240Y-2978820D01*
X13081232Y-2978822D01*
X12944745Y-3035357D01*
X12944735Y-3035362D01*
X12821903Y-3117436D01*
X12821899Y-3117439D01*
X12717439Y-3221899D01*
X12717436Y-3221903D01*
X12635362Y-3344735D01*
X12635357Y-3344745D01*
X12578822Y-3481232D01*
X12578820Y-3481240D01*
X12550000Y-3626126D01*
X5449999Y-3626126D01*
X5421179Y-3481240D01*
X5421177Y-3481232D01*
X5364642Y-3344745D01*
X5364637Y-3344735D01*
X5282563Y-3221903D01*
X5282560Y-3221899D01*
X5178100Y-3117439D01*
X5178096Y-3117436D01*
X5055264Y-3035362D01*
X5055254Y-3035357D01*
X4918767Y-2978822D01*
X4918759Y-2978820D01*
X4875000Y-2970115D01*
X4875000Y-3454625D01*
X4815796Y-3420444D01*
X4739496Y-3400000D01*
X4660504Y-3400000D01*
X4584204Y-3420444D01*
X4525000Y-3454625D01*
X4525000Y-2970116D01*
X4524999Y-2970115D01*
X4481240Y-2978820D01*
X4481232Y-2978822D01*
X4344745Y-3035357D01*
X4344735Y-3035362D01*
X4221903Y-3117436D01*
X4221899Y-3117439D01*
X4117439Y-3221899D01*
X4117436Y-3221903D01*
X4035362Y-3344735D01*
X4035357Y-3344745D01*
X3978822Y-3481232D01*
X3978820Y-3481240D01*
X3950000Y-3626126D01*
X200000Y-3626126D01*
X200000Y-324000D01*
X219685Y-256961D01*
X272489Y-211206D01*
X324000Y-200000D01*
X3826000Y-200000D01*
X3893039Y-219685D01*
G37*
%TD.AperFunction*%
%TD*%
M02*
