<?xml version="1.0" standalone="no"?>
 <!DOCTYPE svg PUBLIC "-//W3C//DTD SVG 1.1//EN" 
 "http://www.w3.org/Graphics/SVG/1.1/DTD/svg11.dtd"> 
<svg
  xmlns:svg="http://www.w3.org/2000/svg"
  xmlns="http://www.w3.org/2000/svg"
  xmlns:xlink="http://www.w3.org/1999/xlink"
  xmlns:inkscape="http://www.inkscape.org/namespaces/inkscape"
  version="1.1"
  width="7.3914mm" height="5.8928mm" viewBox="0.0000 0.0000 7.3914 5.8928">
<title>SVG Image created as VDD_N_unit1.svg date 2026-08-26T15:28:17 </title>
  <desc>Image generated by Eeschema-SVG </desc>
<g style="fill:#000000; fill-opacity:1.0000;stroke:#000000; stroke-opacity:1.0000;
stroke-linecap:round; stroke-linejoin:round;"
 transform="translate(0 0) scale(1 1)">
<path style="fill:#840000; fill-opacity:1.0000; 
stroke:#840000; stroke-width:0.1524; stroke-opacity:1; 
stroke-linecap:round; stroke-linejoin:round;fill-rule:evenodd;"
d="M 3.6957,3.4167
4.4577,2.7817
3.6957,2.1467
2.9337,2.7817
Z" /> 
</g>
<g style="fill:none; 
stroke:#840000; stroke-width:0.1524; stroke-opacity:1; 
stroke-linecap:round; stroke-linejoin:round;">
<path d="M3.6957 4.6867
L3.6957 4.6867
" />
</g>
<g style="fill:none; 
stroke:#A90000; stroke-width:0.1524; stroke-opacity:1; 
stroke-linecap:round; stroke-linejoin:round;">
<g transform="rotate(-90.000000 3.3401 4.6867)">
<text x="3.3401" y="4.6867"
textLength="1.4127" font-size="1.6933" lengthAdjust="spacingAndGlyphs"
text-anchor="middle" opacity="0" stroke-opacity="0">1</text>
</g>
<g class="stroked-text"><desc>1</desc>
<path d="M3.1766 4.3237
L3.1766 5.0494
" />
<path d="M3.1766 4.6866
L1.9066 4.6866
" />
<path d="M1.9066 4.6866
L2.0881 4.8075
" />
<path d="M2.0881 4.8075
L2.2090 4.9285
" />
<path d="M2.2090 4.9285
L2.2695 5.0494
" />
</g></g>
<g style="fill:none; 
stroke:#006464; stroke-width:0.1524; stroke-opacity:1; 
stroke-linecap:round; stroke-linejoin:round;">
<text x="3.6957" y="2.1467"
textLength="6.1299" font-size="1.6933" lengthAdjust="spacingAndGlyphs"
text-anchor="middle" opacity="0" stroke-opacity="0">VDD_N</text>
<g class="stroked-text"><desc>VDD_N</desc>
<path d="M0.8533 0.8213
L1.2766 2.0912
" />
<path d="M1.2766 2.0912
L1.7000 0.8213
" />
<path d="M2.1233 2.0912
L2.1233 0.8213
" />
<path d="M2.1233 0.8213
L2.4257 0.8213
" />
<path d="M2.4257 0.8213
L2.6071 0.8818
" />
<path d="M2.6071 0.8818
L2.7281 1.0028
" />
<path d="M2.7281 1.0028
L2.7886 1.1237
" />
<path d="M2.7886 1.1237
L2.8490 1.3656
" />
<path d="M2.8490 1.3656
L2.8490 1.5470
" />
<path d="M2.8490 1.5470
L2.7886 1.7888
" />
<path d="M2.7886 1.7888
L2.7281 1.9098
" />
<path d="M2.7281 1.9098
L2.6071 2.0308
" />
<path d="M2.6071 2.0308
L2.4257 2.0912
" />
<path d="M2.4257 2.0912
L2.1233 2.0912
" />
<path d="M3.3933 2.0912
L3.3933 0.8213
" />
<path d="M3.3933 0.8213
L3.6957 0.8213
" />
<path d="M3.6957 0.8213
L3.8771 0.8818
" />
<path d="M3.8771 0.8818
L3.9981 1.0028
" />
<path d="M3.9981 1.0028
L4.0586 1.1237
" />
<path d="M4.0586 1.1237
L4.1190 1.3656
" />
<path d="M4.1190 1.3656
L4.1190 1.5470
" />
<path d="M4.1190 1.5470
L4.0586 1.7888
" />
<path d="M4.0586 1.7888
L3.9981 1.9098
" />
<path d="M3.9981 1.9098
L3.8771 2.0308
" />
<path d="M3.8771 2.0308
L3.6957 2.0912
" />
<path d="M3.6957 2.0912
L3.3933 2.0912
" />
<path d="M4.3610 2.2122
L5.3286 2.2122
" />
<path d="M5.6309 2.0912
L5.6309 0.8213
" />
<path d="M5.6309 0.8213
L6.3566 2.0912
" />
<path d="M6.3566 2.0912
L6.3566 0.8213
" />
</g></g> 
</svg>
