M48
; DRILL file KiCad 10.0.6-10.0.6~ubuntu26.04.1 date 2026-09-08T19:48:00
; FORMAT={-:-/ absolute / metric / decimal}
; #@! TF.CreationDate,2026-09-08T19:48:00+07:00
; #@! TF.GenerationSoftware,Kicad,Pcbnew,10.0.6-10.0.6~ubuntu26.04.1
; #@! TF.FileFunction,Plated,1,2,PTH
FMAT,2
METRIC
; #@! TA.AperFunction,Plated,PTH,ViaDrill
T1C0.300
; #@! TA.AperFunction,Plated,PTH,ViaDrill
T2C0.400
; #@! TA.AperFunction,Plated,PTH,ComponentDrill
T3C0.550
; #@! TA.AperFunction,Plated,PTH,ComponentDrill
T4C0.750
; #@! TA.AperFunction,Plated,PTH,ComponentDrill
T5C0.800
; #@! TA.AperFunction,Plated,PTH,ComponentDrill
T6C0.850
; #@! TA.AperFunction,Plated,PTH,ComponentDrill
T7C0.900
; #@! TA.AperFunction,Plated,PTH,ComponentDrill
T8C0.950
; #@! TA.AperFunction,Plated,PTH,ComponentDrill
T9C1.000
%
G90
G05
T1
X27.5Y-106.0
X29.5Y-94.68
X31.0Y-128.0
X37.0Y-128.0
X38.5Y-131.08
X39.0Y-129.04
X43.0Y-128.0
X43.5Y-96.5
X49.0Y-127.5
X54.0Y-110.635
X54.062Y-121.0
X55.0Y-126.5
X55.2Y-125.0
X60.062Y-121.0
X62.0Y-122.5
X63.7Y-125.0
T2
X61.5Y-99.0
X65.55Y-101.0
X74.5Y-98.8
T5
X66.3Y-113.0
X68.8Y-113.0
X70.5Y-108.5
X73.0Y-108.5
T7
X37.85Y-95.0
X39.85Y-95.0
X41.85Y-95.0
T8
X53.0Y-132.55
X53.0Y-135.09
X53.0Y-137.63
X55.54Y-132.55
X55.54Y-135.09
X55.54Y-137.63
X61.5Y-132.55
X61.5Y-135.09
X61.5Y-137.63
X64.04Y-132.55
X64.04Y-135.09
X64.04Y-137.63
X67.98Y-101.54
X67.98Y-104.08
X67.98Y-119.54
X67.98Y-122.08
X70.52Y-101.54
X70.52Y-104.08
X70.52Y-119.54
X70.52Y-122.08
X73.06Y-101.54
X73.06Y-104.08
X73.06Y-119.54
X73.06Y-122.08
T9
X30.0Y-132.0
X30.0Y-134.54
X30.0Y-137.08
X40.0Y-127.5
X40.0Y-130.04
X40.0Y-132.58
X40.0Y-135.12
X40.0Y-137.66
X48.0Y-134.0
X48.0Y-136.54
T3
G00X26.81Y-92.43
M15
G01X26.81Y-91.78
M16
G05
G00X26.81Y-100.18
M15
G01X26.81Y-99.53
M16
G05
T4
G00X35.67Y-95.325
M15
G01X35.67Y-94.675
M16
G05
G00X43.97Y-95.325
M15
G01X43.97Y-94.675
M16
G05
T6
G00X30.61Y-92.53
M15
G01X30.61Y-91.98
M16
G05
G00X30.61Y-99.98
M15
G01X30.61Y-99.43
M16
G05
M30
